<svg width="660" height="260" viewBox="0 0 660 260" fill="none" xmlns="http://www.w3.org/2000/svg">
<path d="M72.9437 107.621C64.4167 114.248 70.4203 125.062 80.6035 127.249L110.257 134.352C110.704 134.46 111.038 133.939 110.783 133.557C96.4305 112.084 109.148 103.463 145.507 77.15L104.387 76.6904L72.9437 107.621Z" fill="#FAC406"/>
<path d="M159.405 152.267C167.932 145.641 161.929 134.826 151.745 132.639L122.092 125.536C121.645 125.429 121.311 125.949 121.566 126.331C135.918 147.805 123.201 156.425 86.842 182.739L127.962 183.198L159.405 152.267Z" fill="white"/>
<path d="M266.849 147.644C266.849 151.844 265.816 155.511 263.749 158.644C261.682 161.778 258.682 164.211 254.749 165.944C250.882 167.611 246.149 168.444 240.549 168.444C238.082 168.444 235.649 168.278 233.249 167.944C230.916 167.611 228.649 167.144 226.449 166.544C224.316 165.878 222.282 165.078 220.349 164.144V150.044C223.749 151.511 227.249 152.878 230.849 154.144C234.516 155.344 238.149 155.944 241.749 155.944C244.216 155.944 246.182 155.611 247.649 154.944C249.182 154.278 250.282 153.378 250.949 152.244C251.682 151.111 252.049 149.811 252.049 148.344C252.049 146.544 251.416 145.011 250.149 143.744C248.949 142.478 247.316 141.311 245.249 140.244C243.182 139.111 240.816 137.911 238.149 136.644C236.482 135.844 234.682 134.911 232.749 133.844C230.816 132.711 228.949 131.344 227.149 129.744C225.416 128.078 223.982 126.078 222.849 123.744C221.716 121.411 221.149 118.611 221.149 115.344C221.149 111.078 222.116 107.444 224.049 104.444C226.049 101.378 228.849 99.0443 232.449 97.4443C236.116 95.8443 240.416 95.0443 245.349 95.0443C249.082 95.0443 252.616 95.4776 255.949 96.3443C259.349 97.2109 262.882 98.4443 266.549 100.044L261.649 111.844C258.382 110.511 255.449 109.478 252.849 108.744C250.249 108.011 247.582 107.644 244.849 107.644C242.982 107.644 241.382 107.944 240.049 108.544C238.716 109.144 237.682 109.978 236.949 111.044C236.282 112.111 235.949 113.378 235.949 114.844C235.949 116.511 236.449 117.944 237.449 119.144C238.449 120.278 239.949 121.378 241.949 122.444C243.949 123.511 246.449 124.778 249.449 126.244C253.116 127.978 256.216 129.778 258.749 131.644C261.349 133.511 263.349 135.711 264.749 138.244C266.149 140.778 266.849 143.911 266.849 147.644Z" fill="white"/>
<path d="M301.027 111.744C308.36 111.744 313.96 113.344 317.827 116.544C321.76 119.678 323.727 124.511 323.727 131.044V167.444H313.327L310.427 160.044H310.027C308.494 161.978 306.894 163.578 305.227 164.844C303.627 166.111 301.76 167.011 299.627 167.544C297.56 168.144 294.994 168.444 291.927 168.444C288.727 168.444 285.827 167.844 283.227 166.644C280.694 165.378 278.694 163.478 277.227 160.944C275.76 158.344 275.027 155.078 275.027 151.144C275.027 145.344 277.06 141.078 281.127 138.344C285.194 135.544 291.294 134.011 299.427 133.744L308.927 133.444V131.044C308.927 128.178 308.16 126.078 306.627 124.744C305.16 123.411 303.094 122.744 300.427 122.744C297.76 122.744 295.16 123.144 292.627 123.944C290.094 124.678 287.56 125.611 285.027 126.744L280.127 116.644C283.06 115.111 286.294 113.911 289.827 113.044C293.427 112.178 297.16 111.744 301.027 111.744ZM303.127 142.344C298.327 142.478 294.994 143.344 293.127 144.944C291.26 146.544 290.327 148.644 290.327 151.244C290.327 153.511 290.994 155.144 292.327 156.144C293.66 157.078 295.394 157.544 297.527 157.544C300.727 157.544 303.427 156.611 305.627 154.744C307.827 152.811 308.927 150.111 308.927 146.644V142.144L303.127 142.344Z" fill="white"/>
<path d="M353.879 167.444H338.979V91.4443H353.879V167.444Z" fill="white"/>
<path d="M382.447 167.444L361.647 112.844H377.247L387.747 143.944C388.147 145.144 388.481 146.411 388.747 147.744C389.081 149.078 389.314 150.378 389.447 151.644C389.647 152.911 389.781 154.078 389.847 155.144H390.247C390.314 154.011 390.447 152.811 390.647 151.544C390.847 150.278 391.081 149.011 391.347 147.744C391.681 146.411 392.047 145.144 392.447 143.944L402.947 112.844H418.547L397.747 167.444H382.447Z" fill="white"/>
<path d="M448.781 111.744C456.114 111.744 461.714 113.344 465.581 116.544C469.514 119.678 471.481 124.511 471.481 131.044V167.444H461.081L458.181 160.044H457.781C456.248 161.978 454.648 163.578 452.981 164.844C451.381 166.111 449.514 167.011 447.381 167.544C445.314 168.144 442.748 168.444 439.681 168.444C436.481 168.444 433.581 167.844 430.981 166.644C428.448 165.378 426.448 163.478 424.981 160.944C423.514 158.344 422.781 155.078 422.781 151.144C422.781 145.344 424.814 141.078 428.881 138.344C432.948 135.544 439.048 134.011 447.181 133.744L456.681 133.444V131.044C456.681 128.178 455.914 126.078 454.381 124.744C452.914 123.411 450.848 122.744 448.181 122.744C445.514 122.744 442.914 123.144 440.381 123.944C437.848 124.678 435.314 125.611 432.781 126.744L427.881 116.644C430.814 115.111 434.048 113.911 437.581 113.044C441.181 112.178 444.914 111.744 448.781 111.744ZM450.881 142.344C446.081 142.478 442.748 143.344 440.881 144.944C439.014 146.544 438.081 148.644 438.081 151.244C438.081 153.511 438.748 155.144 440.081 156.144C441.414 157.078 443.148 157.544 445.281 157.544C448.481 157.544 451.181 156.611 453.381 154.744C455.581 152.811 456.681 150.111 456.681 146.644V142.144L450.881 142.344Z" fill="white"/>
<path d="M504.032 168.444C497.966 168.444 492.999 166.078 489.132 161.344C485.332 156.544 483.432 149.511 483.432 140.244C483.432 130.911 485.366 123.844 489.232 119.044C493.099 114.244 498.166 111.844 504.432 111.844C507.032 111.844 509.332 112.211 511.332 112.944C513.332 113.611 515.032 114.544 516.432 115.744C517.899 116.944 519.132 118.311 520.132 119.844H520.632C520.432 118.778 520.199 117.244 519.932 115.244C519.666 113.178 519.532 111.078 519.532 108.944V91.4443H534.432V167.444H523.032L520.132 160.344H519.532C518.599 161.811 517.399 163.178 515.932 164.444C514.532 165.644 512.866 166.611 510.932 167.344C508.999 168.078 506.699 168.444 504.032 168.444ZM509.232 156.544C513.366 156.544 516.266 155.344 517.932 152.944C519.599 150.478 520.466 146.811 520.532 141.944V140.344C520.532 135.011 519.699 130.944 518.032 128.144C516.432 125.344 513.432 123.944 509.032 123.944C505.766 123.944 503.199 125.378 501.332 128.244C499.466 131.044 498.532 135.111 498.532 140.444C498.532 145.778 499.466 149.811 501.332 152.544C503.199 155.211 505.832 156.544 509.232 156.544Z" fill="white"/>
<path d="M599.614 140.044C599.614 144.578 598.98 148.611 597.714 152.144C596.514 155.678 594.747 158.678 592.414 161.144C590.147 163.544 587.38 165.378 584.114 166.644C580.847 167.844 577.147 168.444 573.014 168.444C569.214 168.444 565.68 167.844 562.414 166.644C559.214 165.378 556.447 163.544 554.114 161.144C551.78 158.678 549.947 155.678 548.614 152.144C547.347 148.611 546.714 144.578 546.714 140.044C546.714 133.978 547.78 128.878 549.914 124.744C552.047 120.544 555.114 117.344 559.114 115.144C563.114 112.944 567.847 111.844 573.314 111.844C578.447 111.844 582.98 112.944 586.914 115.144C590.847 117.344 593.947 120.544 596.214 124.744C598.48 128.878 599.614 133.978 599.614 140.044ZM561.914 140.044C561.914 143.644 562.28 146.678 563.014 149.144C563.814 151.544 565.047 153.378 566.714 154.644C568.38 155.844 570.547 156.444 573.214 156.444C575.88 156.444 578.014 155.844 579.614 154.644C581.28 153.378 582.48 151.544 583.214 149.144C584.014 146.678 584.414 143.644 584.414 140.044C584.414 136.444 584.014 133.444 583.214 131.044C582.48 128.644 581.28 126.844 579.614 125.644C577.947 124.444 575.78 123.844 573.114 123.844C569.18 123.844 566.314 125.211 564.514 127.944C562.78 130.611 561.914 134.644 561.914 140.044Z" fill="white"/>
</svg>
