<svg xmlns="http://www.w3.org/2000/svg" width="32" height="32" viewBox="0 0 32 32"><g style="line-height:125%" font-family="sans-serif" font-size="44.402" font-weight="400" letter-spacing="0" transform="translate(0 -1020.362)" word-spacing="0"><path fill="white" style="line-height:125%;text-indent:0;text-align:start;text-decoration-line:none;text-decoration-style:solid;text-decoration-color:#000;text-transform:none;block-progression:tb;white-space:normal;isolation:auto;mix-blend-mode:normal;solid-color:#000;solid-opacity:1" d="M 24.996094 1 C 24.562793 1.0008 24.132407 1.060025 23.716797 1.171875 L 23.716797 1.1699219 C 22.885577 1.3917219 22.111528 1.8273313 21.482422 2.4570312 C 20.271776 3.6679313 19.906988 5.3452031 20.205078 6.9082031 L 15.572266 11.539062 C 15.265902 11.295305 14.895594 11.164063 14.525391 11.164062 C 14.095527 11.164062 13.660182 11.330103 13.332031 11.658203 L 12.84375 12.146484 L 6.4082031 5.7109375 L 6.6855469 5.4335938 C 6.7964021 5.322255 6.8484831 5.1652886 6.8261719 5.0097656 L 6.6171875 3.5390625 C 6.5976243 3.4037576 6.5235167 3.2823623 6.4121094 3.203125 L 3.4707031 1.1035156 C 3.3893581 1.0442316 3.2920155 1.0108764 3.1914062 1.0078125 L 3.1914062 1.0097656 C 3.0554311 1.0071638 2.9242604 1.0600521 2.828125 1.15625 L 1.1464844 2.8359375 C 0.97365689 3.0089781 0.95134848 3.2816366 1.09375 3.4804688 L 3.1933594 6.421875 C 3.2725967 6.5332823 3.393992 6.6073899 3.5292969 6.6269531 L 5 6.8359375 C 5.1561671 6.8588905 5.3140035 6.8067605 5.4257812 6.6953125 L 5.7011719 6.4179688 L 12.136719 12.853516 L 11.650391 13.339844 C 11.040758 13.949484 11.006227 14.919787 11.53125 15.580078 L 6.8964844 20.214844 C 5.3340557 19.917644 3.6573465 20.282888 2.4472656 21.492188 C 1.189199 22.750387 0.70192881 24.587087 1.1621094 26.304688 A 0.50005 0.50005 0 0 0 1.9980469 26.529297 L 4.5175781 24.007812 L 6.3671875 24.625 L 6.9824219 26.474609 L 4.4628906 28.994141 A 0.50005 0.50005 0 0 0 4.6875 29.830078 C 6.4054598 30.290478 8.2409559 29.800122 9.5 28.544922 C 10.710659 27.334122 11.075485 25.65675 10.777344 24.09375 L 14.556641 20.314453 L 24.255859 30.013672 C 24.910882 30.668672 25.987503 30.668772 26.642578 30.013672 L 30.003906 26.652344 C 30.659428 25.996844 30.659453 24.919172 30.003906 24.263672 L 20.304688 14.566406 L 24.083984 10.787109 C 25.646931 11.085009 27.322541 10.720066 28.533203 9.5097656 A 0.50005 0.50005 0 0 0 28.535156 9.5097656 C 29.793251 8.2516656 30.280343 6.4147656 29.820312 4.6972656 A 0.50005 0.50005 0 0 0 28.984375 4.4726562 L 26.464844 6.9921875 L 24.615234 6.3769531 L 23.998047 4.5273438 L 26.519531 2.0078125 A 0.50005 0.50005 0 0 0 26.294922 1.171875 C 25.865609 1.056825 25.429394 0.9992 24.996094 1 z M 24.470703 2.1015625 C 24.638733 2.1123125 24.80817 2.1347656 24.976562 2.1347656 L 23.072266 4.0390625 A 0.50005 0.50005 0 0 0 22.953125 4.5507812 L 23.746094 6.9296875 A 0.50005 0.50005 0 0 0 24.0625 7.2460938 L 26.441406 8.0390625 A 0.50005 0.50005 0 0 0 26.953125 7.9179688 L 28.855469 6.015625 C 28.846269 7.044625 28.573353 8.0555344 27.826172 8.8027344 C 26.78405 9.8432344 25.320476 10.169859 23.990234 9.8183594 A 0.50005 0.50005 0 0 0 23.507812 9.9492188 L 9.9394531 23.517578 A 0.50005 0.50005 0 0 0 9.8085938 24 C 10.160365 25.3308 9.8341477 26.793637 8.7929688 27.835938 C 8.0443982 28.582238 7.0346211 28.855734 6.0058594 28.865234 L 7.9082031 26.962891 A 0.50005 0.50005 0 0 0 8.0292969 26.451172 L 7.2363281 24.072266 A 0.50005 0.50005 0 0 0 6.9199219 23.755859 L 4.5410156 22.962891 A 0.50005 0.50005 0 0 0 4.0292969 23.083984 L 2.125 24.988281 C 2.13343 23.958181 2.4063873 22.947219 3.1542969 22.199219 C 4.1963662 21.158019 5.6613616 20.831994 6.9921875 21.183594 A 0.50005 0.50005 0 0 0 7.4726562 21.052734 L 21.042969 7.484375 A 0.50005 0.50005 0 0 0 21.173828 7.0019531 C 20.821977 5.6707531 21.147268 4.2065625 22.189453 3.1640625 C 22.692277 2.6607625 23.3106 2.3118656 23.974609 2.1347656 C 24.136049 2.0917656 24.302673 2.0908125 24.470703 2.1015625 z M 3.234375 2.1621094 L 5.65625 3.8925781 L 5.8007812 4.9042969 L 5.3476562 5.3574219 L 4.8945312 5.8105469 L 3.8828125 5.6660156 L 2.1523438 3.2441406 L 3.234375 2.1621094 z M 14.525391 12.164062 C 14.641571 12.164062 14.750505 12.202486 14.853516 12.259766 L 12.251953 14.861328 C 12.101656 14.598598 12.128738 14.27549 12.357422 14.046875 L 14.039062 12.365234 C 14.176452 12.227934 14.347701 12.164062 14.525391 12.164062 z M 19.597656 15.273438 L 29.296875 24.970703 C 29.57239 25.246203 29.572457 25.669714 29.296875 25.945312 L 25.935547 29.306641 C 25.659506 29.582741 25.238928 29.582741 24.962891 29.306641 L 15.263672 19.607422 L 16.236328 18.634766 L 25.935547 28.333984 L 26.642578 27.626953 L 16.943359 17.927734 L 17.917969 16.953125 L 27.617188 26.652344 L 28.324219 25.945312 L 18.625 16.246094 L 19.597656 15.273438 z " color="#000" enable-background="accumulate" font-size="medium" overflow="visible" transform="translate(0 1020.362)"/></g></svg>