<svg width="24" height="24" viewBox="0 0 24 24" fill="none" xmlns="http://www.w3.org/2000/svg">
<path fill-rule="evenodd" clip-rule="evenodd" d="M12 22C17.5228 22 22 17.5228 22 12C22 6.47715 17.5228 2 12 2C6.47715 2 2 6.47715 2 12C2 17.5228 6.47715 22 12 22ZM16.4981 10.3352C16.9157 9.91758 16.9157 9.24054 16.4981 8.82296C16.0805 8.40537 15.4035 8.40537 14.9859 8.82296L10.7525 13.0563L9.01388 11.3177C8.59629 10.9001 7.91925 10.9001 7.50167 11.3177C7.08408 11.7353 7.08408 12.4123 7.50167 12.8299L9.74437 15.0726C10.3011 15.6294 11.2039 15.6294 11.7607 15.0726L16.4981 10.3352Z" fill="#C5C0BC"/>
</svg>
