<svg width="18" height="18" viewBox="0 0 18 18" fill="none" xmlns="http://www.w3.org/2000/svg">
<g clip-path="url(#clip0_320_9059)">
<path d="M0 16.1998V1.7999C0 0.805749 0.805971 0 1.80009 0H16.2C17.1942 0 17.9999 0.805749 17.9999 1.7999V16.1999C17.9999 17.194 17.1942 18 16.2 18H1.80009C0.805971 18 0 17.194 0 16.1998ZM16.2 1.34994H1.80009C1.48177 1.34994 1.34991 1.48177 1.34991 1.7999V16.1999C1.34991 16.5182 1.48177 16.6501 1.80009 16.6501H16.65V1.7999C16.65 1.48177 16.5182 1.34994 16.2 1.34994V1.34994Z" fill="#28C57C"/>
<path d="M2.70007 3.5999V5.84979C2.70007 6.22273 3.00221 6.52483 3.37514 6.52483C3.74788 6.52483 4.05002 6.2227 4.05002 5.84979V4.04989H5.85008C6.22282 4.04989 6.52514 3.7476 6.52514 3.37483C6.52514 3.00205 6.22282 2.69995 5.85008 2.69995H3.60002C3.10295 2.69995 2.70007 3.10283 2.70007 3.5999V3.5999ZM15.3 3.5999V5.84979C15.3 6.22273 14.9978 6.52483 14.6251 6.52483C14.2523 6.52483 13.95 6.2227 13.95 5.84979V4.04989H12.1501C11.7772 4.04989 11.4751 3.7476 11.4751 3.37483C11.4751 3.00205 11.7772 2.69995 12.1501 2.69995H14.4C14.8971 2.69995 15.3 3.10283 15.3 3.5999V3.5999ZM2.70007 14.3999V12.1498C2.70007 11.7771 3.00221 11.4747 3.37514 11.4747C3.74788 11.4747 4.05002 11.7771 4.05002 12.1498V13.9499H5.85008C6.22282 13.9499 6.52514 14.252 6.52514 14.6248C6.52514 14.9977 6.22282 15.2998 5.85008 15.2998H3.60002C3.10295 15.2998 2.70007 14.8969 2.70007 14.3999V14.3999ZM14.4 15.2998H12.1501C11.7772 15.2998 11.475 14.9977 11.475 14.6248C11.475 14.252 11.7772 13.9499 12.1501 13.9499H13.95V12.1498C13.95 11.7771 14.2523 11.4747 14.625 11.4747C14.9978 11.4747 15.2999 11.7771 15.2999 12.1498V14.3999C15.3 14.8969 14.8971 15.2998 14.4 15.2998V15.2998Z" fill="#28C57C"/>
</g>
<defs>
<clipPath id="clip0_320_9059">
<rect width="18" height="18" fill="white"/>
</clipPath>
</defs>
</svg>
