<svg width="13" height="12" viewBox="0 0 13 12" fill="none" xmlns="http://www.w3.org/2000/svg">
<path d="M6.80002 0.133301C8.35595 0.133301 9.84816 0.751394 10.9484 1.85161C12.0486 2.95182 12.6667 4.44403 12.6667 5.99997C12.6667 7.5559 12.0486 9.04811 10.9484 10.1483C9.84816 11.2485 8.35595 11.8666 6.80002 11.8666C5.24408 11.8666 3.75187 11.2485 2.65166 10.1483C1.55144 9.04811 0.93335 7.5559 0.93335 5.99997C0.93335 4.44403 1.55144 2.95182 2.65166 1.85161C3.75187 0.751394 5.24408 0.133301 6.80002 0.133301ZM3.09513 2.94752C2.33604 3.86824 1.94712 5.03869 2.00422 6.23061C2.06131 7.42253 2.56032 8.55045 3.40394 9.39439C4.24755 10.2383 5.37527 10.7378 6.56717 10.7954C7.75906 10.8529 8.92967 10.4645 9.85068 9.70575L3.59824 3.45241L3.09513 2.94752ZM6.80002 1.19997C5.79703 1.19838 4.81898 1.51247 4.00446 2.09775L4.47913 2.5733L10.7013 8.79552C11.2153 8.07816 11.5216 7.233 11.5865 6.35291C11.6513 5.47282 11.4724 4.59188 11.0692 3.8069C10.666 3.02192 10.0542 2.36328 9.30101 1.90337C8.54786 1.44345 7.68249 1.20007 6.80002 1.19997Z" fill="#F38700"/>
</svg>
