<svg width="20" height="20" viewBox="0 0 20 20" fill="none" xmlns="http://www.w3.org/2000/svg">
<path d="M2.3 10C2.13432 10 1.99941 10.1344 2.00562 10.2999C2.06103 11.7771 2.52483 13.2122 3.34824 14.4446C4.22729 15.7602 5.47672 16.7855 6.93853 17.391C8.40034 17.9965 10.0089 18.155 11.5607 17.8463C13.1126 17.5376 14.538 16.7757 15.6569 15.6569C16.7757 14.538 17.5376 13.1126 17.8463 11.5607C18.155 10.0089 17.9965 8.40034 17.391 6.93853C16.7855 5.47672 15.7602 4.22729 14.4446 3.34824C13.2122 2.52483 11.7771 2.06103 10.2999 2.00562C10.1344 1.99941 10 2.13431 10 2.3L10 6.66625C10 6.83194 10.1346 6.96472 10.2995 6.98107C10.7937 7.0301 11.27 7.19992 11.6855 7.47753C12.1844 7.81089 12.5732 8.28469 12.8028 8.83904C13.0324 9.39338 13.0925 10.0034 12.9755 10.5919C12.8584 11.1803 12.5695 11.7209 12.1452 12.1452C11.7209 12.5695 11.1803 12.8584 10.5919 12.9755C10.0034 13.0925 9.39338 13.0324 8.83904 12.8028C8.28469 12.5732 7.81089 12.1844 7.47753 11.6855C7.19992 11.27 7.0301 10.7937 6.98107 10.2995C6.96472 10.1346 6.83194 10 6.66625 10H2.3Z" fill="#2C5AFF"/>
<path d="M8.87695 2.3C8.87695 2.13431 8.74257 1.99932 8.57704 2.00654C7.77635 2.04149 6.98712 2.21619 6.24526 2.52348C5.41091 2.86908 4.6528 3.37563 4.01421 4.01421C3.37563 4.6528 2.86908 5.41091 2.52348 6.24526C2.21618 6.98713 2.04149 7.77635 2.00654 8.57704C1.99932 8.74257 2.13431 8.87695 2.3 8.87695L6.79748 8.87695C6.96317 8.87695 7.09491 8.74171 7.12271 8.57837C7.14499 8.44749 7.18189 8.31921 7.23294 8.19598C7.32236 7.98008 7.45344 7.78392 7.61868 7.61868C7.78392 7.45344 7.98008 7.32236 8.19598 7.23294C8.31921 7.18189 8.44749 7.14499 8.57837 7.12271C8.74171 7.09491 8.87695 6.96317 8.87695 6.79748L8.87695 2.3Z" fill="#2C5AFF"/>
</svg>
