<svg width="24" height="24" viewBox="0 0 24 24" fill="none" xmlns="http://www.w3.org/2000/svg">
<path fill-rule="evenodd" clip-rule="evenodd" d="M2.00049 12.0005C2.00049 6.47749 6.47749 2.00049 12.0005 2.00049C17.5235 2.00049 22.0005 6.47749 22.0005 12.0005C22.0005 17.5225 17.5235 22.0005 12.0005 22.0005C6.47749 22.0005 2.00049 17.5225 2.00049 12.0005ZM11.7275 15.6055L16.2955 9.60549C16.6305 9.16649 16.5455 8.53949 16.1065 8.20449C15.6655 7.86949 15.0385 7.95549 14.7045 8.39449L10.9205 13.3635L9.28749 11.2775C8.94749 10.8415 8.31749 10.7655 7.88349 11.1065C7.44849 11.4465 7.37249 12.0755 7.71249 12.5095L10.1445 15.6165C10.3345 15.8585 10.6245 16.0005 10.9315 16.0005H10.9385C11.2485 15.9985 11.5395 15.8525 11.7275 15.6055Z" fill="#36B20B"/>
<mask id="mask0_180_7059" style="mask-type:alpha" maskUnits="userSpaceOnUse" x="2" y="2" width="21" height="21">
<path fill-rule="evenodd" clip-rule="evenodd" d="M2.00049 12.0005C2.00049 6.47749 6.47749 2.00049 12.0005 2.00049C17.5235 2.00049 22.0005 6.47749 22.0005 12.0005C22.0005 17.5225 17.5235 22.0005 12.0005 22.0005C6.47749 22.0005 2.00049 17.5225 2.00049 12.0005ZM11.7275 15.6055L16.2955 9.60549C16.6305 9.16649 16.5455 8.53949 16.1065 8.20449C15.6655 7.86949 15.0385 7.95549 14.7045 8.39449L10.9205 13.3635L9.28749 11.2775C8.94749 10.8415 8.31749 10.7655 7.88349 11.1065C7.44849 11.4465 7.37249 12.0755 7.71249 12.5095L10.1445 15.6165C10.3345 15.8585 10.6245 16.0005 10.9315 16.0005H10.9385C11.2485 15.9985 11.5395 15.8525 11.7275 15.6055Z" fill="white"/>
</mask>
<g mask="url(#mask0_180_7059)">
</g>
</svg>
