<svg width="16" height="16" viewBox="0 0 16 16" fill="none" xmlns="http://www.w3.org/2000/svg">
<path d="M9.60087 2.81939V1.73901H6.43351V2.81939C3.9083 3.5136 2.05127 5.83055 2.05127 8.5727C2.05127 11.8616 4.72834 14.5386 8.01719 14.5386C11.306 14.5386 13.9831 11.8616 13.9831 8.56836C13.9831 5.82621 12.1261 3.5136 9.60087 2.81939ZM8.01719 13.4496C5.3271 13.4496 3.13598 11.2585 3.13598 8.56836C3.13598 5.87828 5.3271 3.68716 8.01719 3.68716C10.7073 3.68716 12.8984 5.87828 12.8984 8.56836C12.8984 11.2585 10.7073 13.4496 8.01719 13.4496Z" fill="black"/>
<path d="M8.10826 4.59839V4.64612L7.52251 8.48166C7.47478 8.80273 7.7221 9.09344 8.04751 9.09344C8.36425 9.09344 8.61156 8.81575 8.57251 8.49902L8.10826 4.59839Z" fill="black"/>
</svg>
