<svg width="17" height="16" viewBox="0 0 17 16" fill="none" xmlns="http://www.w3.org/2000/svg">
<path d="M12.4501 14.5H5.40015C4.60015 14.5 3.90015 13.8 3.90015 12.9V6.09995C3.90015 5.79995 4.15015 5.59995 4.40015 5.59995C4.65015 5.59995 4.90015 5.84995 4.90015 6.09995V12.95C4.90015 13.25 5.10015 13.5 5.35015 13.5H12.4001C12.6501 13.5 12.8501 13.25 12.8501 12.95V6.09995C12.8501 5.79995 13.1001 5.59995 13.3501 5.59995C13.6001 5.59995 13.8501 5.84995 13.8501 6.09995V12.95C13.9501 13.8 13.3001 14.5 12.4501 14.5ZM14.9501 4.54995H2.95015C2.65015 4.54995 2.40015 4.29995 2.40015 3.99995C2.40015 3.69995 2.65015 3.44995 2.95015 3.44995H14.9501C15.2501 3.44995 15.5001 3.69995 15.5001 3.99995C15.5001 4.29995 15.2501 4.54995 14.9501 4.54995ZM10.9501 2.54995H6.95015C6.65015 2.54995 6.40015 2.29995 6.40015 1.99995C6.40015 1.69995 6.65015 1.44995 6.95015 1.44995H10.9501C11.2501 1.44995 11.5001 1.69995 11.5001 1.99995C11.5001 2.29995 11.2501 2.54995 10.9501 2.54995Z" fill="#F52222"/>
<path d="M7.20015 11.55C6.90015 11.55 6.65015 11.3 6.65015 11V6.49995C6.65015 6.19995 6.90015 5.94995 7.20015 5.94995C7.50015 5.94995 7.75015 6.19995 7.75015 6.49995V11C7.75015 11.3 7.50015 11.55 7.20015 11.55ZM10.7001 11.55C10.4001 11.55 10.1501 11.3 10.1501 11V6.49995C10.1501 6.19995 10.4001 5.94995 10.7001 5.94995C11.0001 5.94995 11.2501 6.19995 11.2501 6.49995V11C11.2501 11.3 11.0001 11.55 10.7001 11.55Z" fill="#F52222"/>
</svg>
