<svg width="21" height="20" viewBox="0 0 21 20" fill="none" xmlns="http://www.w3.org/2000/svg">
<rect width="20" height="20" transform="translate(0.200195)" fill="white"/>
<path fill-rule="evenodd" clip-rule="evenodd" d="M10.2002 18C14.6185 18 18.2002 14.4183 18.2002 10C18.2002 5.58172 14.6185 2 10.2002 2C5.78192 2 2.2002 5.58172 2.2002 10C2.2002 14.4183 5.78192 18 10.2002 18ZM8.60894 7.34833C8.31605 7.05544 7.84118 7.05544 7.54828 7.34833C7.25539 7.64123 7.25539 8.1161 7.54828 8.40899L9.13927 9.99998L7.54828 11.591C7.25539 11.8839 7.25539 12.3587 7.54828 12.6516C7.84118 12.9445 8.31605 12.9445 8.60894 12.6516L10.1999 11.0606L11.7909 12.6516C12.0838 12.9445 12.5587 12.9445 12.8516 12.6516C13.1445 12.3587 13.1445 11.8839 12.8516 11.591L11.2606 9.99998L12.8516 8.40899C13.1445 8.1161 13.1445 7.64123 12.8516 7.34833C12.5587 7.05544 12.0838 7.05544 11.7909 7.34833L10.1999 8.93932L8.60894 7.34833Z" fill="#F52222"/>
</svg>
