<svg width="21" height="20" viewBox="0 0 21 20" fill="none" xmlns="http://www.w3.org/2000/svg">
<rect width="20" height="20" transform="translate(0.200195)" fill="white"/>
<path fill-rule="evenodd" clip-rule="evenodd" d="M10.2002 18C14.6185 18 18.2002 14.4183 18.2002 10C18.2002 5.58172 14.6185 2 10.2002 2C5.78192 2 2.2002 5.58172 2.2002 10C2.2002 14.4183 5.78192 18 10.2002 18ZM10.2002 7.625C10.6144 7.625 10.9502 7.28921 10.9502 6.875C10.9502 6.46079 10.6144 6.125 10.2002 6.125C9.78598 6.125 9.4502 6.46079 9.4502 6.875C9.4502 7.28921 9.78598 7.625 10.2002 7.625ZM9.45023 13.125C9.45023 13.5392 9.78602 13.875 10.2002 13.875C10.6144 13.875 10.9502 13.5392 10.9502 13.125V9.12504C10.9502 8.71082 10.6144 8.37504 10.2002 8.37504C9.78602 8.37504 9.45023 8.71082 9.45023 9.12504V13.125Z" fill="#FF842C"/>
</svg>
