<svg width="21" height="20" viewBox="0 0 21 20" fill="none" xmlns="http://www.w3.org/2000/svg">
<path d="M2.5002 10C2.33451 10 2.19961 10.1344 2.20582 10.2999C2.26123 11.7771 2.72502 13.2122 3.54844 14.4446C4.42749 15.7602 5.67692 16.7855 7.13873 17.391C8.60054 17.9965 10.2091 18.155 11.7609 17.8463C13.3128 17.5376 14.7382 16.7757 15.857 15.6569C16.9759 14.538 17.7378 13.1126 18.0465 11.5607C18.3552 10.0089 18.1967 8.40034 17.5912 6.93853C16.9857 5.47672 15.9604 4.22729 14.6448 3.34824C13.4124 2.52483 11.9773 2.06103 10.5001 2.00562C10.3346 1.99941 10.2002 2.13431 10.2002 2.3L10.2002 6.66625C10.2002 6.83194 10.3348 6.96472 10.4997 6.98107C10.9939 7.0301 11.4702 7.19992 11.8857 7.47753C12.3846 7.81089 12.7734 8.28469 13.003 8.83904C13.2326 9.39338 13.2927 10.0034 13.1756 10.5919C13.0586 11.1803 12.7697 11.7209 12.3454 12.1452C11.9211 12.5695 11.3805 12.8584 10.792 12.9755C10.2036 13.0925 9.59358 13.0324 9.03923 12.8028C8.48489 12.5732 8.01108 12.1844 7.67773 11.6855C7.40012 11.27 7.2303 10.7937 7.18127 10.2995C7.16491 10.1346 7.03214 10 6.86645 10H2.5002Z" fill="#2C5AFF"/>
<path d="M9.07715 2.3C9.07715 2.13431 8.94276 1.99932 8.77724 2.00654C7.97655 2.04149 7.18732 2.21619 6.44545 2.52348C5.6111 2.86908 4.85299 3.37563 4.21441 4.01421C3.57582 4.6528 3.06927 5.41091 2.72367 6.24526C2.41638 6.98713 2.24169 7.77635 2.20674 8.57704C2.19951 8.74257 2.33451 8.87695 2.5002 8.87695L6.99768 8.87695C7.16336 8.87695 7.29511 8.74171 7.32291 8.57837C7.34518 8.44749 7.38209 8.31921 7.43313 8.19598C7.52256 7.98008 7.65364 7.78392 7.81887 7.61868C7.98411 7.45344 8.18028 7.32236 8.39617 7.23294C8.51941 7.18189 8.64769 7.14499 8.77857 7.12271C8.9419 7.09491 9.07715 6.96317 9.07715 6.79748V2.3Z" fill="#2C5AFF"/>
</svg>
