<svg width="20" height="20" viewBox="0 0 20 20" fill="none" xmlns="http://www.w3.org/2000/svg">
    <circle cx="10" cy="10" r="10" fill="#7851FF"/>
    <path d="M9.02247 6.22014C8.45676 5.9474 7.80568 5.87792 7.18895 6.02659C6.59622 6.16947 6.0784 6.5033 5.71873 6.96571L5.5903 7.13083C5.17343 7.66678 4.95 8.31579 4.95 8.98048V9.1649C4.95 9.46152 4.98772 9.75715 5.06241 10.0452L5.10719 10.2179C5.2774 10.8744 5.58229 11.4927 6.00503 12.0362L6.26596 12.3717C6.4772 12.6433 6.70832 12.9002 6.95762 13.1406L7.22225 13.3958C7.86107 14.0118 8.59965 14.5253 9.41005 14.916C9.78055 15.0947 10.2195 15.0947 10.59 14.916C11.4003 14.5253 12.1389 14.0118 12.7777 13.3958L13.0424 13.1406C13.2917 12.9002 13.5228 12.6433 13.734 12.3717L13.995 12.0362C14.4177 11.4927 14.7226 10.8744 14.8928 10.2179L14.9376 10.0452C15.0123 9.75715 15.05 9.46153 15.05 9.1649V8.98048C15.05 8.31579 14.8266 7.66678 14.4097 7.13083L14.2813 6.96571C13.9216 6.5033 13.4038 6.16947 12.8111 6.02659C12.1943 5.87792 11.5432 5.9474 10.9775 6.22014L10.7487 6.33047C10.4667 6.46644 10.2186 6.65237 10.0157 6.87544C10.0078 6.8842 9.99223 6.8842 9.98427 6.87544C9.78141 6.65237 9.53334 6.46644 9.25131 6.33047L9.02247 6.22014ZM7.42445 6.83639C7.81533 6.74217 8.22874 6.78536 8.59199 6.9605L8.82082 7.07082C9.10725 7.20891 9.34456 7.43544 9.49243 7.72059C9.63065 7.98715 9.8068 8.14094 9.99921 8.14144C10.1918 8.14194 10.3685 7.98888 10.5076 7.72059C10.6554 7.43544 10.8928 7.20891 11.1792 7.07082L11.408 6.9605C11.7713 6.78536 12.1847 6.74217 12.5755 6.83639C12.9523 6.92721 13.2909 7.14173 13.5308 7.45016L13.6593 7.61528C13.9638 8.0068 14.1303 8.48584 14.1303 8.98048V9.1649C14.1303 9.39682 14.1008 9.62776 14.0426 9.85248L13.9978 10.0252C13.8543 10.5786 13.5978 11.0976 13.2445 11.5518L12.9836 11.8872C12.7971 12.1271 12.5933 12.3536 12.3738 12.5653L12.1091 12.8204C11.538 13.3711 10.8795 13.8285 10.1595 14.1757C10.0582 14.2245 9.9418 14.2245 9.84053 14.1757C9.12048 13.8285 8.46199 13.3711 7.89088 12.8204L7.62625 12.5653C7.40675 12.3536 7.20293 12.1271 7.01638 11.8872L6.75546 11.5518C6.40217 11.0975 6.1457 10.5786 6.00222 10.0252L5.95744 9.85248C5.89918 9.62776 5.86967 9.39682 5.86967 9.1649V8.98048C5.86967 8.48584 6.0362 8.0068 6.34073 7.61528L6.46916 7.45016C6.70906 7.14173 7.04772 6.92721 7.42445 6.83639Z" fill="#ffffff" stroke="black" stroke-width="0.1"/>
</svg>
