<svg width="28" height="28" viewBox="0 0 28 28" fill="none" xmlns="http://www.w3.org/2000/svg">
<path d="M27 14C27 21.1797 21.1797 27 14 27C6.8203 27 1 21.1797 1 14C1 6.8203 6.8203 1 14 1C21.1797 1 27 6.8203 27 14ZM2.3 14C2.3 20.4617 7.53827 25.7 14 25.7C20.4617 25.7 25.7 20.4617 25.7 14C25.7 7.53827 20.4617 2.3 14 2.3C7.53827 2.3 2.3 7.53827 2.3 14Z" fill="white" stroke="white" stroke-width="0.5"/>
<path d="M27 14C27 21.1797 21.1797 27 14 27C6.8203 27 1 21.1797 1 14C1 6.8203 6.8203 1 14 1C21.1797 1 27 6.8203 27 14ZM2.3 14C2.3 20.4617 7.53827 25.7 14 25.7C20.4617 25.7 25.7 20.4617 25.7 14C25.7 7.53827 20.4617 2.3 14 2.3C7.53827 2.3 2.3 7.53827 2.3 14Z" fill="#7851FF" stroke="#7851FF" stroke-width="0.5"/>
<path d="M19.1214 12.3226L13.9825 17.5865C13.9091 17.6617 13.822 17.7213 13.7262 17.7619C13.6304 17.8026 13.5276 17.8235 13.4239 17.8235C13.3202 17.8235 13.2174 17.8026 13.1216 17.7619C13.0258 17.7213 12.9387 17.6617 12.8653 17.5865L10.4076 15.0689C10.3343 14.9938 10.2761 14.9046 10.2364 14.8064C10.1967 14.7082 10.1763 14.603 10.1763 14.4968C10.1763 14.3905 10.1967 14.2853 10.2364 14.1871C10.2761 14.0889 10.3343 13.9997 10.4076 13.9246C10.481 13.8494 10.5681 13.7898 10.6639 13.7491C10.7598 13.7085 10.8625 13.6875 10.9662 13.6875C11.07 13.6875 11.1727 13.7085 11.2685 13.7491C11.3644 13.7898 11.4515 13.8494 11.5248 13.9246L13.424 15.87L18.0042 11.1782C18.0776 11.1031 18.1646 11.0434 18.2605 11.0028C18.3563 10.9621 18.459 10.9412 18.5628 10.9412C18.6665 10.9412 18.7692 10.9621 18.8651 11.0028C18.9609 11.0434 19.048 11.1031 19.1214 11.1782C19.1947 11.2533 19.2529 11.3425 19.2926 11.4407C19.3323 11.5389 19.3527 11.6441 19.3527 11.7504C19.3527 11.8567 19.3323 11.9619 19.2926 12.0601C19.2529 12.1582 19.1947 12.2474 19.1214 12.3226Z" fill="#19AF00"/>
<path d="M19.1214 11.1782C19.048 11.1031 18.9609 11.0434 18.8651 11.0028C18.7692 10.9621 18.6665 10.9412 18.5628 10.9412C18.459 10.9412 18.3563 10.9621 18.2605 11.0028C18.1646 11.0434 18.0776 11.1031 18.0042 11.1782L13.424 15.87L11.5258 13.9246C11.4524 13.8494 11.3654 13.7898 11.2695 13.7491C11.1737 13.7085 11.071 13.6875 10.9672 13.6875C10.8635 13.6875 10.7608 13.7085 10.6649 13.7491C10.5691 13.7898 10.482 13.8494 10.4086 13.9246C10.3353 13.9997 10.2771 14.0889 10.2374 14.1871C10.1977 14.2853 10.1773 14.3905 10.1773 14.4968C10.1773 14.603 10.1977 14.7082 10.2374 14.8064C10.2771 14.9046 10.3353 14.9938 10.4086 15.0689L12.8653 17.5865C12.9387 17.6617 13.0258 17.7213 13.1216 17.7619C13.2174 17.8026 13.3202 17.8235 13.4239 17.8235C13.5276 17.8235 13.6304 17.8026 13.7262 17.7619C13.822 17.7213 13.9091 17.6617 13.9825 17.5865L19.1214 12.3226C19.1947 12.2474 19.2529 12.1582 19.2926 12.0601C19.3323 11.9619 19.3527 11.8567 19.3527 11.7504C19.3527 11.6441 19.3323 11.5389 19.2926 11.4407C19.2529 11.3425 19.1947 11.2533 19.1214 11.1782Z" fill="white"/>
</svg>
