<svg width="24" height="24" viewBox="0 0 24 24" fill="none" xmlns="http://www.w3.org/2000/svg">
<circle cx="12" cy="12" r="12" fill="#7D7F88"/>
<path d="M18.2071 16.4545H16.1389V18.5227C16.1389 18.6493 16.0886 18.7707 15.9991 18.8602C15.9096 18.9497 15.7882 19 15.6616 19C15.5351 19 15.4137 18.9497 15.3242 18.8602C15.2346 18.7707 15.1844 18.6493 15.1844 18.5227V16.4545H13.1162C12.9896 16.4545 12.8682 16.4043 12.7787 16.3148C12.6892 16.2253 12.6389 16.1039 12.6389 15.9773C12.6389 15.8507 12.6892 15.7293 12.7787 15.6398C12.8682 15.5503 12.9896 15.5 13.1162 15.5H15.1844V13.4318C15.1844 13.3052 15.2346 13.1838 15.3242 13.0943C15.4137 13.0048 15.5351 12.9545 15.6616 12.9545C15.7882 12.9545 15.9096 13.0048 15.9991 13.0943C16.0886 13.1838 16.1389 13.3052 16.1389 13.4318V15.5H18.2071C18.3337 15.5 18.4551 15.5503 18.5446 15.6398C18.6341 15.7293 18.6844 15.8507 18.6844 15.9773C18.6844 16.1039 18.6341 16.2253 18.5446 16.3148C18.4551 16.4043 18.3337 16.4545 18.2071 16.4545ZM11.6844 13.2727C11.5965 13.3701 11.5087 13.2727 11.3662 13.2727C8.97536 13.2727 5.95995 15.5652 5.95995 18.2806C5.9592 18.4071 5.90823 18.5282 5.81825 18.6171C5.72828 18.7061 5.60666 18.7557 5.48014 18.755C5.41746 18.7554 5.35532 18.7434 5.29727 18.7198C5.23922 18.6961 5.1864 18.6613 5.14181 18.6172C5.09723 18.5732 5.06176 18.5208 5.03742 18.463C5.01309 18.4053 5.00037 18.3433 5 18.2806C5 16.0368 6.87441 13.4932 9.51723 12.6889C8.25373 11.9835 7.548 10.6732 7.548 9.13636C7.548 6.86582 9.38773 5 11.6844 5C13.981 5 15.8207 6.86582 15.8207 9.13636C15.8207 11.3948 13.9641 13.253 11.6844 13.2727ZM11.6844 5.95455C9.92036 5.95455 8.50255 7.39241 8.50255 9.13636C8.50255 10.8803 9.92036 12.3182 11.6844 12.3182C13.4484 12.3182 14.8662 10.8803 14.8662 9.13636C14.8662 7.39241 13.4484 5.95455 11.6844 5.95455Z" fill="white"/>
</svg>
