<svg width="10" height="10" viewBox="0 0 10 10" fill="none" xmlns="http://www.w3.org/2000/svg">
<path d="M5 0C6.32608 0 7.59785 0.526784 8.53553 1.46447C9.47322 2.40215 10 3.67392 10 5C10 6.32608 9.47322 7.59785 8.53553 8.53553C7.59785 9.47322 6.32608 10 5 10C3.67392 10 2.40215 9.47322 1.46447 8.53553C0.526784 7.59785 0 6.32608 0 5C0 3.67392 0.526784 2.40215 1.46447 1.46447C2.40215 0.526784 3.67392 0 5 0ZM2.57429 6.80714C2.53336 6.84766 2.50087 6.89588 2.4787 6.94903C2.45653 7.00218 2.44511 7.0592 2.44511 7.11679C2.44511 7.17437 2.45653 7.23139 2.4787 7.28454C2.50087 7.33769 2.53336 7.38591 2.57429 7.42643C2.6148 7.46735 2.66303 7.49984 2.71618 7.52201C2.76932 7.54418 2.82634 7.5556 2.88393 7.5556C2.94152 7.5556 2.99853 7.54418 3.05168 7.52201C3.10483 7.49984 3.15306 7.46735 3.19357 7.42643L4.97214 5.64786L6.75071 7.42643C6.79124 7.46746 6.83951 7.50004 6.89273 7.52228C6.94594 7.54451 7.00304 7.55596 7.06071 7.55596C7.11839 7.55596 7.17549 7.54451 7.2287 7.52228C7.28192 7.50004 7.33019 7.46746 7.37071 7.42643C7.41164 7.38591 7.44413 7.33769 7.4663 7.28454C7.48847 7.23139 7.49989 7.17437 7.49989 7.11679C7.49989 7.0592 7.48847 7.00218 7.4663 6.94903C7.44413 6.89588 7.41164 6.84766 7.37071 6.80714L5.59214 5.02857L7.37071 3.25C7.41175 3.20947 7.44433 3.1612 7.46656 3.10799C7.4888 3.05477 7.50025 2.99767 7.50025 2.94C7.50025 2.88233 7.4888 2.82523 7.46656 2.77201C7.44433 2.7188 7.41175 2.67053 7.37071 2.63C7.33019 2.58897 7.28192 2.55639 7.2287 2.53415C7.17549 2.51192 7.11839 2.50047 7.06071 2.50047C7.00304 2.50047 6.94594 2.51192 6.89273 2.53415C6.83951 2.55639 6.79124 2.58897 6.75071 2.63L4.97214 4.40857L3.19357 2.63C3.15306 2.58908 3.10483 2.55659 3.05168 2.53442C2.99853 2.51224 2.94152 2.50083 2.88393 2.50083C2.82634 2.50083 2.76932 2.51224 2.71618 2.53442C2.66303 2.55659 2.6148 2.58908 2.57429 2.63C2.53325 2.67053 2.50067 2.7188 2.47844 2.77201C2.4562 2.82523 2.44475 2.88233 2.44475 2.94C2.44475 2.99767 2.4562 3.05477 2.47844 3.10799C2.50067 3.1612 2.53325 3.20947 2.57429 3.25L4.35286 5.02857L2.57429 6.80714Z" fill="url(#paint0_linear_2284_2493)"/>
<defs>
<linearGradient id="paint0_linear_2284_2493" x1="12.9817" y1="-4.49999" x2="-6.81438" y2="-2.07455" gradientUnits="userSpaceOnUse">
<stop stop-color="#AE88FE"/>
<stop offset="0.484375" stop-color="#923CFF"/>
<stop offset="1" stop-color="#00B2FF"/>
</linearGradient>
</defs>
</svg>
