<svg width="25" height="21" viewBox="0 0 25 21" fill="none" xmlns="http://www.w3.org/2000/svg">
<path d="M25 2.55016C24.0665 2.97497 23.0734 3.25392 22.0552 3.37725C23.1334 2.71182 23.9344 1.6788 24.3104 0.468913C23.3063 1.07995 22.2033 1.51107 21.051 1.74287C20.5773 1.22072 19.9996 0.803372 19.3551 0.517609C18.7105 0.231846 18.0134 0.0839793 17.3083 0.0834961C14.4771 0.0834961 12.1812 2.43766 12.1812 5.34287C12.1812 5.75537 12.225 6.15537 12.3125 6.54079C8.05 6.321 4.27083 4.22829 1.73958 1.04391C1.28316 1.85092 1.0441 2.76261 1.04583 3.68975C1.04583 5.51371 1.95208 7.12412 3.32708 8.06787C2.51102 8.04069 1.71381 7.81547 1.00417 7.41162V7.4762C1.00417 10.0252 2.77188 12.1512 5.11875 12.6325C4.67961 12.757 4.2252 12.8194 3.76875 12.8179C3.43854 12.8179 3.11563 12.7866 2.80313 12.7241C3.45521 14.8137 5.34896 16.3345 7.59375 16.3752C6.53867 17.2289 5.32276 17.8618 4.01825 18.2363C2.71374 18.6109 1.34726 18.7194 0 18.5554C2.33323 20.0951 5.06703 20.9162 7.8625 20.9168C17.2979 20.9168 22.4562 12.9043 22.4562 5.95329C22.4562 5.72412 22.451 5.496 22.4427 5.27204C23.4448 4.53037 24.3146 3.60537 25 2.55016Z" fill="url(#paint0_linear_771_1028)"/>
<defs>
<linearGradient id="paint0_linear_771_1028" x1="1.52672" y1="5.5982" x2="24.1101" y2="10.1401" gradientUnits="userSpaceOnUse">
<stop stop-color="#CBBEE7"/>
<stop offset="1" stop-color="white"/>
</linearGradient>
</defs>
</svg>
