<svg width="17" height="17" viewBox="0 0 17 17" fill="none" xmlns="http://www.w3.org/2000/svg">
<circle cx="8.5" cy="8.5" r="8.5" fill="#FFCA00"/>
<circle cx="8.5" cy="8.5" r="6.5" fill="#EEB134"/>
<path d="M11.14 9.87C11.14 10.2167 11.05 10.5433 10.87 10.85C10.6967 11.15 10.4367 11.4 10.09 11.6C9.75 11.7933 9.34667 11.9067 8.88 11.94V12.75H8.24V11.93C7.57333 11.87 7.03667 11.67 6.63 11.33C6.22333 10.9833 6.01333 10.5167 6 9.93H7.5C7.54 10.41 7.78667 10.7 8.24 10.8V8.89C7.76 8.77 7.37333 8.65 7.08 8.53C6.78667 8.41 6.53333 8.21667 6.32 7.95C6.10667 7.68333 6 7.32 6 6.86C6 6.28 6.20667 5.80667 6.62 5.44C7.04 5.07333 7.58 4.86333 8.24 4.81V4H8.88V4.81C9.52 4.86333 10.03 5.05667 10.41 5.39C10.7967 5.72333 11.0133 6.18333 11.06 6.77H9.55C9.53 6.57667 9.46 6.41 9.34 6.27C9.22667 6.12333 9.07333 6.02 8.88 5.96V7.85C9.38 7.97667 9.77333 8.1 10.06 8.22C10.3533 8.33333 10.6067 8.52333 10.82 8.79C11.0333 9.05 11.14 9.41 11.14 9.87ZM7.46 6.79C7.46 7.01 7.52667 7.19 7.66 7.33C7.79333 7.46333 7.98667 7.57333 8.24 7.66V5.93C8 5.96333 7.81 6.05333 7.67 6.2C7.53 6.34667 7.46 6.54333 7.46 6.79ZM8.88 10.82C9.13333 10.7733 9.33 10.67 9.47 10.51C9.61667 10.35 9.69 10.1567 9.69 9.93C9.69 9.71 9.62 9.53333 9.48 9.4C9.34 9.26667 9.14 9.15667 8.88 9.07V10.82Z" fill="#FFCA00"/>
</svg>
