<svg width="20" height="20" viewBox="0 0 20 20" fill="none" xmlns="http://www.w3.org/2000/svg">
<path d="M17.917 3.33325H16.1115V4.44436H17.7781V16.6666H2.22258V4.44436H3.88925V3.33325H2.08369C1.95382 3.33542 1.82566 3.36316 1.70651 3.41487C1.58736 3.46658 1.47957 3.54126 1.38928 3.63464C1.299 3.72801 1.228 3.83826 1.18033 3.95909C1.13266 4.07991 1.10926 4.20894 1.11147 4.33881V16.7721C1.10926 16.902 1.13266 17.031 1.18033 17.1519C1.228 17.2727 1.299 17.3829 1.38928 17.4763C1.47957 17.5697 1.58736 17.6444 1.70651 17.6961C1.82566 17.7478 1.95382 17.7755 2.08369 17.7777H17.917C18.0469 17.7755 18.1751 17.7478 18.2942 17.6961C18.4134 17.6444 18.5212 17.5697 18.6114 17.4763C18.7017 17.3829 18.7727 17.2727 18.8204 17.1519C18.8681 17.031 18.8915 16.902 18.8892 16.7721V4.33881C18.8915 4.20894 18.8681 4.07991 18.8204 3.95909C18.7727 3.83826 18.7017 3.72801 18.6114 3.63464C18.5212 3.54126 18.4134 3.46658 18.2942 3.41487C18.1751 3.36316 18.0469 3.33542 17.917 3.33325Z" fill="#8C8A93"/>
<path d="M4.44531 7.77783H5.55642V8.88894H4.44531V7.77783Z" fill="#8C8A93"/>
<path d="M7.77734 7.77783H8.88846V8.88894H7.77734V7.77783Z" fill="#8C8A93"/>
<path d="M11.1113 7.77783H12.2224V8.88894H11.1113V7.77783Z" fill="#8C8A93"/>
<path d="M14.4453 7.77783H15.5564V8.88894H14.4453V7.77783Z" fill="#8C8A93"/>
<path d="M4.44531 10.5557H5.55642V11.6668H4.44531V10.5557Z" fill="#8C8A93"/>
<path d="M7.77734 10.5557H8.88846V11.6668H7.77734V10.5557Z" fill="#8C8A93"/>
<path d="M11.1113 10.5557H12.2224V11.6668H11.1113V10.5557Z" fill="#8C8A93"/>
<path d="M14.4453 10.5557H15.5564V11.6668H14.4453V10.5557Z" fill="#8C8A93"/>
<path d="M4.44531 13.3333H5.55642V14.4444H4.44531V13.3333Z" fill="#8C8A93"/>
<path d="M7.77734 13.3333H8.88846V14.4444H7.77734V13.3333Z" fill="#8C8A93"/>
<path d="M11.1113 13.3333H12.2224V14.4444H11.1113V13.3333Z" fill="#8C8A93"/>
<path d="M14.4453 13.3333H15.5564V14.4444H14.4453V13.3333Z" fill="#8C8A93"/>
<path d="M5.55556 5.55553C5.7029 5.55553 5.84421 5.497 5.94839 5.39281C6.05258 5.28862 6.11111 5.14732 6.11111 4.99997V1.66664C6.11111 1.5193 6.05258 1.37799 5.94839 1.2738C5.84421 1.16962 5.7029 1.11108 5.55556 1.11108C5.40821 1.11108 5.26691 1.16962 5.16272 1.2738C5.05853 1.37799 5 1.5193 5 1.66664V4.99997C5 5.14732 5.05853 5.28862 5.16272 5.39281C5.26691 5.497 5.40821 5.55553 5.55556 5.55553Z" fill="#8C8A93"/>
<path d="M14.4442 5.55553C14.5916 5.55553 14.7329 5.497 14.8371 5.39281C14.9413 5.28862 14.9998 5.14732 14.9998 4.99997V1.66664C14.9998 1.5193 14.9413 1.37799 14.8371 1.2738C14.7329 1.16962 14.5916 1.11108 14.4442 1.11108C14.2969 1.11108 14.1556 1.16962 14.0514 1.2738C13.9472 1.37799 13.8887 1.5193 13.8887 1.66664V4.99997C13.8887 5.14732 13.9472 5.28862 14.0514 5.39281C14.1556 5.497 14.2969 5.55553 14.4442 5.55553Z" fill="#8C8A93"/>
<path d="M7.22266 3.33325H12.7782V4.44436H7.22266V3.33325Z" fill="#8C8A93"/>
</svg>
