<svg width="12" height="9" viewBox="0 0 12 9" fill="none" xmlns="http://www.w3.org/2000/svg">
    <path d="M0 0H12L9.5 4.29107L12 9L0 9V0Z" fill="#CF9856"/>
    <path d="M6.83047 2L5.53317 4.12462L5.10565 3.92192C5.16953 3.88689 5.24079 3.86186 5.31941 3.84685C5.39803 3.83183 5.47666 3.82432 5.55528 3.82432C5.7371 3.81431 5.91401 3.83433 6.086 3.88438C6.25799 3.93443 6.41278 4.01702 6.55037 4.13213C6.68796 4.24725 6.79607 4.3999 6.87469 4.59009C6.95823 4.78028 7 5.01552 7 5.2958C7 5.64615 6.92138 5.94895 6.76413 6.2042C6.60688 6.45946 6.39803 6.65716 6.13759 6.7973C5.88206 6.93243 5.59705 7 5.28256 7C5.04668 7 4.81081 6.95245 4.57494 6.85736C4.34398 6.75726 4.15233 6.62713 4 6.46697L4.36118 5.86637C4.45455 5.97648 4.58231 6.07658 4.74447 6.16667C4.91155 6.25676 5.08354 6.3018 5.26044 6.3018C5.44717 6.3018 5.61425 6.25926 5.76167 6.17417C5.91401 6.08909 6.0344 5.96897 6.12285 5.81381C6.21622 5.65365 6.2629 5.46847 6.2629 5.25826C6.2629 4.96797 6.17936 4.74024 6.01228 4.57508C5.85012 4.40991 5.62654 4.32733 5.34152 4.32733C5.19902 4.32733 5.07862 4.33984 4.98034 4.36486C4.88206 4.38488 4.79361 4.40991 4.71499 4.43994L4.69287 4.40991L5.83538 2.6006L6.05651 2.6982H4.2801V2H6.83047Z" fill="white"/>
</svg>
