<svg width="12" height="13" viewBox="0 0 12 13" fill="none" xmlns="http://www.w3.org/2000/svg">
<g clip-path="url(#clip0_1043_2840)">
<path fill-rule="evenodd" clip-rule="evenodd" d="M3.7203 12.1149C4.42446 12.4217 5.17829 12.575 5.9818 12.575C6.78531 12.575 7.5413 12.4217 8.24978 12.1149C8.95825 11.8082 9.57384 11.3935 10.0966 10.8708C10.6193 10.3481 11.034 9.73248 11.3407 9.02401C11.6474 8.31554 11.8008 7.55954 11.8008 6.75603C11.8008 5.95252 11.6474 5.19869 11.3407 4.49453C11.034 3.79038 10.6193 3.17695 10.0966 2.65423C9.57384 2.13152 8.95825 1.7168 8.24978 1.41008C7.54131 1.10337 6.78531 0.95001 5.9818 0.95001C5.17829 0.95001 4.42446 1.10337 3.7203 1.41008C3.01615 1.7168 2.40272 2.13152 1.88 2.65423C1.35729 3.17695 0.94257 3.79038 0.635853 4.49453C0.329136 5.19869 0.175778 5.95252 0.175778 6.75603C0.175778 7.55954 0.329135 8.31553 0.635852 9.02401C0.942569 9.73248 1.35729 10.3481 1.88 10.8708C2.40272 11.3935 3.01615 11.8082 3.7203 12.1149ZM4.07745 4.33737C4.61217 3.91432 5.32631 3.68356 6.0833 3.72202C6.3511 3.72202 6.57427 3.76048 6.93134 3.8374C8.0454 4.10585 8.71491 5.14349 8.40248 6.10422C8.17931 6.68034 7.73386 7.10263 7.10988 7.37185C6.57427 7.6403 6.39574 7.75568 6.39574 8.14028C6.39574 8.44795 6.08419 8.71717 5.72801 8.71717C5.37094 8.71717 5.0585 8.44795 5.0585 8.14028C5.0585 7.1034 5.86102 6.64265 6.39574 6.37343C6.44285 6.34299 6.48764 6.31455 6.53009 6.28759C6.80937 6.11023 6.98776 5.99695 7.06524 5.79731C7.10988 5.60501 7.06524 5.37425 6.93134 5.18195C6.70907 4.98965 6.39663 4.87427 6.08419 4.91273C5.72801 4.87427 5.37094 4.98965 5.0585 5.18195C4.9246 5.29656 4.83623 5.4504 4.83623 5.6427C4.83623 5.95038 4.52379 6.2196 4.16672 6.2196C3.80965 6.2196 3.49721 5.95038 3.49721 5.6427C3.49721 5.14349 3.67575 4.68274 4.07745 4.33737ZM5.05448 9.98379C5.023 9.91038 5.00918 9.83221 5.01387 9.75405C5.02273 9.6064 5.09704 9.46732 5.22145 9.36551C5.34587 9.2637 5.5109 9.20693 5.68249 9.20693C5.85407 9.20693 6.0191 9.2637 6.14352 9.36551C6.26794 9.46731 6.34224 9.6064 6.3511 9.75405C6.35579 9.83221 6.34197 9.91038 6.31049 9.98379C6.27901 10.0572 6.23051 10.1243 6.16797 10.1811C6.10542 10.2378 6.03012 10.283 5.94666 10.3139C5.8632 10.3448 5.77332 10.3607 5.68249 10.3607C5.59165 10.3607 5.50177 10.3448 5.41831 10.3139C5.33485 10.283 5.25955 10.2378 5.19701 10.1811C5.13446 10.1243 5.08597 10.0572 5.05448 9.98379Z" fill="white"/>
</g>
<defs>
<clipPath id="clip0_1043_2840">
<rect width="12" height="12" fill="white" transform="translate(12 12.5) rotate(-180)"/>
</clipPath>
</defs>
</svg>
