<svg width="43" height="43" viewBox="0 0 43 43" fill="none" xmlns="http://www.w3.org/2000/svg">
<circle cx="21.5" cy="21.5" r="20.5" fill="url(#paint0_linear_567_2305)" stroke="url(#paint1_linear_567_2305)" stroke-width="2"/>
<path d="M33 14.2496C32.1412 14.637 31.2275 14.8914 30.2908 15.0039C31.2827 14.397 32.0196 13.4549 32.3656 12.3515C31.4418 12.9088 30.4271 13.3019 29.367 13.5133C28.9311 13.0371 28.3996 12.6565 27.8067 12.3959C27.2137 12.1353 26.5723 12.0004 25.9237 12C23.3189 12 21.2067 14.147 21.2067 16.7965C21.2067 17.1727 21.247 17.5375 21.3275 17.889C17.406 17.6886 13.9292 15.7801 11.6004 12.8759C11.1805 13.6119 10.9606 14.4434 10.9622 15.2889C10.9622 16.9524 11.7959 18.421 13.0609 19.2817C12.3101 19.257 11.5767 19.0516 10.9238 18.6832V18.7421C10.9238 21.0668 12.5501 23.0058 14.7092 23.4447C14.3052 23.5582 13.8872 23.6151 13.4672 23.6138C13.1635 23.6138 12.8664 23.5852 12.5789 23.5282C13.1788 25.4339 14.921 26.821 16.9862 26.858C16.0156 27.6366 14.8969 28.2138 13.6968 28.5554C12.4966 28.897 11.2395 28.9959 10 28.8463C12.1466 30.2506 14.6617 30.9994 17.2335 31C25.9141 31 30.6597 23.6926 30.6597 17.3533C30.6597 17.1442 30.655 16.9362 30.6473 16.7319C31.5692 16.0555 32.3694 15.212 33 14.2496Z" fill="white"/>
<defs>
<linearGradient id="paint0_linear_567_2305" x1="-12.8213" y1="-19.35" x2="72.3018" y2="-8.92055" gradientUnits="userSpaceOnUse">
<stop stop-color="#AE88FE"/>
<stop offset="0.484375" stop-color="#923CFF"/>
<stop offset="1" stop-color="#00B2FF"/>
</linearGradient>
<linearGradient id="paint1_linear_567_2305" x1="2.62595" y1="11.3824" x2="41.9363" y2="17.9706" gradientUnits="userSpaceOnUse">
<stop stop-color="#CBBEE7"/>
<stop offset="1" stop-color="white"/>
</linearGradient>
</defs>
</svg>
