<svg width="10" height="10" viewBox="0 0 10 10" fill="none" xmlns="http://www.w3.org/2000/svg">
<path d="M9.35392 4.39266H5.61671V0.6485C5.62004 0.564573 5.60643 0.480836 5.57669 0.402313C5.54694 0.323789 5.50168 0.252096 5.44362 0.191535C5.38556 0.130973 5.3159 0.0827909 5.23881 0.0498781C5.16172 0.0169652 5.07879 0 4.99499 0C4.9112 0 4.82827 0.0169652 4.75118 0.0498781C4.67409 0.0827909 4.60442 0.130973 4.54636 0.191535C4.4883 0.252096 4.44304 0.323789 4.4133 0.402313C4.38356 0.480836 4.36994 0.564573 4.37328 0.6485V4.39266H0.646952C0.563225 4.38932 0.479689 4.40297 0.401352 4.43278C0.323016 4.4626 0.251494 4.50796 0.191077 4.56616C0.13066 4.62436 0.0825933 4.6942 0.049759 4.77147C0.0169248 4.84875 0 4.93187 0 5.01587C0 5.09986 0.0169248 5.18299 0.049759 5.26026C0.0825933 5.33754 0.13066 5.40737 0.191077 5.46557C0.251494 5.52377 0.323016 5.56914 0.401352 5.59895C0.479689 5.62877 0.563225 5.64241 0.646952 5.63907H4.37426V9.3763C4.37426 9.54171 4.43981 9.70036 4.5565 9.81732C4.67319 9.93429 4.83145 10 4.99648 10C5.1615 10 5.31976 9.93429 5.43645 9.81732C5.55314 9.70036 5.61869 9.54171 5.61869 9.3763V5.63709H9.35392C9.43752 5.64044 9.52094 5.62684 9.59917 5.59708C9.6774 5.56732 9.74883 5.52203 9.80917 5.46392C9.86951 5.40581 9.91751 5.33609 9.9503 5.25892C9.9831 5.18176 10 5.09875 10 5.01488C10 4.931 9.9831 4.84799 9.9503 4.77083C9.91751 4.69367 9.86951 4.62394 9.80917 4.56583C9.74883 4.50772 9.6774 4.46243 9.59917 4.43267C9.52094 4.40292 9.43752 4.38931 9.35392 4.39266Z" fill="#ffffff"/>
</svg>
