<svg width="14" height="15" viewBox="0 0 14 15" fill="none" xmlns="http://www.w3.org/2000/svg">
<path d="M7 7C10.926 7 14 5.46259 14 3.50094C14 1.53741 10.9239 0 7 0C3.07402 0 0 1.53741 0 3.50094C0 5.46259 3.07402 7 7 7ZM7 1.18262C10.3648 1.18262 12.7098 2.40279 12.7098 3.49906C12.7098 4.59533 10.3648 5.8155 7 5.8155C3.63517 5.8155 1.29228 4.59533 1.29228 3.49906C1.29228 2.40467 3.63517 1.18262 7 1.18262Z" fill="#AE88FE"/>
<path d="M12.7098 6.19624V7.10647C12.7098 8.32568 10.3648 9.68267 7 9.68267C3.63517 9.68267 1.29228 8.32568 1.29228 7.10647V6.19624C0.761849 5.84551 0.323581 5.44468 0 5V7.10647C0 9.29019 3.07402 11 7 11C10.926 11 14 9.29019 14 7.10647V5C13.6785 5.44468 13.2402 5.84551 12.7098 6.19624Z" fill="#AE88FE"/>
<path d="M12.7098 10.1962V11.1065C12.7098 12.3257 10.3648 13.6827 7 13.6827C3.63517 13.6827 1.29228 12.3257 1.29228 11.1065V10.1962C0.761849 9.84551 0.323581 9.44468 0 9V11.1065C0 13.2902 3.07402 15 7 15C10.926 15 14 13.2902 14 11.1065V9C13.6785 9.44468 13.2402 9.84551 12.7098 10.1962Z" fill="#AE88FE"/>
</svg>
