<?xml version="1.0" standalone="no"?><!DOCTYPE svg PUBLIC "-//W3C//DTD SVG 1.1//EN" "http://www.w3.org/Graphics/SVG/1.1/DTD/svg11.dtd"><svg t="1641368990016" class="icon" viewBox="0 0 1024 1024" version="1.1" xmlns="http://www.w3.org/2000/svg" p-id="13420" xmlns:xlink="http://www.w3.org/1999/xlink" width="64" height="64"><defs><style type="text/css"></style></defs><path d="M902.741 816.213l-306.005-307.2L894.72 205.056c18.859-18.859 18.859-49.323 0-68.181s-36.01-18.859-54.87 0L532.396 444.416 226.048 136.875c-18.859-18.859-49.323-18.859-68.181 0s-18.859 49.322 0 68.181L464.81 512 157.952 818.944c-18.859 18.859-18.859 49.323 0 68.181s49.323 18.859 68.181 0l303.787-309.93 309.93 309.93c18.86 18.859 44.033 16.128 62.806-2.645s18.944-49.408 0.085-68.267z" p-id="13421" fill="#848391"></path></svg>
