<svg width="14" height="14" viewBox="0 0 14 14" fill="none" xmlns="http://www.w3.org/2000/svg">
<path d="M14 7C14 10.866 10.866 14 7 14C3.13401 14 0 10.866 0 7C0 3.13401 3.13401 0 7 0C10.866 0 14 3.13401 14 7Z" fill="url(#paint0_linear_1931_2042)"/>
<path d="M7 2.79994C7.7732 2.79994 8.4 3.39825 8.4 4.13631V6.36358C8.4 7.10163 7.7732 7.69994 7 7.69994C6.2268 7.69994 5.6 7.10163 5.6 6.36358V4.13631C5.6 3.39825 6.2268 2.79994 7 2.79994Z" fill="white"/>
<path d="M4.90046 6.29997C4.90046 6.10667 4.74376 5.94997 4.55046 5.94997C4.35716 5.94997 4.20046 6.10667 4.20046 6.29997C4.20046 7.04258 4.49546 7.75477 5.02056 8.27987C5.46248 8.72179 6.03691 9.00073 6.65046 9.07802V9.79997H5.60046C5.40716 9.79997 5.25046 9.95667 5.25046 10.15C5.25046 10.3433 5.40716 10.5 5.60046 10.5H8.40046C8.59376 10.5 8.75046 10.3433 8.75046 10.15C8.75046 9.95667 8.59376 9.79997 8.40046 9.79997H7.35046V9.07802C7.96401 9.00073 8.53843 8.72179 8.98035 8.27987C9.50546 7.75477 9.80046 7.04258 9.80046 6.29997C9.80046 6.10667 9.64375 5.94997 9.45046 5.94997C9.25716 5.94997 9.10046 6.10667 9.10046 6.29997C9.10046 6.85693 8.87921 7.39107 8.48538 7.7849C8.09155 8.17872 7.55741 8.39997 7.00046 8.39997C6.4435 8.39997 5.90936 8.17872 5.51553 7.7849C5.12171 7.39107 4.90046 6.85693 4.90046 6.29997Z" fill="white"/>
<defs>
<linearGradient id="paint0_linear_1931_2042" x1="-4.17437" y1="-6.29998" x2="23.5401" y2="-2.90437" gradientUnits="userSpaceOnUse">
<stop stop-color="#AE88FE"/>
<stop offset="0.484375" stop-color="#923CFF"/>
<stop offset="1" stop-color="#00B2FF"/>
</linearGradient>
</defs>
</svg>
