<?xml version="1.0" encoding="UTF-8"?>
<svg width="26px" height="26px" viewBox="0 0 26 26" version="1.1" xmlns="http://www.w3.org/2000/svg" xmlns:xlink="http://www.w3.org/1999/xlink">
    <title>icon-theme-light</title>
    <defs>
        <linearGradient x1="-29.4550713%" y1="-44.9999714%" x2="167.608162%" y2="-20.7455138%" id="linearGradient-1">
            <stop stop-color="#AE88FE" offset="0%"></stop>
            <stop stop-color="#923CFF" offset="48.4375%"></stop>
            <stop stop-color="#00B2FF" offset="100%"></stop>
        </linearGradient>
    </defs>
    <g id="页面-1" stroke="none" stroke-width="1" fill="none" fill-rule="evenodd">
        <g id="icon-theme-light" fill="url(#linearGradient-1)" fill-rule="nonzero">
            <path d="M12.9705,20.6349 C8.72562,20.6349 5.30612,17.1565 5.30612,12.9705 C5.30612,8.78458 8.72562,5.30612 12.9705,5.30612 C17.2154,5.30612 20.6349,8.66667 20.6349,12.9705 C20.6349,17.2744 17.2154,20.6349 12.9705,20.6349 Z M12.9705,20.6349 C8.72562,20.6349 5.30612,17.1565 5.30612,12.9705 C5.30612,8.78458 8.72562,5.30612 12.9705,5.30612 C17.2154,5.30612 20.6349,8.66667 20.6349,12.9705 C20.6349,17.2744 17.2154,20.6349 12.9705,20.6349 Z M3.24263,13.0295 C3.24263,12.9705 3.24263,12.9705 3.24263,13.0295 C3.24263,12.6168 3.30159,12.2041 3.30159,11.7914 L0.94331,11.7914 C0.471655,11.7914 0,12.263 0,12.7347 L0,13.1474 C0,13.678 0.471655,14.1497 0.94331,14.1497 L3.30159,14.1497 C3.24263,13.7959 3.24263,13.3832 3.24263,13.0295 Z M5.36508,6.95692 C5.83673,6.36735 6.36735,5.83673 6.95692,5.36508 L6.13152,4.53968 C5.83673,4.12698 5.18821,4.12698 4.77551,4.53968 L4.53968,4.77551 C4.12698,5.12925 4.12698,5.77778 4.53968,6.13152 L5.36508,6.95692 Z M20.6349,6.95692 L21.4014,6.07256 C21.8141,5.77778 21.8141,5.12925 21.4014,4.71655 L21.1066,4.42177 C20.8118,4.00907 20.1633,4.00907 19.7506,4.42177 L18.9252,5.24717 C19.5147,5.77778 20.1043,6.30839 20.6349,6.95692 Z M12.9705,3.24263 C13.3832,3.24263 13.737,3.30159 14.1497,3.30159 L14.1497,0.94331 C14.1497,0.471655 13.678,0 13.2064,0 L12.7937,0 C12.263,0 11.7914,0.471655 11.7914,0.94331 L11.7914,3.36054 C12.2041,3.30159 12.5578,3.24263 12.9705,3.24263 Z M24.9388,11.7914 L22.6395,11.7914 C22.6984,12.2041 22.6984,12.5578 22.6984,12.9705 C22.6984,13.3832 22.6984,13.737 22.6395,14.0907 L24.9388,14.0907 C25.4694,14.0907 25.941,13.619 25.941,13.0884 L25.941,12.6757 C25.941,12.263 25.4694,11.7914 24.9388,11.7914 Z M5.36508,19.0431 L4.59864,19.8685 C4.18594,20.1633 4.18594,20.8118 4.59864,21.2245 L4.89342,21.5193 C5.18821,21.932 5.83673,21.932 6.24943,21.5193 L7.07483,20.6939 C6.4263,20.2222 5.83673,19.6916 5.36508,19.0431 Z M20.6939,18.9252 C20.2222,19.5737 19.6327,20.1633 18.9841,20.6349 L19.8095,21.4603 C20.1043,21.873 20.7528,21.873 21.1655,21.4603 L21.5193,21.1066 C21.932,20.8118 21.932,20.1633 21.5193,19.7506 L20.6939,18.9252 Z M12.9705,22.6984 C12.6168,22.6984 12.2041,22.6984 11.8503,22.6395 L11.8503,24.9977 C11.8503,25.5283 12.263,26 12.7937,26 L13.2064,26 C13.678,26 14.1497,25.5283 14.1497,24.9977 L14.1497,22.6395 C13.737,22.6984 13.3832,22.6984 12.9705,22.6984 Z" id="形状"></path>
        </g>
    </g>
</svg>