<?xml version="1.0" encoding="UTF-8"?>
<svg width="24px" height="25px" viewBox="0 0 24 25" version="1.1" xmlns="http://www.w3.org/2000/svg" xmlns:xlink="http://www.w3.org/1999/xlink">
    <title>icon-theme-dark</title>
    <g id="页面-1" stroke="none" stroke-width="1" fill="none" fill-rule="evenodd">
        <g id="icon-theme-dark" transform="translate(0.181641, 0.681885)" fill="#FFFFFF" fill-rule="nonzero">
            <path d="M14.654559,5.55111512e-16 C19.795459,1.299995 23.636359,6.027275 23.636359,11.640915 C23.636359,18.259115 18.318159,23.636315 11.818159,23.636315 C5.613639,23.636315 0.531818,18.790915 0.05909,12.586315 C-8.32667268e-16,12.527315 -8.32667268e-16,12.468215 -8.32667268e-16,12.350015 C-8.32667268e-16,11.936315 0.295454,11.640915 0.70909,11.640915 C1.063639,11.640915 1.299999,11.877315 1.418179,12.172715 C2.718179,15.304515 5.790909,17.490915 9.336359,17.490915 C14.063659,17.490915 17.904559,13.590915 17.904559,8.745455 C17.904559,5.672725 16.368159,3.013635 14.004559,1.418185 C13.768159,1.299995 13.590859,1.004545 13.590859,0.768185 C13.590859,0.354545 13.945459,5.55111512e-16 14.299959,5.55111512e-16 L14.654559,5.55111512e-16 Z" id="路径"></path>
        </g>
    </g>
</svg>