<svg width="14" height="14" viewBox="0 0 14 14" fill="none" xmlns="http://www.w3.org/2000/svg">
<circle cx="7" cy="7" r="7" fill="#4C9EEB"/>
<path d="M3.00055 11.1222C3.89163 5.9847 8.66935 3.03524 11.1226 3.00001C11.1476 2.99965 11.1668 3.01808 11.1667 3.03926C11.1505 5.49532 9.62858 5.61412 8.82805 5.67661C8.64307 5.69105 8.49661 5.70249 8.41615 5.73906C7.87399 5.84701 7.49927 6.15977 7.33981 6.31931C7.26793 6.39123 7.88937 6.47583 8.97986 6.39505C9.01966 6.3921 9.04387 6.43128 9.01839 6.45731C8.11545 7.37952 7.11001 7.5656 6.4798 7.68223C6.27481 7.72017 6.10952 7.75076 6.00037 7.79695C5.25135 8.41786 3.98557 9.84829 3.08377 11.1479C3.05863 11.1841 2.99334 11.1638 3.00055 11.1222Z" fill="white"/>
</svg>
