<svg width="16" height="16" viewBox="0 0 16 16" fill="none" xmlns="http://www.w3.org/2000/svg">
<path d="M12 11.0001V1.99997C12 1.44773 11.5522 1 11 1H2C1.44776 1 1 1.44773 1 1.99997V11.0001C1 11.5518 1.44776 12 2 12H11C11.5522 12 12 11.5518 12 11.0001ZM10 11.0001H3.00001C2.44776 11.0001 2 10.5518 2 10.0001V2.99995C2 2.44772 2.44776 1.99997 3.00001 1.99997H10C10.5522 1.99997 11 2.4477 11 2.99995V10.0001C11 10.5518 10.5522 11.0001 10 11.0001ZM14 3.99994H13V4.99992C13.5522 4.99992 14 5.44767 14 6.00013V13C14 13.5518 13.5522 14 13 14H5.99998C5.44774 14 4.99998 13.5518 4.99998 13H3.99997V14C3.99997 14.5518 4.44773 15 4.99998 15H14C14.5522 15 15 14.5518 15 14V4.99992C15 4.44767 14.5522 3.99994 14 3.99994Z" fill="#1A1E25" stroke="black" stroke-width="0.2"/>
</svg>
