<?xml version="1.0" encoding="UTF-8"?>
<svg width="19px" height="19px" viewBox="0 0 19 19" version="1.1" xmlns="http://www.w3.org/2000/svg" xmlns:xlink="http://www.w3.org/1999/xlink">
    <title>Vector</title>
    <g id="页面-1" stroke="none" stroke-width="1" fill="none" fill-rule="evenodd">
        <g id="Vector" transform="translate(0.695157, 0.863780)" fill="#FFFFFF" fill-rule="nonzero">
            <path d="M13.3003434,2.82438645 L4.49932341,11.6254405 L4.75398341,4.94855045 C4.76326341,4.70268045 4.67447341,4.46283045 4.50715341,4.28176045 C4.33984341,4.10069045 4.10769341,3.99323045 3.86179341,3.98303045 C3.61588341,3.97282045 3.37636341,4.06071045 3.19592541,4.22734045 C3.01548341,4.39398045 2.90889941,4.62573045 2.89961841,4.87159045 L2.55452241,13.9190205 C2.54985741,14.0469205 2.57167241,14.1744205 2.61859841,14.2937205 C2.66552441,14.4129205 2.73654841,14.5213205 2.82721741,14.6119205 C2.91788541,14.7026205 3.02624141,14.7736205 3.14548841,14.8206205 C3.26473441,14.8675205 3.39230341,14.8893205 3.52018341,14.8846205 L12.5680434,14.5391205 C12.6898434,14.5347205 12.8094434,14.5063205 12.9200434,14.4555205 C13.0307434,14.4047205 13.1301434,14.3326205 13.2127434,14.2432205 C13.2952434,14.1538205 13.3592434,14.0489205 13.4011434,13.9346205 C13.4429434,13.8203205 13.4618434,13.6987205 13.4565434,13.5769205 C13.4514434,13.4552205 13.4223434,13.3355205 13.3710434,13.2248205 C13.3196434,13.1141205 13.2470434,13.0145205 13.1572434,12.9318205 C13.0675434,12.8490205 12.9624434,12.7847205 12.8479434,12.7424205 C12.7335434,12.7002205 12.6119434,12.6809205 12.4902434,12.6856205 L5.81374341,12.9398205 L14.6148434,4.13880045 C14.7884434,3.96515045 14.8857434,3.72938045 14.8852453,3.48334045 C14.8848434,3.23730045 14.7866434,3.00115445 14.6123434,2.82685245 C14.4380434,2.65255045 14.2018434,2.55436845 13.9558434,2.55390381 C13.7098434,2.55344245 13.4740434,2.65073845 13.3003434,2.82438645 Z" id="路径" transform="translate(8.719575, 8.719575) rotate(135.000000) translate(-8.719575, -8.719575) "></path>
        </g>
    </g>
</svg>