<?xml version="1.0" standalone="no"?><!DOCTYPE svg PUBLIC "-//W3C//DTD SVG 1.1//EN" "http://www.w3.org/Graphics/SVG/1.1/DTD/svg11.dtd"><svg t="1654571311458" class="icon" viewBox="0 0 1024 1024" version="1.1" xmlns="http://www.w3.org/2000/svg" p-id="3819" xmlns:xlink="http://www.w3.org/1999/xlink" width="200" height="200"><defs><style type="text/css"></style></defs><path d="M512 0a512 512 0 1 0 512 512A512 512 0 0 0 512 0z m0 153.6a153.6 153.6 0 1 1-153.6 153.6 153.6 153.6 0 0 1 153.6-153.6z m0 727.04a368.64 368.64 0 0 1-307.2-164.864c1.536-101.888 204.8-157.696 307.2-157.696s305.664 55.808 307.2 157.696a368.64 368.64 0 0 1-307.2 164.864z" p-id="3820" fill="#535353"></path></svg>