<svg width="101" height="100" viewBox="0 0 101 100" fill="none" xmlns="http://www.w3.org/2000/svg">
<rect x="0.5" width="100" height="100" rx="15" fill="#848391" fill-opacity="0.3"/>
<path d="M73.5118 15C78.9569 15 83.3711 19.4141 83.3711 24.8593L83.3711 84.072C83.3711 84.8499 82.7405 85.4804 81.9626 85.4804L20.4089 85.4804C19.631 85.4804 19.0004 84.8499 19.0004 84.072L19.0004 24.8593C19.0004 19.4141 23.4146 15 28.8597 15L73.5118 15Z" fill="#F9F9FF"/>
<rect x="27.7656" y="42.355" width="36.7006" height="5.18336" rx="2.59168" fill="#BCB6FF"/>
<rect x="27.7656" y="24.7236" width="36.3416" height="5.18336" rx="2.59168" fill="#BCB6FF"/>
<rect x="27.7656" y="33.5391" width="27.5592" height="5.18336" rx="2.59168" fill="#BCB6FF"/>
<ellipse cx="77.5" cy="75" rx="12.5" ry="12" fill="#6246EA"/>
<rect x="76" y="75.2856" width="9.93331" height="2.42875" rx="1.21437" fill="white"/>
<rect x="76" y="77.7148" width="9.71499" height="2.48333" rx="1.24166" transform="rotate(-90 76 77.7148)" fill="white"/>
</svg>
