<svg width="27" height="27" viewBox="0 0 27 27" fill="none" xmlns="http://www.w3.org/2000/svg">
<path d="M13.6351 14.3775C13.5563 14.3663 13.4551 14.3663 13.3651 14.3775C11.3851 14.31 9.81006 12.69 9.81006 10.6988C9.81006 8.66254 11.4526 7.00879 13.5001 7.00879C15.5363 7.00879 17.1901 8.66254 17.1901 10.6988C17.1788 12.69 15.6151 14.31 13.6351 14.3775Z" stroke="#848391" stroke-width="1.5" stroke-linecap="round" stroke-linejoin="round"/>
<path d="M21.0825 21.8024C19.08 23.6361 16.425 24.7499 13.5 24.7499C10.575 24.7499 7.91998 23.6361 5.91748 21.8024C6.02998 20.7449 6.70498 19.7099 7.90873 18.8999C10.9912 16.8524 16.0312 16.8524 19.0912 18.8999C20.295 19.7099 20.97 20.7449 21.0825 21.8024Z" stroke="#848391" stroke-width="1.5" stroke-linecap="round" stroke-linejoin="round"/>
<path d="M13.5 24.75C19.7132 24.75 24.75 19.7132 24.75 13.5C24.75 7.2868 19.7132 2.25 13.5 2.25C7.2868 2.25 2.25 7.2868 2.25 13.5C2.25 19.7132 7.2868 24.75 13.5 24.75Z" stroke="#848391" stroke-width="1.5" stroke-linecap="round" stroke-linejoin="round"/>
</svg>
