<?xml version="1.0" standalone="no"?><!DOCTYPE svg PUBLIC "-//W3C//DTD SVG 1.1//EN" "http://www.w3.org/Graphics/SVG/1.1/DTD/svg11.dtd"><svg t="1668609849083" class="icon" viewBox="0 0 1024 1024" version="1.1" xmlns="http://www.w3.org/2000/svg" p-id="2837" xmlns:xlink="http://www.w3.org/1999/xlink" width="200" height="200"><path d="M771.9936 928H252.0064c-86.20032 0-156.0064-69.80096-156.0064-156.0064V252.0064c0-86.20032 69.80608-156.0064 156.0064-156.0064h311.99744c67.79904 0 124.99968 43.50464 146.49856 104.00256h61.50144c86.20032 0 156.00128 69.80096 156.00128 156.0064v415.98976c0 86.20544-69.80096 156.0064-156.0064 156.0064zM564.00384 147.99872H252.0064c-53.10464 0-96.50176 40.00256-102.70208 91.40224 27.49952-24.20224 63.20128-39.40352 102.70208-39.40352h401.59744c-18.00192-30.99648-51.2-51.99872-89.6-51.99872z m311.99744 312.00256a25.94816 25.94816 0 0 0-25.99936-26.00448h-259.99872a25.94816 25.94816 0 0 0-25.99936 26.00448v155.99616a25.94816 25.94816 0 0 0 25.99936 25.99936h259.99872a25.94816 25.94816 0 0 0 25.99936-25.99936V460.00128z m0 233.99424h-311.99744c-28.6976 0-51.99872-23.296-51.99872-51.99872V433.9968c0-28.6976 23.296-51.99872 51.99872-51.99872h311.99744v-25.99936c0-57.3952-46.59712-103.99744-103.99744-103.99744H252.00128c-57.40032 0-104.00256 46.59712-104.00256 103.99744v416c0 57.3952 46.60224 103.99744 104.00256 103.99744H771.9936c57.3952 0 103.99744-46.59712 103.99744-103.99744v-78.0032zM616.00256 512h51.9936v51.99872h-51.99872V512z" p-id="2838" fill="#848391"></path></svg>