<svg width="28" height="28" viewBox="0 0 28 28" fill="none" xmlns="http://www.w3.org/2000/svg">
<path d="M14.0599 0.589966C15.9199 0.589966 17.6649 0.944966 19.2949 1.65497C20.9249 2.36497 22.3499 3.32497 23.5699 4.53497C24.7899 5.74497 25.7499 7.16497 26.4499 8.79497C27.1499 10.425 27.4999 12.17 27.4999 14.03C27.4999 15.89 27.1499 17.63 26.4499 19.25C25.7499 20.87 24.7899 22.29 23.5699 23.51C22.3499 24.73 20.9249 25.69 19.2949 26.39C17.6649 27.09 15.9199 27.44 14.0599 27.44C12.1999 27.44 10.4599 27.09 8.8399 26.39C7.2199 25.69 5.7999 24.73 4.5799 23.51C3.3599 22.29 2.3999 20.87 1.6999 19.25C0.999902 17.63 0.649902 15.89 0.649902 14.03C0.649902 12.17 0.999902 10.425 1.6999 8.79497C2.3999 7.16497 3.3599 5.74497 4.5799 4.53497C5.7999 3.32497 7.2199 2.36497 8.8399 1.65497C10.4599 0.944966 12.1999 0.589966 14.0599 0.589966ZM14.0899 23.21C14.6099 23.21 15.0449 23.035 15.3949 22.685C15.7449 22.335 15.9199 21.91 15.9199 21.41C15.9199 20.89 15.7449 20.455 15.3949 20.105C15.0449 19.755 14.6099 19.58 14.0899 19.58C13.5699 19.58 13.1349 19.755 12.7849 20.105C12.4349 20.455 12.2599 20.89 12.2599 21.41C12.2599 21.91 12.4349 22.335 12.7849 22.685C13.1349 23.035 13.5699 23.21 14.0899 23.21ZM15.6199 15.83C15.5999 15.51 15.7999 15.17 16.2199 14.81C16.6399 14.45 17.1099 14.05 17.6299 13.61C18.1499 13.17 18.6299 12.675 19.0699 12.125C19.5099 11.575 19.7499 10.94 19.7899 10.22C19.8299 9.43997 19.7499 8.70997 19.5499 8.02997C19.3499 7.34997 19.0199 6.76497 18.5599 6.27497C18.0999 5.78497 17.5049 5.39497 16.7749 5.10497C16.0449 4.81497 15.1899 4.66997 14.2099 4.66997C12.9899 4.66997 11.9749 4.88497 11.1649 5.31497C10.3549 5.74497 9.6999 6.26497 9.1999 6.87497C8.6999 7.48497 8.3499 8.11497 8.1499 8.76497C7.9499 9.41497 7.8599 9.95997 7.8799 10.4C7.8999 10.92 8.0649 11.3 8.3749 11.54C8.6849 11.78 9.0199 11.905 9.3799 11.915C9.7399 11.925 10.0699 11.825 10.3699 11.615C10.6699 11.405 10.8199 11.1 10.8199 10.7C10.8199 10.46 10.8949 10.165 11.0449 9.81497C11.1949 9.46497 11.3999 9.12997 11.6599 8.80997C11.9199 8.48997 12.2349 8.21997 12.6049 7.99997C12.9749 7.77997 13.3899 7.66997 13.8499 7.66997C14.7499 7.66997 15.4699 7.89497 16.0099 8.34497C16.5499 8.79497 16.7999 9.35997 16.7599 10.04C16.7599 10.38 16.6599 10.695 16.4599 10.985C16.2599 11.275 16.0049 11.555 15.6949 11.825C15.3849 12.095 15.0549 12.365 14.7049 12.635C14.3549 12.905 14.0249 13.185 13.7149 13.475C13.4049 13.765 13.1449 14.08 12.9349 14.42C12.7249 14.76 12.6099 15.13 12.5899 15.53L12.6199 16.67C12.6199 16.97 12.7599 17.255 13.0399 17.525C13.3199 17.795 13.6899 17.94 14.1499 17.96C14.6099 17.94 14.9749 17.79 15.2449 17.51C15.5149 17.23 15.6399 16.91 15.6199 16.55V15.83Z" fill="#ED782F"/>
</svg>
