<svg width="11" height="13" viewBox="0 0 11 13" fill="none" xmlns="http://www.w3.org/2000/svg">
<path d="M9.89189 7.68446V5.40222C9.89189 3.4089 8.563 1.70446 6.68523 1.27111C6.54078 0.722245 6.04968 0.34668 5.50078 0.34668C4.923 0.34668 4.43189 0.780009 4.31633 1.3289C2.55411 1.8489 1.31189 3.52446 1.31189 5.40223V7.54001C1.00371 7.73367 0.74945 8.00204 0.57269 8.32021C0.39593 8.63838 0.302401 8.99604 0.300781 9.36001V9.3889C0.300781 9.67779 0.358558 9.96667 0.47411 10.2267L0.503005 10.2556C0.589676 10.4578 0.763005 10.6022 0.965229 10.66C1.02299 10.6889 1.10968 10.6889 1.22523 10.6889H9.80523C9.86299 10.6889 9.92078 10.6889 9.97856 10.66C10.2386 10.6311 10.4408 10.4578 10.5275 10.2556C10.643 9.99556 10.7008 9.6778 10.7008 9.3889V9.36001C10.7008 8.69556 10.4119 8.0889 9.89189 7.68446ZM6.48302 11.3533H4.20078C4.20078 12.0756 4.77856 12.6533 5.50078 12.6533C6.223 12.6533 6.80078 12.0756 6.80078 11.3533H6.483H6.48302Z" fill="#E0D2FF"/>
</svg>
