<svg width="12" height="9" viewBox="0 0 12 9" fill="none" xmlns="http://www.w3.org/2000/svg">
<path d="M0 0H12L9.5 4.29107L12 9L0 9V0Z" fill="#C5C5C5"/>
<path d="M4.07809 7C4.35575 6.68969 4.62039 6.38438 4.87202 6.08408C5.12364 5.78378 5.34924 5.49349 5.54881 5.21321C5.75271 4.93293 5.91323 4.66266 6.03037 4.4024C6.14751 4.13714 6.20607 3.88188 6.20607 3.63664C6.20607 3.47147 6.18221 3.33133 6.13449 3.21622C6.08677 3.0961 6.02386 2.9985 5.94577 2.92342C5.87202 2.84835 5.78742 2.79329 5.69197 2.75826C5.59653 2.71822 5.49892 2.6982 5.39913 2.6982C5.25597 2.6982 5.13449 2.72573 5.03471 2.78078C4.93492 2.83083 4.85249 2.8984 4.78742 2.98348C4.72668 3.06857 4.68113 3.15866 4.65076 3.25375C4.62473 3.34885 4.61171 3.44394 4.61171 3.53904C4.61171 3.7042 4.63341 3.85435 4.67679 3.98949C4.72017 4.11962 4.78308 4.23473 4.86551 4.33483L4.47505 4.73273C4.37527 4.65766 4.2885 4.55255 4.21475 4.41742C4.14534 4.28228 4.09111 4.13714 4.05206 3.98198C4.01735 3.82182 4 3.67918 4 3.55405C4 3.28378 4.0564 3.03103 4.1692 2.7958C4.28633 2.55556 4.45553 2.36286 4.67679 2.21772C4.90239 2.07257 5.1757 2 5.49675 2C5.77007 2 6.00868 2.07257 6.21258 2.21772C6.41649 2.36286 6.57484 2.55556 6.68764 2.7958C6.80043 3.03103 6.85683 3.29129 6.85683 3.57658C6.85683 3.82683 6.81345 4.07207 6.72668 4.31231C6.63991 4.55255 6.52278 4.79029 6.37527 5.02553C6.2321 5.26076 6.07158 5.49349 5.89371 5.72372C5.72017 5.94895 5.54664 6.17668 5.3731 6.40691L5.09978 6.3018H7V7H4.07809Z" fill="white"/>
</svg>
