<svg width="17" height="15" viewBox="0 0 17 15" fill="none" xmlns="http://www.w3.org/2000/svg">
<path d="M3.47729 8.22869L8.07279 12.7559C8.21153 12.8926 8.28947 13.0779 8.28947 13.2712C8.28947 13.4645 8.21153 13.6499 8.07279 13.7865C7.93406 13.9232 7.74589 14 7.54969 14C7.35349 14 7.16532 13.9232 7.02659 13.7865L1.25113 8.09694C1.09033 7.93844 1 7.72351 1 7.49942C1 7.27532 1.09033 7.0604 1.25113 6.90189L7.02659 1.21346C7.16532 1.07678 7.35349 1 7.54969 1C7.74589 1 7.93406 1.07678 8.07279 1.21346C8.21153 1.35013 8.28947 1.5355 8.28947 1.72878C8.28947 1.92207 8.21153 2.10744 8.07279 2.24411L3.47729 6.77131L15.477 6.85299C15.6731 6.85299 15.8613 6.92976 16 7.06642C16.1387 7.20308 16.2166 7.38842 16.2166 7.58168C16.2166 7.77494 16.1387 7.96029 16 8.09694C15.8613 8.2336 15.6731 8.31037 15.477 8.31037L3.47729 8.22869Z" fill="#848391" stroke="#848391" stroke-width="0.5"/>
</svg>
