<svg width="23" height="24" viewBox="0 0 23 24" fill="none" xmlns="http://www.w3.org/2000/svg">
<path d="M11.5001 23.3333C5.26675 23.3333 0.166748 18.2333 0.166748 12C0.166748 5.76666 5.26675 0.666656 11.5001 0.666656C17.7334 0.666656 22.8334 5.76666 22.8334 12C22.8334 18.2333 17.7334 23.3333 11.5001 23.3333ZM11.5001 20.5C16.1751 20.5 20.0001 16.675 20.0001 12C20.0001 7.32499 16.1751 3.49999 11.5001 3.49999C6.82508 3.49999 3.00008 7.32499 3.00008 12C3.00008 16.675 6.82508 20.5 11.5001 20.5ZM12.9167 14.8333V17.6667H10.0834V14.8333H12.9167ZM12.9167 6.33332V13.4167H10.0834V6.33332H12.9167Z" fill="white"/>
</svg>
