<svg width="24" height="24" viewBox="0 0 24 24" fill="none" xmlns="http://www.w3.org/2000/svg">
<circle cx="12" cy="12" r="12" fill="#7D7F88"/>
<path fill-rule="evenodd" clip-rule="evenodd" d="M8.08093 6.10862C8.92874 5.89776 9.8237 5.99636 10.6011 6.38304L10.9214 6.5424C11.3083 6.73481 11.6483 6.99781 11.9262 7.31312C11.9651 7.35727 12.0349 7.35727 12.0738 7.31312C12.3517 6.99781 12.6917 6.73481 13.0786 6.5424L13.3989 6.38304C14.1763 5.99636 15.0713 5.89776 15.9191 6.10862C16.7338 6.31126 17.4449 6.78454 17.9385 7.43925L18.1183 7.67776C18.6925 8.43942 19 9.36133 19 10.3051V10.5715C19 10.9939 18.9479 11.4148 18.8449 11.825L18.7822 12.0744C18.5463 13.0131 18.1237 13.8973 17.5377 14.6746L17.1724 15.1592C16.8787 15.5488 16.5574 15.9174 16.2107 16.2622L15.8403 16.6308C14.9513 17.5152 13.9235 18.2526 12.7955 18.8137C12.296 19.0621 11.704 19.0621 11.2045 18.8137C10.0765 18.2526 9.04867 17.5152 8.15975 16.6308L7.78926 16.2622C7.44262 15.9174 7.12129 15.5488 6.82759 15.1592L6.4623 14.6746C5.87625 13.8973 5.4537 13.0131 5.21783 12.0744L5.15513 11.825C5.05206 11.4148 5 10.9939 5 10.5715V10.3051C5 9.36133 5.30748 8.43942 5.88167 7.67776L6.06148 7.43925C6.55506 6.78454 7.26618 6.31126 8.08093 6.10862ZM10.0592 7.32233C9.53599 7.06207 8.94067 6.99792 8.37783 7.13791C7.83535 7.27283 7.3474 7.59161 7.00157 8.05034L6.82176 8.28885C6.38601 8.86686 6.14754 9.57436 6.14754 10.3051V10.5715C6.14754 10.9127 6.1896 11.2523 6.27265 11.5828L6.33535 11.8323C6.53864 12.6413 6.902 13.3998 7.40239 14.0635L7.76768 14.5481C8.0309 14.8972 8.31848 15.2271 8.62816 15.5352L8.99864 15.9037C9.80361 16.7046 10.7316 17.3696 11.7463 17.8744C11.9073 17.9544 12.0927 17.9544 12.2537 17.8744C13.2684 17.3696 14.1964 16.7046 15.0014 15.9037L15.3718 15.5352C15.6815 15.2271 15.9691 14.8972 16.2323 14.5481L16.5976 14.0635C17.098 13.3998 17.4614 12.6413 17.6646 11.8323L17.7273 11.5828C17.8104 11.2523 17.8525 10.9127 17.8525 10.5715V10.3051C17.8525 9.57436 17.614 8.86686 17.1782 8.28885L16.9984 8.05034C16.6526 7.59161 16.1647 7.27283 15.6222 7.13791C15.0593 6.99792 14.464 7.06207 13.9408 7.32233L13.6204 7.48169C13.2061 7.68777 12.8626 8.02597 12.6485 8.45206C12.266 9.21306 11.7316 9.20817 11.3515 8.45206C11.1374 8.02597 10.7939 7.68777 10.3796 7.48169L10.0592 7.32233Z" fill="white"/>
</svg>
