<svg width="27" height="27" viewBox="0 0 27 27" fill="none" xmlns="http://www.w3.org/2000/svg">
<g clip-path="url(#clip0_1624_1780)">
<path d="M13.4705 21.1349C9.22562 21.1349 5.80612 17.6565 5.80612 13.4705C5.80612 9.28458 9.22562 5.80612 13.4705 5.80612C17.7154 5.80612 21.1349 9.16667 21.1349 13.4705C21.1349 17.7744 17.7154 21.1349 13.4705 21.1349ZM13.4705 21.1349C9.22562 21.1349 5.80612 17.6565 5.80612 13.4705C5.80612 9.28458 9.22562 5.80612 13.4705 5.80612C17.7154 5.80612 21.1349 9.16667 21.1349 13.4705C21.1349 17.7744 17.7154 21.1349 13.4705 21.1349ZM3.74263 13.5295C3.74263 13.4705 3.74263 13.4705 3.74263 13.5295C3.74263 13.1168 3.80159 12.7041 3.80159 12.2914H1.44331C0.971655 12.2914 0.5 12.763 0.5 13.2347V13.6474C0.5 14.178 0.971655 14.6497 1.44331 14.6497H3.80159C3.74263 14.2959 3.74263 13.8832 3.74263 13.5295ZM5.86508 7.45692C6.33673 6.86735 6.86735 6.33673 7.45692 5.86508L6.63152 5.03968C6.33673 4.62698 5.68821 4.62698 5.27551 5.03968L5.03968 5.27551C4.62698 5.62925 4.62698 6.27778 5.03968 6.63152L5.86508 7.45692ZM21.1349 7.45692L21.9014 6.57256C22.3141 6.27778 22.3141 5.62925 21.9014 5.21655L21.6066 4.92177C21.3118 4.50907 20.6633 4.50907 20.2506 4.92177L19.4252 5.74717C20.0147 6.27778 20.6043 6.80839 21.1349 7.45692ZM13.4705 3.74263C13.8832 3.74263 14.237 3.80159 14.6497 3.80159V1.44331C14.6497 0.971655 14.178 0.5 13.7064 0.5H13.2937C12.763 0.5 12.2914 0.971655 12.2914 1.44331V3.86054C12.7041 3.80159 13.0578 3.74263 13.4705 3.74263ZM25.4388 12.2914H23.1395C23.1984 12.7041 23.1984 13.0578 23.1984 13.4705C23.1984 13.8832 23.1984 14.237 23.1395 14.5907H25.4388C25.9694 14.5907 26.441 14.119 26.441 13.5884V13.1757C26.441 12.763 25.9694 12.2914 25.4388 12.2914ZM5.86508 19.5431L5.09864 20.3685C4.68594 20.6633 4.68594 21.3118 5.09864 21.7245L5.39342 22.0193C5.68821 22.432 6.33673 22.432 6.74943 22.0193L7.57483 21.1939C6.9263 20.7222 6.33673 20.1916 5.86508 19.5431ZM21.1939 19.4252C20.7222 20.0737 20.1327 20.6633 19.4841 21.1349L20.3095 21.9603C20.6043 22.373 21.2528 22.373 21.6655 21.9603L22.0193 21.6066C22.432 21.3118 22.432 20.6633 22.0193 20.2506L21.1939 19.4252ZM13.4705 23.1984C13.1168 23.1984 12.7041 23.1984 12.3503 23.1395V25.4977C12.3503 26.0283 12.763 26.5 13.2937 26.5H13.7064C14.178 26.5 14.6497 26.0283 14.6497 25.4977V23.1395C14.237 23.1984 13.8832 23.1984 13.4705 23.1984Z" fill="white"/>
</g>
<defs>
<clipPath id="clip0_1624_1780">
<rect width="26" height="26" fill="white" transform="translate(0.5 0.5)"/>
</clipPath>
</defs>
</svg>
