<svg width="36" height="36" viewBox="0 0 36 36" fill="none" xmlns="http://www.w3.org/2000/svg">
<circle cx="18" cy="18" r="18" fill="#AE88FE"/>
<circle cx="18" cy="18" r="17" stroke="black" stroke-opacity="0.36" stroke-width="2"/>
<path d="M23.9966 10.4257L13.4353 20.987L13.7409 12.9747C13.7521 12.6797 13.6455 12.3919 13.4447 12.1746C13.2439 11.9573 12.9654 11.8283 12.6703 11.8161C12.3752 11.8039 12.0878 11.9093 11.8713 12.1093C11.6547 12.3092 11.5268 12.5873 11.5157 12.8824L11.1016 23.7393C11.096 23.8927 11.1221 24.0458 11.1785 24.1889C11.2348 24.332 11.32 24.462 11.4288 24.5708C11.5376 24.6796 11.6676 24.7649 11.8107 24.8212C11.9538 24.8775 12.1069 24.9037 12.2604 24.8981L23.1178 24.4834C23.2639 24.4781 23.4075 24.444 23.5402 24.3831C23.673 24.3222 23.7923 24.2356 23.8914 24.1283C23.9904 24.0211 24.0673 23.8952 24.1175 23.758C24.1677 23.6208 24.1903 23.475 24.184 23.3288C24.1779 23.1827 24.143 23.0391 24.0814 22.9063C24.0197 22.7734 23.9326 22.6539 23.8249 22.5546C23.7172 22.4553 23.5911 22.3781 23.4537 22.3274C23.3164 22.2767 23.1705 22.2535 23.0244 22.2592L15.0126 22.5643L25.5739 12.003C25.7823 11.7947 25.899 11.5117 25.8985 11.2165C25.8979 10.9212 25.7801 10.6379 25.5709 10.4287C25.3618 10.2195 25.0784 10.1017 24.7832 10.1012C24.4879 10.1006 24.205 10.2174 23.9966 10.4257Z" fill="#2C2C2C"/>
</svg>
