<svg width="15" height="16" viewBox="0 0 15 16" fill="none" xmlns="http://www.w3.org/2000/svg">
<path d="M7.00957 7.64736C10.9409 7.64736 14.0191 5.96777 14.0191 3.82471C14.0191 1.67959 10.9389 0 7.00957 0C3.07822 0 0 1.67959 0 3.82471C0 5.96777 3.07822 7.64736 7.00957 7.64736ZM7.00957 1.29199C10.379 1.29199 12.7271 2.625 12.7271 3.82266C12.7271 5.02031 10.379 6.35332 7.00957 6.35332C3.64014 6.35332 1.29404 5.02031 1.29404 3.82266C1.29404 2.62705 3.64014 1.29199 7.00957 1.29199Z" fill="white"/>
<path d="M12.7271 6.82244V7.71658C12.7271 8.91423 10.379 10.2472 7.00957 10.2472C3.64014 10.2472 1.29404 8.91423 1.29404 7.71658V6.82244C0.76289 6.47791 0.324023 6.08416 0 5.64734V7.71658C0 9.86169 3.07822 11.5413 7.00957 11.5413C10.9409 11.5413 14.0191 9.86169 14.0191 7.71658V5.64734C13.6972 6.08416 13.2583 6.47791 12.7271 6.82244Z" fill="white"/>
<path d="M12.7271 10.7164V11.6105C12.7271 12.8082 10.379 14.1412 7.00957 14.1412C3.64014 14.1412 1.29404 12.8082 1.29404 11.6105V10.7164C0.76289 10.3718 0.324023 9.97808 0 9.54126V11.6105C0 13.7556 3.07822 15.4352 7.00957 15.4352C10.9409 15.4352 14.0191 13.7556 14.0191 11.6105V9.54126C13.6972 9.97808 13.2583 10.3718 12.7271 10.7164Z" fill="white"/>
</svg>
