<svg width="36" height="36" viewBox="0 0 36 36" fill="none" xmlns="http://www.w3.org/2000/svg">
<circle cx="18" cy="18" r="18" fill="#00B2FF"/>
<circle cx="18" cy="18" r="17" stroke="black" stroke-opacity="0.36" stroke-width="2"/>
<path d="M13.0036 24.5743L23.5649 14.013L23.2593 22.0253C23.2482 22.3203 23.3547 22.6081 23.5555 22.8254C23.7563 23.0427 24.0349 23.1717 24.33 23.1839C24.625 23.1962 24.9125 23.0907 25.129 22.8907C25.3455 22.6908 25.4734 22.4127 25.4846 22.1176L25.8987 11.2607C25.9043 11.1073 25.8781 10.9542 25.8218 10.8111C25.7655 10.668 25.6802 10.538 25.5714 10.4292C25.4626 10.3204 25.3326 10.2352 25.1895 10.1788C25.0464 10.1225 24.8933 10.0964 24.7399 10.1019L13.8825 10.5166C13.7363 10.5219 13.5927 10.556 13.46 10.6169C13.3272 10.6778 13.2079 10.7644 13.1089 10.8717C13.0098 10.9789 12.933 11.1048 12.8828 11.242C12.8325 11.3792 12.8099 11.525 12.8162 11.6712C12.8224 11.8173 12.8573 11.9609 12.9189 12.0937C12.9805 12.2266 13.0677 12.3461 13.1754 12.4454C13.283 12.5447 13.4092 12.6219 13.5465 12.6726C13.6839 12.7233 13.8298 12.7465 13.9759 12.7408L21.9876 12.4357L11.4263 22.997C11.218 23.2054 11.1012 23.4883 11.1018 23.7835C11.1023 24.0788 11.2201 24.3622 11.4293 24.5713C11.6385 24.7805 11.9218 24.8983 12.2171 24.8989C12.5123 24.8994 12.7953 24.7827 13.0036 24.5743Z" fill="#2C2C2C"/>
</svg>
