<svg width="20" height="19" viewBox="0 0 20 19" fill="none" xmlns="http://www.w3.org/2000/svg">
<path d="M15.0695 4.84752L10.4861 0.264182C10.2175 -0.00440169 9.78213 -0.00440169 9.51446 0.264182L4.93113 4.84752C4.66163 5.1161 4.66163 5.55152 4.93113 5.81918C5.20063 6.08685 5.63421 6.08868 5.9028 5.81918L9.3128 2.40918V11.75C9.3128 12.1295 9.6208 12.4375 10.0003 12.4375C10.3798 12.4375 10.6878 12.1295 10.6878 11.75V2.40918L14.0978 5.81918C14.2316 5.95393 14.4076 6.02085 14.5836 6.02085C14.7596 6.02085 14.9356 5.95485 15.0695 5.81918C15.338 5.5506 15.338 5.1161 15.0695 4.84752Z" fill="#8F8F8F"/>
<path d="M17.0658 18.1153H2.9345C1.77583 18.1153 0.833496 17.1729 0.833496 16.0143V10.8333C0.833496 10.4538 1.1415 10.1458 1.521 10.1458C1.9005 10.1458 2.2085 10.4538 2.2085 10.8333V16.0143C2.2085 16.4148 2.53391 16.7403 2.9345 16.7403H17.0658C17.4664 16.7403 17.7918 16.4148 17.7918 16.0143V10.8333C17.7918 10.4538 18.0998 10.1458 18.4793 10.1458C18.8588 10.1458 19.1668 10.4538 19.1668 10.8333V16.0143C19.1668 17.1729 18.2245 18.1153 17.0658 18.1153Z" fill="#8F8F8F"/>
</svg>
