<svg width="17" height="16" viewBox="0 0 17 16" fill="none" xmlns="http://www.w3.org/2000/svg">
<path d="M4.57143 9.07143C6 11.9286 10.6429 11.9286 12.0714 9.07143M16 8C16 12.1421 12.6421 15.5 8.5 15.5C4.35786 15.5 1 12.1421 1 8C1 3.85786 4.35786 0.5 8.5 0.5C12.6421 0.5 16 3.85786 16 8ZM7.42857 5.85714C7.42857 6.44888 6.94888 6.92857 6.35714 6.92857C5.76541 6.92857 5.28571 6.44888 5.28571 5.85714C5.28571 5.26541 5.76541 4.78571 6.35714 4.78571C6.94888 4.78571 7.42857 5.26541 7.42857 5.85714ZM11.7143 5.85714C11.7143 6.44888 11.2346 6.92857 10.6429 6.92857C10.0511 6.92857 9.57143 6.44888 9.57143 5.85714C9.57143 5.26541 10.0511 4.78571 10.6429 4.78571C11.2346 4.78571 11.7143 5.26541 11.7143 5.85714Z" stroke="#8B949E" stroke-opacity="0.7" stroke-width="0.96" stroke-linecap="round"/>
</svg>
