<svg width="8" height="8" viewBox="0 0 8 8" fill="none" xmlns="http://www.w3.org/2000/svg">
<path d="M4 0C1.79089 0 0 1.79089 0 4C0 6.20911 1.79089 8 4 8C6.20911 8 8 6.2092 8 4C8 1.7908 6.20911 0 4 0ZM5.96982 3.09089L3.64643 5.4142C3.61326 5.44736 3.57389 5.47367 3.53056 5.49162C3.48723 5.50957 3.44079 5.51881 3.39388 5.51881C3.34698 5.51881 3.30054 5.50957 3.25721 5.49162C3.21388 5.47367 3.1745 5.44736 3.14134 5.4142L2.03018 4.30304C1.99701 4.26987 1.9707 4.2305 1.95275 4.18717C1.93481 4.14384 1.92557 4.09739 1.92557 4.05049C1.92557 4.00359 1.93481 3.95715 1.95275 3.91381C1.9707 3.87048 1.99701 3.83111 2.03018 3.79795C2.06334 3.76478 2.10271 3.73847 2.14605 3.72052C2.18938 3.70257 2.23582 3.69334 2.28272 3.69334C2.32963 3.69334 2.37607 3.70257 2.4194 3.72052C2.46273 3.73847 2.5021 3.76478 2.53527 3.79795L3.39393 4.65661L5.46473 2.5858C5.4979 2.55264 5.53727 2.52633 5.5806 2.50838C5.62393 2.49043 5.67037 2.48119 5.71728 2.48119C5.76418 2.48119 5.81062 2.49043 5.85395 2.50838C5.89729 2.52633 5.93666 2.55264 5.96982 2.5858C6.00299 2.61897 6.0293 2.65834 6.04724 2.70167C6.06519 2.745 6.07443 2.79145 6.07443 2.83835C6.07443 2.88525 6.06519 2.93169 6.04724 2.97503C6.0293 3.01836 6.00299 3.05773 5.96982 3.09089Z" fill="#19AF00"/>
<path d="M5.96982 2.5858C5.93666 2.55264 5.89729 2.52633 5.85395 2.50838C5.81062 2.49043 5.76418 2.48119 5.71728 2.48119C5.67037 2.48119 5.62393 2.49043 5.5806 2.50838C5.53727 2.52633 5.4979 2.55264 5.46473 2.5858L3.39393 4.65661L2.53527 3.79795C2.5021 3.76478 2.46273 3.73847 2.4194 3.72052C2.37607 3.70257 2.32963 3.69334 2.28272 3.69334C2.23582 3.69334 2.18938 3.70257 2.14605 3.72052C2.10271 3.73847 2.06334 3.76478 2.03018 3.79795C1.99701 3.83111 1.9707 3.87048 1.95275 3.91381C1.93481 3.95715 1.92557 4.00359 1.92557 4.05049C1.92557 4.09739 1.93481 4.14384 1.95275 4.18717C1.9707 4.2305 1.99701 4.26987 2.03018 4.30304L3.14134 5.4142C3.1745 5.44736 3.21388 5.47367 3.25721 5.49162C3.30054 5.50957 3.34698 5.51881 3.39388 5.51881C3.44079 5.51881 3.48723 5.50957 3.53056 5.49162C3.57389 5.47367 3.61326 5.44736 3.64643 5.4142L5.96982 3.09089C6.00299 3.05773 6.0293 3.01836 6.04724 2.97503C6.06519 2.93169 6.07443 2.88525 6.07443 2.83835C6.07443 2.79145 6.06519 2.745 6.04724 2.70167C6.0293 2.65834 6.00299 2.61897 5.96982 2.5858Z" fill="white"/>
</svg>
