<svg width="20" height="16" viewBox="0 0 20 16" fill="none" xmlns="http://www.w3.org/2000/svg">
<path d="M19.5 1.95792C18.7906 2.28077 18.0358 2.49277 17.262 2.5865C18.0814 2.08078 18.6901 1.29569 18.9759 0.376169C18.2128 0.840554 17.3745 1.16821 16.4988 1.34438C16.1387 0.947541 15.6997 0.630358 15.2099 0.413178C14.72 0.195998 14.1902 0.0836192 13.6543 0.083252C11.5026 0.083252 9.75775 1.87242 9.75775 4.08038C9.75775 4.39388 9.791 4.69788 9.8575 4.99079C6.618 4.82375 3.74583 3.23329 1.82208 0.813168C1.4752 1.42649 1.29352 2.11938 1.29483 2.824C1.29483 4.21021 1.98358 5.43413 3.02858 6.15138C2.40838 6.13072 1.8025 5.95955 1.26317 5.65263V5.70171C1.26317 7.63892 2.60663 9.25471 4.39025 9.62046C4.0565 9.71508 3.71115 9.76251 3.36425 9.76138C3.11329 9.76138 2.86788 9.73763 2.63038 9.69013C3.12596 11.2782 4.56521 12.434 6.27125 12.4649C5.46939 13.1137 4.5453 13.5948 3.55387 13.8794C2.56245 14.164 1.52392 14.2465 0.5 14.1219C2.27325 15.2921 4.35094 15.9161 6.4755 15.9166C13.6464 15.9166 17.5667 9.82708 17.5667 4.54429C17.5667 4.37013 17.5628 4.19675 17.5565 4.02654C18.318 3.46288 18.9791 2.75988 19.5 1.95792Z" fill="#55ACEE"/>
</svg>
