<svg width="12" height="13" viewBox="0 0 12 13" fill="none" xmlns="http://www.w3.org/2000/svg">
<path fill-rule="evenodd" clip-rule="evenodd" d="M3.7203 12.0508C4.42446 12.3575 5.17829 12.5109 5.9818 12.5109C6.78531 12.5109 7.5413 12.3575 8.24978 12.0508C8.95825 11.7441 9.57384 11.3294 10.0966 10.8066C10.6193 10.2839 11.034 9.66833 11.3407 8.95986C11.6474 8.25139 11.8008 7.49539 11.8008 6.69188C11.8008 5.88837 11.6474 5.13454 11.3407 4.43039C11.034 3.72623 10.6193 3.1128 10.0966 2.59008C9.57384 2.06737 8.95825 1.65265 8.24978 1.34594C7.54131 1.03922 6.78531 0.885862 5.9818 0.885862C5.17829 0.885862 4.42446 1.03922 3.7203 1.34594C3.01615 1.65265 2.40272 2.06737 1.88 2.59008C1.35729 3.1128 0.94257 3.72623 0.635853 4.43038C0.329136 5.13454 0.175778 5.88837 0.175778 6.69188C0.175778 7.49539 0.329135 8.25139 0.635852 8.95986C0.942569 9.66833 1.35729 10.2839 1.88 10.8066C2.40272 11.3294 3.01615 11.7441 3.7203 12.0508ZM4.07745 4.27323C4.61216 3.85017 5.32631 3.61941 6.0833 3.65787C6.3511 3.65787 6.57427 3.69633 6.93134 3.77325C8.0454 4.0417 8.71491 5.07934 8.40248 6.04007C8.17931 6.6162 7.73386 7.03848 7.10988 7.3077C6.57427 7.57615 6.39574 7.69153 6.39574 8.07613C6.39574 8.38381 6.08419 8.65303 5.72801 8.65303C5.37094 8.65303 5.0585 8.38381 5.0585 8.07613C5.0585 7.03925 5.86102 6.5785 6.39574 6.30929C6.44285 6.27884 6.48764 6.2504 6.53009 6.22344C6.80937 6.04608 6.98775 5.9328 7.06524 5.73316C7.10988 5.54086 7.06524 5.3101 6.93134 5.1178C6.70907 4.9255 6.39663 4.81012 6.08419 4.84858C5.72801 4.81012 5.37094 4.9255 5.0585 5.1178C4.9246 5.23241 4.83623 5.38625 4.83623 5.57855C4.83623 5.88623 4.52379 6.15545 4.16672 6.15545C3.80965 6.15545 3.49721 5.88623 3.49721 5.57855C3.49721 5.07934 3.67575 4.61859 4.07745 4.27323ZM5.05448 9.91965C5.023 9.84623 5.00918 9.76806 5.01387 9.6899C5.02273 9.54225 5.09704 9.40317 5.22145 9.30136C5.34587 9.19955 5.5109 9.14278 5.68249 9.14279C5.85407 9.14279 6.0191 9.19955 6.14352 9.30136C6.26794 9.40317 6.34224 9.54225 6.3511 9.6899C6.35579 9.76806 6.34197 9.84623 6.31049 9.91965C6.279 9.99306 6.23051 10.0602 6.16797 10.1169C6.10542 10.1737 6.03012 10.2189 5.94666 10.2498C5.8632 10.2807 5.77332 10.2966 5.68249 10.2966C5.59165 10.2966 5.50177 10.2807 5.41831 10.2498C5.33485 10.2189 5.25955 10.1737 5.19701 10.1169C5.13446 10.0602 5.08597 9.99306 5.05448 9.91965Z" fill="#AE88FE"/>
</svg>
