<svg width="15" height="15" viewBox="0 0 15 15" fill="none" xmlns="http://www.w3.org/2000/svg">
<path fill-rule="evenodd" clip-rule="evenodd" d="M6.5 10.7134C6.77614 10.7134 7 10.9372 7 11.2134V13.1713C9.74874 11.5657 11.4025 10.43 12.3999 9.43832C12.9787 8.86284 13.2971 8.37208 13.482 7.90412C13.6679 7.43359 13.75 6.90786 13.75 6.21338C13.75 3.7281 11.7353 1.71338 9.25 1.71338H5.75C3.26472 1.71338 1.25 3.7281 1.25 6.21338C1.25 8.69866 3.26472 10.7134 5.75 10.7134H6.5ZM7 14.6162C13.6641 10.7811 15 9.21029 15 6.21338C15 3.03774 12.4256 0.463379 9.25 0.463379H5.75C2.57436 0.463379 0 3.03774 0 6.21338C0 9.38902 2.57436 11.9634 5.75 11.9634V14.472C5.75 14.8545 6.16196 15.0952 6.4943 14.9058C6.66618 14.8079 6.83473 14.7114 7 14.6162Z" fill="#7D7F88"/>
</svg>
