<svg width="19" height="19" viewBox="0 0 19 19" fill="none" xmlns="http://www.w3.org/2000/svg">
<path d="M14.144 11.9648C13.6812 12.3804 12.9068 12.3898 11.9907 12.0404C10.7819 11.606 9.33691 10.5577 8.03361 9.10325C6.73975 7.64884 5.86142 6.09056 5.5592 4.83448C5.3231 3.89006 5.42699 3.12508 5.88975 2.70954C6.98528 1.73678 9.71466 3.01174 12.0002 5.56167C14.2856 8.11161 15.2395 10.9827 14.144 11.9554V11.9648Z" stroke="white" stroke-width="1.5" stroke-miterlimit="10" stroke-linecap="round"/>
<path d="M5.58752 3.16284L1.15822 13.0887C0.534901 14.477 1.85709 15.9503 3.31149 15.497L13.6812 12.2198" stroke="white" stroke-width="1.5" stroke-miterlimit="10" stroke-linecap="round"/>
<path d="M4.43542 15.2423L4.93604 16.8386C5.20996 17.7076 6.1545 18.1988 7.02349 17.9249L8.61978 17.4243C9.48877 17.1503 9.97993 16.2058 9.70601 15.3368L9.2054 13.7405" stroke="white" stroke-width="1.5" stroke-miterlimit="10" stroke-linecap="round"/>
<path d="M17.1855 1.8783L16.3543 2.71896" stroke="white" stroke-width="1.5" stroke-miterlimit="10" stroke-linecap="round"/>
<path d="M12.8977 1L12.5104 1.85009" stroke="white" stroke-width="1.5" stroke-miterlimit="10" stroke-linecap="round"/>
<path d="M17.9977 6.09998L17.2043 6.52504" stroke="white" stroke-width="1.5" stroke-miterlimit="10" stroke-linecap="round"/>
</svg>
