<svg width="14" height="14" viewBox="0 0 14 14" fill="none" xmlns="http://www.w3.org/2000/svg">
<path d="M7.14081 0.102783C8.0601 0.102783 8.92255 0.278238 9.72816 0.629149C10.5338 0.980059 11.2356 1.45453 11.8336 2.05256C12.4317 2.65059 12.9061 3.35488 13.257 4.16544C13.6079 4.97599 13.7834 5.84091 13.7834 6.7602C13.7834 7.67948 13.6079 8.54193 13.257 9.34754C12.9061 10.1532 12.4317 10.855 11.8336 11.453C11.2356 12.051 10.5338 12.5255 9.72816 12.8764C8.92255 13.2273 8.0601 13.4028 7.14081 13.4028C6.22153 13.4028 5.35661 13.2273 4.54605 12.8764C3.7355 12.5255 3.03121 12.051 2.43318 11.453C1.83515 10.855 1.36067 10.1532 1.00976 9.34754C0.658854 8.54193 0.483398 7.67948 0.483398 6.7602C0.483398 5.84091 0.658854 4.97599 1.00976 4.16544C1.36067 3.35488 1.83515 2.65059 2.43318 2.05256C3.03121 1.45453 3.7355 0.980059 4.54605 0.629149C5.35661 0.278238 6.22153 0.102783 7.14081 0.102783ZM7.94148 5.84091C7.94148 5.60367 7.86487 5.40351 7.71166 5.24041C7.55845 5.07731 7.36816 4.99576 7.14081 4.99576C6.91346 4.99576 6.72071 5.07731 6.56255 5.24041C6.4044 5.40351 6.32532 5.60367 6.32532 5.84091V10.808C6.32532 11.0453 6.4044 11.2355 6.56255 11.3789C6.72071 11.5222 6.91346 11.5939 7.14081 11.5939C7.36816 11.5939 7.56092 11.5197 7.71907 11.3715C7.87723 11.2232 7.95631 11.0304 7.95631 10.7932L7.94148 5.84091ZM7.14081 4.00234C7.42747 4.00234 7.67212 3.90102 7.87476 3.69838C8.0774 3.49574 8.17872 3.25109 8.17872 2.96443C8.17872 2.67777 8.0774 2.43312 7.87476 2.23049C7.67212 2.02785 7.42747 1.92653 7.14081 1.92653C6.85415 1.92653 6.60703 2.02785 6.39945 2.23049C6.19187 2.43312 6.08808 2.67777 6.08808 2.96443C6.08808 3.25109 6.19187 3.49574 6.39945 3.69838C6.60703 3.90102 6.85415 4.00234 7.14081 4.00234Z" fill="#8B949E"/>
</svg>
