<svg width="19" height="19" viewBox="0 0 19 19" fill="none" xmlns="http://www.w3.org/2000/svg">
<path d="M14.6933 13.5715V1.3571C14.6933 0.607636 14.0952 0 13.3574 0H1.33487C0.597159 0 -0.000976562 0.607636 -0.000976562 1.3571V13.5715C-0.000976562 14.3203 0.597159 14.9286 1.33487 14.9286H13.3574C14.0951 14.9286 14.6933 14.3203 14.6933 13.5715ZM12.0216 13.5715H2.67072C1.93301 13.5715 1.33487 12.9632 1.33487 12.2144V2.71422C1.33487 1.96476 1.93301 1.3571 2.67072 1.3571H12.0216C12.7593 1.3571 13.3574 1.96473 13.3574 2.71422V12.2144C13.3574 12.9632 12.7593 13.5715 12.0216 13.5715ZM17.3649 4.07134H16.0291V5.42847C16.7668 5.42847 17.3649 6.03613 17.3649 6.78589V16.2858C17.3649 17.0346 16.7668 17.6429 16.0291 17.6429H6.67821C5.9405 17.6429 5.34236 17.0346 5.34236 16.2858H4.00652V17.6429C4.00652 18.3917 4.60465 19 5.34236 19H17.3649C18.1027 19 18.7008 18.3917 18.7008 17.6429V5.42847C18.7008 4.67898 18.1027 4.07134 17.3649 4.07134Z" fill="#6246EA"/>
</svg>
