<svg width="31" height="31" viewBox="0 0 31 31" fill="none" xmlns="http://www.w3.org/2000/svg">
<path d="M24.2959 22.0688V2.34017C24.2959 1.12964 23.3144 0.148193 22.1038 0.148193H2.37585C1.16533 0.148193 0.183838 1.12964 0.183838 2.34017V22.0688C0.183838 23.2783 1.16533 24.2608 2.37585 24.2608H22.1038C23.3144 24.2608 24.2959 23.2783 24.2959 22.0688ZM19.9119 22.0688H4.56787C3.35734 22.0688 2.37585 21.0863 2.37585 19.8768V4.53218C2.37585 3.32166 3.35734 2.34017 4.56787 2.34017H19.9119C21.1224 2.34017 22.1038 3.32161 22.1038 4.53218V19.8769C22.1038 21.0863 21.1224 22.0688 19.9119 22.0688ZM28.6799 6.72419H26.4879V8.91621C27.6984 8.91621 28.6799 9.8977 28.6799 11.1087V26.4528C28.6799 27.6623 27.6984 28.6448 26.4879 28.6448H11.1438C9.9333 28.6448 8.95181 27.6623 8.95181 26.4528H6.7598V28.6448C6.7598 29.8543 7.74129 30.8368 8.95181 30.8368H28.6799C29.8904 30.8368 30.8719 29.8543 30.8719 28.6448V8.91621C30.8719 7.70564 29.8904 6.72419 28.6799 6.72419Z" fill="white"/>
</svg>
