<svg width="18" height="16" viewBox="0 0 18 16" fill="none" xmlns="http://www.w3.org/2000/svg">
<path fill-rule="evenodd" clip-rule="evenodd" d="M0.600098 2C0.600098 1.68174 0.726526 1.37652 0.951569 1.15148C1.17661 0.926432 1.48184 0.800003 1.8001 0.800003H16.2001C16.5184 0.800003 16.8236 0.926432 17.0486 1.15148C17.2737 1.37652 17.4001 1.68174 17.4001 2C17.4001 2.31826 17.2737 2.62349 17.0486 2.84853C16.8236 3.07357 16.5184 3.2 16.2001 3.2H1.8001C1.48184 3.2 1.17661 3.07357 0.951569 2.84853C0.726526 2.62349 0.600098 2.31826 0.600098 2ZM0.600098 8C0.600098 7.68174 0.726526 7.37652 0.951569 7.15148C1.17661 6.92643 1.48184 6.8 1.8001 6.8H16.2001C16.5184 6.8 16.8236 6.92643 17.0486 7.15148C17.2737 7.37652 17.4001 7.68174 17.4001 8C17.4001 8.31826 17.2737 8.62349 17.0486 8.84853C16.8236 9.07358 16.5184 9.2 16.2001 9.2H1.8001C1.48184 9.2 1.17661 9.07358 0.951569 8.84853C0.726526 8.62349 0.600098 8.31826 0.600098 8ZM0.600098 14C0.600098 13.6817 0.726526 13.3765 0.951569 13.1515C1.17661 12.9264 1.48184 12.8 1.8001 12.8H9.0001C9.31836 12.8 9.62358 12.9264 9.84863 13.1515C10.0737 13.3765 10.2001 13.6817 10.2001 14C10.2001 14.3183 10.0737 14.6235 9.84863 14.8485C9.62358 15.0736 9.31836 15.2 9.0001 15.2H1.8001C1.48184 15.2 1.17661 15.0736 0.951569 14.8485C0.726526 14.6235 0.600098 14.3183 0.600098 14Z" fill="#59597C"/>
</svg>
