<svg width="26" height="26" viewBox="0 0 26 26" fill="none" xmlns="http://www.w3.org/2000/svg">
<path d="M3.83984 19.1948H3.83831V19.1855L3.83984 19.1948Z" fill="#6246EA"/>
<path d="M5.50246 5.50324C9.63626 1.36871 16.363 1.36871 20.4968 5.50324C24.6313 9.63701 24.6313 16.3637 20.4968 20.4975C16.363 24.6321 9.63623 24.6321 5.50246 20.4975C1.36793 16.3637 1.36793 9.63701 5.50246 5.50324ZM6.57852 19.4222C10.1191 22.9628 15.8809 22.962 19.4211 19.4222C22.962 15.8809 22.962 10.1202 19.4211 6.57893C15.8809 3.03873 10.1191 3.03795 6.57852 6.57893C3.03798 10.1191 3.03798 15.8816 6.57852 19.4222Z" fill="#6246EA"/>
<path d="M16.3083 11.8837C15.679 11.8837 15.1669 11.3715 15.1669 10.7419C15.1669 10.1115 15.679 9.59863 16.3083 9.59863C16.939 9.59863 17.4512 10.1115 17.4512 10.7419C17.4512 11.3715 16.939 11.8837 16.3083 11.8837Z" fill="#6246EA"/>
<path d="M9.73359 11.885C9.1036 11.885 8.59076 11.3718 8.59076 10.7421C8.59076 10.1117 9.1036 9.59961 9.73359 9.59961C10.3629 9.59961 10.875 10.1117 10.875 10.7421C10.875 11.3718 10.3629 11.885 9.73359 11.885Z" fill="#6246EA"/>
<path d="M9.69235 15.7188L9.75466 15.739C10.7782 16.2024 11.876 16.4381 13.0151 16.4381C14.1918 16.4381 15.3047 16.2001 16.3237 15.7323L16.3852 15.7135C16.4235 15.703 16.4753 15.688 16.5399 15.688C16.9146 15.688 17.2188 15.9921 17.2188 16.3653C17.2188 16.5425 17.1354 16.7205 16.998 16.8541L17.0062 16.8954L16.8328 16.9735C15.6163 17.524 14.2932 17.8138 13.0069 17.8138C11.6965 17.8138 10.4125 17.5315 9.17344 16.9667C8.9557 16.8473 8.81979 16.6183 8.81979 16.3698C8.81979 15.932 9.21547 15.5723 9.69235 15.7188Z" fill="#6246EA"/>
</svg>
