<svg width="23" height="21" viewBox="0 0 23 21" fill="none" xmlns="http://www.w3.org/2000/svg">
<path d="M19.3372 4.40425H17.2689L6.36635 0.865574C6.05814 0.764349 5.73271 0.726191 5.40945 0.753376C5.08618 0.78056 4.7717 0.87253 4.48472 1.02381C4.19679 1.17318 3.94189 1.37899 3.73519 1.62898C3.5285 1.87897 3.37426 2.16801 3.28165 2.47888L2.68388 4.45951C1.15953 4.73725 2.63672e-08 6.07385 0 7.67816V16.9816C0 18.7862 1.46805 20.2553 3.27391 20.2553H19.3383C21.1431 20.2553 22.6122 18.7875 22.6122 16.9816V7.67816C22.6109 5.87355 21.1429 4.40425 19.3372 4.40425ZM4.75849 2.92364C4.79233 2.8096 4.84882 2.70355 4.9246 2.61184C5.00037 2.52014 5.09387 2.44466 5.19949 2.38992C5.30475 2.33438 5.42014 2.30064 5.53874 2.29071C5.65735 2.28079 5.77674 2.29488 5.88977 2.33216L12.2729 4.40425H4.311L4.75849 2.92364ZM19.3372 18.713H3.27265C2.3176 18.713 1.54109 17.9365 1.54109 16.9816V7.67816C1.54109 6.72311 2.3176 5.9466 3.27265 5.9466H19.3372C20.2923 5.9466 21.0686 6.72311 21.0686 7.67816V8.75271H16.1701C14.211 8.75271 12.6172 10.3466 12.6172 12.3054C12.6172 14.2645 14.2112 15.8581 16.1701 15.8581H21.0686V16.9816C21.0686 17.9367 20.2921 18.713 19.3372 18.713ZM21.0686 14.3156H16.1701C15.062 14.3156 14.1597 13.4135 14.1597 12.3054C14.1597 11.1974 15.0618 10.2951 16.1701 10.2951H21.0686V14.3158V14.3156Z" fill="#59597C"/>
</svg>
