<svg width="16" height="13" viewBox="0 0 16 13" fill="none" xmlns="http://www.w3.org/2000/svg">
<path d="M0.926087 0.632153C1.98317 1.84583 3.04299 2.70664 4.10826 3.21644C5.19253 3.73064 6.36672 4.01797 7.56153 4.06147C7.44782 3.43466 7.44782 2.86357 7.56153 2.34727C7.73256 1.57189 8.41484 0.632153 9.5256 0.177139C9.99865 -0.0169377 10.9493 -0.0977257 11.7671 0.177139C12.1119 0.292286 12.4995 0.557865 12.9297 0.974805C13.2199 0.957162 13.5238 0.895875 13.8404 0.790014C14.1569 0.684154 14.5481 0.479862 15.013 0.177139C14.8083 0.754728 14.5836 1.16517 14.338 1.40939C14.0924 1.65268 13.8194 1.85512 13.5165 2.01669C13.8722 2.02505 14.2425 1.96469 14.6264 1.83654C15.0103 1.70747 15.2905 1.59789 15.4651 1.50503C15.0512 2.04455 14.7355 2.40763 14.519 2.59428C14.3025 2.78 14.076 2.98708 13.8404 3.21551C13.874 4.08004 13.7876 4.95199 13.5802 5.82952C13.2682 7.1472 12.776 8.98025 11.396 10.4428C10.015 11.9044 7.98 12.8915 5.49194 12.9918C3.00387 13.0921 1.21902 12.2424 0.85513 12.0948C0.559562 11.9693 0.273705 11.8213 0 11.6518C1.28724 11.6583 2.23789 11.5385 2.85286 11.2925C3.50455 11.0243 4.11275 10.6571 4.65682 10.2032C3.83171 10.1382 3.18308 9.91721 2.71003 9.53741C2.23698 9.15854 1.89402 8.64688 1.68206 8.0043H3.063C3.14124 7.95601 3.02298 7.85851 2.71003 7.71086C2.2388 7.48892 1.37276 7.12956 0.926997 6.27617C0.627702 5.70787 0.479419 5.15907 0.479419 4.63163C0.876963 4.81735 1.16352 4.92878 1.33728 4.96778C1.51194 5.00585 1.68843 5.03278 1.86764 5.04671V4.84799C1.13168 4.27597 0.701388 3.62967 0.576758 2.90722C0.451217 2.18477 0.567661 1.4261 0.926087 0.632153Z" fill="#8F8F8F"/>
</svg>
