<svg width="11" height="9" viewBox="0 0 11 9" fill="none" xmlns="http://www.w3.org/2000/svg">
<path d="M9.32629 1.17566C9.32323 1.17 9.31817 1.16557 9.312 1.16316C8.59881 0.850809 7.84618 0.628081 7.07297 0.500546C7.06594 0.4993 7.05868 0.500199 7.05222 0.503116C7.04577 0.506034 7.04044 0.510821 7.03699 0.516796C6.93451 0.694348 6.84148 0.876724 6.75825 1.06323C5.92476 0.942455 5.07695 0.942455 4.24347 1.06323C4.15969 0.87625 4.06517 0.693829 3.96033 0.516796C3.95673 0.510951 3.95138 0.506274 3.94496 0.503375C3.93854 0.500477 3.93135 0.499491 3.92434 0.500546C3.15104 0.627813 2.39837 0.850558 1.68527 1.16317C1.67916 1.16564 1.67401 1.16986 1.67053 1.17524C0.244468 3.20807 -0.146183 5.19092 0.0454567 7.14921C0.0459959 7.15401 0.0475406 7.15865 0.0499992 7.16287C0.0524577 7.16709 0.0557799 7.17079 0.059768 7.17376C0.890148 7.76065 1.81894 8.20862 2.8065 8.49857C2.81346 8.50056 2.82089 8.50047 2.82778 8.49831C2.83468 8.49615 2.84073 8.49203 2.8451 8.4865C3.0572 8.21101 3.24515 7.9193 3.40702 7.61432C3.40924 7.61013 3.41051 7.60554 3.41074 7.60086C3.41097 7.59617 3.41016 7.59149 3.40836 7.58712C3.40656 7.58276 3.40381 7.5788 3.40029 7.57552C3.39678 7.57225 3.39257 7.56972 3.38795 7.5681C3.09158 7.45986 2.80466 7.32937 2.52988 7.17787C2.52488 7.17507 2.52069 7.17114 2.51767 7.16642C2.51465 7.16171 2.51289 7.15636 2.51254 7.15084C2.5122 7.14532 2.51329 7.13981 2.51571 7.13479C2.51813 7.12977 2.5218 7.12539 2.52641 7.12205C2.58424 7.08082 2.64105 7.03833 2.69682 6.9946C2.70171 6.99076 2.70763 6.98829 2.71391 6.98748C2.72019 6.98667 2.72658 6.98756 2.73237 6.99003C4.53257 7.77426 6.48155 7.77426 8.26045 6.99003C8.26624 6.9874 8.2727 6.98639 8.27907 6.98713C8.28545 6.98787 8.29147 6.99032 8.29644 6.99419C8.35227 7.03815 8.40924 7.08078 8.46728 7.12205C8.47191 7.12536 8.47562 7.1297 8.47808 7.13471C8.48054 7.13971 8.48167 7.14521 8.48137 7.15073C8.48107 7.15625 8.47935 7.16161 8.47636 7.16634C8.47338 7.17108 8.46921 7.17504 8.46425 7.17787C8.19009 7.33065 7.90291 7.46105 7.60576 7.56769C7.60114 7.56937 7.59695 7.57196 7.59346 7.57528C7.58996 7.57861 7.58724 7.58261 7.58548 7.58701C7.58371 7.59141 7.58294 7.59612 7.58321 7.60082C7.58348 7.60553 7.58479 7.61013 7.58705 7.61432C7.75163 7.9176 7.93929 8.20895 8.14854 8.48602C8.15278 8.4917 8.1588 8.49596 8.16572 8.49821C8.17265 8.50045 8.18014 8.50056 8.18713 8.49852C9.17647 8.20955 10.1069 7.76154 10.9383 7.17376C10.9423 7.17094 10.9457 7.16733 10.9482 7.16317C10.9507 7.159 10.9522 7.15438 10.9526 7.14962C11.182 4.88563 10.5685 2.91904 9.32629 1.17566ZM3.67586 5.95681C3.13387 5.95681 2.68728 5.48204 2.68728 4.89897C2.68728 4.3159 3.12521 3.84109 3.67586 3.84109C4.23082 3.84109 4.67309 4.32002 4.66443 4.89893C4.66443 5.48204 4.22648 5.95681 3.67586 5.95681ZM7.33094 5.95681C6.78897 5.95681 6.34238 5.48204 6.34238 4.89897C6.34238 4.3159 6.7803 3.84109 7.33094 3.84109C7.88594 3.84109 8.32819 4.32002 8.31952 4.89893C8.31952 5.48204 7.88594 5.95681 7.33094 5.95681Z" fill="#7D7F88"/>
</svg>
