<svg width="15" height="15" viewBox="0 0 15 15" fill="none" xmlns="http://www.w3.org/2000/svg">
<path fill-rule="evenodd" clip-rule="evenodd" d="M4.57358 14.4064C5.48216 14.8021 6.45485 15 7.49164 15C8.52843 15 9.5039 14.8021 10.4181 14.4064C11.3322 14.0106 12.1265 13.4755 12.801 12.801C13.4755 12.1265 14.0106 11.3322 14.4064 10.4181C14.8021 9.5039 15 8.52843 15 7.49164C15 6.45485 14.8021 5.48216 14.4064 4.57358C14.0106 3.66499 13.4755 2.87347 12.801 2.199C12.1265 1.52452 11.3322 0.989406 10.4181 0.593643C9.5039 0.197878 8.52843 -1.51944e-06 7.49164 -1.61008e-06C6.45485 -1.70072e-06 5.48216 0.197878 4.57358 0.593642C3.66499 0.989406 2.87347 1.52452 2.199 2.19899C1.52452 2.87347 0.989407 3.66499 0.593642 4.57358C0.197879 5.48216 -2.11398e-06 6.45485 -2.20462e-06 7.49164C-2.29526e-06 8.52843 0.197878 9.5039 0.593642 10.4181C0.989406 11.3322 1.52452 12.1265 2.19899 12.801C2.87346 13.4755 3.66499 14.0106 4.57358 14.4064ZM5.03441 4.37079C5.72437 3.82491 6.64584 3.52715 7.6226 3.57678C7.96815 3.57678 8.25612 3.62641 8.71685 3.72566C10.1544 4.07204 11.0182 5.41094 10.6151 6.65058C10.3271 7.39397 9.75236 7.93886 8.94722 8.28624C8.25612 8.63263 8.02575 8.7815 8.02575 9.27776C8.02575 9.67476 7.62375 10.0221 7.16417 10.0221C6.70343 10.0221 6.30029 9.67476 6.30029 9.27776C6.30029 7.93986 7.33579 7.34534 8.02575 6.99796C8.08654 6.95868 8.14433 6.92198 8.1991 6.88719C8.55947 6.65835 8.78964 6.51218 8.88963 6.25457C8.94722 6.00645 8.88963 5.70869 8.71685 5.46057C8.43004 5.21244 8.0269 5.06356 7.62375 5.11319C7.16417 5.06356 6.70343 5.21244 6.30029 5.46056C6.12751 5.60845 6.01348 5.80695 6.01348 6.05508C6.01348 6.45208 5.61033 6.79946 5.1496 6.79946C4.68886 6.79946 4.28571 6.45208 4.28571 6.05508C4.28571 5.41094 4.51608 4.81643 5.03441 4.37079ZM6.2951 11.6565C6.25447 11.5618 6.23665 11.4609 6.2427 11.36C6.25412 11.1695 6.35 10.9901 6.51054 10.8587C6.67108 10.7273 6.88403 10.6541 7.10542 10.6541C7.32682 10.6541 7.53977 10.7273 7.70031 10.8587C7.86085 10.9901 7.95673 11.1695 7.96815 11.36C7.9742 11.4609 7.95638 11.5618 7.91575 11.6565C7.87513 11.7512 7.81256 11.8378 7.73185 11.9111C7.65114 11.9843 7.55399 12.0426 7.4463 12.0825C7.3386 12.1223 7.22263 12.1429 7.10542 12.1429C6.98822 12.1429 6.87225 12.1223 6.76456 12.0825C6.65686 12.0426 6.55971 11.9843 6.479 11.9111C6.39829 11.8378 6.33572 11.7512 6.2951 11.6565Z" fill="#2C2C2C"/>
</svg>
