<svg width="99" height="98" viewBox="0 0 99 98" fill="none" xmlns="http://www.w3.org/2000/svg">
<path d="M98.5 49C98.5 42.5652 97.2326 36.1935 94.7701 30.2485C92.3076 24.3036 88.6983 18.9018 84.1482 14.3518C79.5982 9.8017 74.1964 6.19238 68.2515 3.7299C62.3065 1.26742 55.9348 0 49.5 0C43.0652 0 36.6935 1.26742 30.7485 3.7299C24.8036 6.19238 19.4018 9.8017 14.8518 14.3518C10.3017 18.9018 6.69238 24.3036 4.2299 30.2485C1.76742 36.1935 0.5 42.5652 0.5 49C0.5 61.9956 5.66249 74.459 14.8518 83.6482C24.041 92.8375 36.5044 98 49.5 98C62.4956 98 74.959 92.8375 84.1482 83.6482C93.3375 74.459 98.5 61.9956 98.5 49ZM8.66667 49C8.66667 38.1703 12.9687 27.7842 20.6265 20.1265C28.2842 12.4687 38.6703 8.16667 49.5 8.16667C60.3297 8.16667 70.7158 12.4687 78.3735 20.1265C86.0313 27.7842 90.3333 38.1703 90.3333 49C90.3333 59.8297 86.0313 70.2158 78.3735 77.8735C70.7158 85.5313 60.3297 89.8333 49.5 89.8333C38.6703 89.8333 28.2842 85.5313 20.6265 77.8735C12.9687 70.2158 8.66667 59.8297 8.66667 49ZM41.3333 38.7917C41.3333 39.596 41.1749 40.3925 40.8671 41.1356C40.5593 41.8787 40.1081 42.5539 39.5394 43.1227C38.9706 43.6915 38.2954 44.1426 37.5523 44.4504C36.8092 44.7582 36.0127 44.9167 35.2083 44.9167C34.404 44.9167 33.6075 44.7582 32.8644 44.4504C32.1213 44.1426 31.4461 43.6915 30.8773 43.1227C30.3085 42.5539 29.8574 41.8787 29.5496 41.1356C29.2418 40.3925 29.0833 39.596 29.0833 38.7917C29.0833 37.1672 29.7286 35.6093 30.8773 34.4606C32.026 33.312 33.5839 32.6667 35.2083 32.6667C36.8328 32.6667 38.3907 33.312 39.5394 34.4606C40.688 35.6093 41.3333 37.1672 41.3333 38.7917ZM69.9167 38.7917C69.9167 40.4161 69.2714 41.974 68.1227 43.1227C66.974 44.2714 65.4161 44.9167 63.7917 44.9167C62.1672 44.9167 60.6093 44.2714 59.4606 43.1227C58.312 41.974 57.6667 40.4161 57.6667 38.7917C57.6667 37.1672 58.312 35.6093 59.4606 34.4606C60.6093 33.312 62.1672 32.6667 63.7917 32.6667C65.4161 32.6667 66.974 33.312 68.1227 34.4606C69.2714 35.6093 69.9167 37.1672 69.9167 38.7917ZM34.2447 72.0463C41.7988 63.0957 57.193 63.0957 64.7553 72.0463C65.0928 72.4804 65.5144 72.8419 65.995 73.1091C66.4756 73.3763 67.0051 73.5437 67.552 73.6012C68.0988 73.6588 68.6516 73.6053 69.1772 73.4439C69.7029 73.2826 70.1905 73.0168 70.6109 72.6624C71.0314 72.308 71.3759 71.8724 71.6238 71.3816C71.8718 70.8909 72.018 70.3551 72.0539 69.8064C72.0897 69.2577 72.0144 68.7075 71.8323 68.1886C71.6503 67.6698 71.3654 67.1931 70.9947 66.787C60.1738 53.9653 38.818 53.9653 28.0053 66.787C27.6346 67.1931 27.3497 67.6698 27.1677 68.1886C26.9857 68.7075 26.9103 69.2577 26.9461 69.8064C26.982 70.3551 27.1282 70.8909 27.3762 71.3816C27.6241 71.8724 27.9686 72.308 28.3891 72.6624C28.8095 73.0168 29.2971 73.2826 29.8228 73.4439C30.3484 73.6053 30.9012 73.6588 31.448 73.6012C31.9949 73.5437 32.5244 73.3763 33.005 73.1091C33.4856 72.8419 33.9072 72.4804 34.2447 72.0463Z" fill="#F21E1E" fill-opacity="0.93"/>
</svg>
