<svg width="23" height="18" viewBox="0 0 23 18" fill="none" xmlns="http://www.w3.org/2000/svg">
<path d="M1.81741 0.875288C3.32118 2.55577 4.82882 3.74766 6.34423 4.45354C7.88667 5.1655 9.55701 5.56334 11.2567 5.62357C11.0949 4.75569 11.0949 3.96495 11.2567 3.25007C11.5 2.17647 12.4706 0.875288 14.0507 0.24527C14.7236 -0.0234522 16.076 -0.135313 17.2394 0.24527C17.7299 0.404703 18.2812 0.772428 18.8933 1.34973C19.3061 1.3253 19.7384 1.24044 20.1887 1.09387C20.6391 0.94729 21.1955 0.664425 21.8568 0.24527C21.5656 1.04501 21.246 1.61331 20.8966 1.95146C20.5472 2.28833 20.1589 2.56862 19.728 2.79234C20.234 2.80392 20.7607 2.72034 21.3068 2.54291C21.8529 2.36419 22.2515 2.21247 22.5 2.08389C21.9112 2.83092 21.4621 3.33365 21.1541 3.59208C20.8461 3.84923 20.5239 4.13595 20.1887 4.45225C20.2366 5.64928 20.1136 6.85661 19.8186 8.07164C19.3747 9.89612 18.6746 12.4342 16.7114 14.4593C14.7469 16.483 11.852 17.8498 8.31259 17.9886C4.77318 18.1275 2.23412 16.951 1.71647 16.7466C1.29601 16.5729 0.889361 16.3679 0.5 16.1333C2.33118 16.1423 3.68353 15.9764 4.55835 15.6357C5.48542 15.2644 6.35062 14.756 7.12459 14.1275C5.95082 14.0375 5.02812 13.7315 4.35518 13.2056C3.68224 12.6811 3.19435 11.9726 2.89282 11.0829H4.85729C4.96859 11.016 4.80035 10.881 4.35518 10.6766C3.68482 10.3693 2.45282 9.87169 1.81871 8.69009C1.39294 7.90321 1.182 7.14333 1.182 6.41302C1.74753 6.67017 2.15518 6.82446 2.40235 6.87846C2.65082 6.93118 2.90188 6.96846 3.15682 6.98775V6.7126C2.10988 5.92058 1.49776 5.02569 1.32047 4.02538C1.14188 3.02506 1.30753 1.97461 1.81741 0.875288Z" fill="#7D7F88"/>
</svg>
