<svg width="8" height="11" viewBox="0 0 8 11" fill="none" xmlns="http://www.w3.org/2000/svg">
<path d="M3 1C3 0.447715 3.44772 0 4 0C4.55228 0 5 0.447715 5 1V10C5 10.5523 4.55228 11 4 11C3.44772 11 3 10.5523 3 10V1Z" fill="#464646"/>
<path d="M0 3C0 2.44772 0.447715 2 1 2C1.55228 2 2 2.44772 2 3V8C2 8.55228 1.55228 9 1 9C0.447715 9 0 8.55228 0 8V3Z" fill="#464646"/>
<path d="M6 3C6 2.44772 6.44772 2 7 2C7.55228 2 8 2.44772 8 3V8C8 8.55228 7.55228 9 7 9C6.44772 9 6 8.55228 6 8V3Z" fill="#464646"/>
</svg>
