<svg width="24" height="25" viewBox="0 0 24 25" fill="none" xmlns="http://www.w3.org/2000/svg">
<path d="M14.8362 0.681885C19.9771 1.98188 23.818 6.70916 23.818 12.3228C23.818 18.941 18.4998 24.3182 11.9998 24.3182C5.79528 24.3182 0.713459 19.4728 0.240731 13.2682C0.181641 13.2092 0.181641 13.1501 0.181641 13.0319C0.181641 12.6182 0.477095 12.3228 0.890731 12.3228C1.24528 12.3228 1.48164 12.5592 1.59982 12.8546C2.89982 15.9864 5.97255 18.1728 9.518 18.1728C14.2453 18.1728 18.0862 14.2728 18.0862 9.42734C18.0862 6.35461 16.5498 3.69552 14.1862 2.10007C13.9498 1.98188 13.7725 1.68643 13.7725 1.45007C13.7725 1.03643 14.1271 0.681885 14.4816 0.681885H14.8362Z" fill="url(#paint0_linear_1624_1783)"/>
<defs>
<linearGradient id="paint0_linear_1624_1783" x1="-6.86599" y1="-9.95445" x2="39.9247" y2="-4.22159" gradientUnits="userSpaceOnUse">
<stop stop-color="#AE88FE"/>
<stop offset="0.484375" stop-color="#923CFF"/>
<stop offset="1" stop-color="#00B2FF"/>
</linearGradient>
</defs>
</svg>
