<svg width="16" height="16" viewBox="0 0 16 16" fill="none" xmlns="http://www.w3.org/2000/svg">
<path fill-rule="evenodd" clip-rule="evenodd" d="M4.87849 15.3668C5.84764 15.7889 6.88517 16 7.99108 16C9.09699 16 10.1375 15.7889 11.1126 15.3668C12.0877 14.9446 12.935 14.3738 13.6544 13.6544C14.3738 12.935 14.9446 12.0877 15.3668 11.1126C15.7889 10.1375 16 9.09699 16 7.99108C16 6.88517 15.7889 5.84764 15.3668 4.87848C14.9446 3.90933 14.3738 3.06503 13.6544 2.3456C12.935 1.62616 12.0877 1.05537 11.1126 0.633219C10.1375 0.211071 9.09699 -6.0348e-07 7.99108 -7.00162e-07C6.88518 -7.96843e-07 5.84764 0.211071 4.87849 0.633219C3.90933 1.05537 3.06503 1.62616 2.3456 2.3456C1.62616 3.06503 1.05537 3.90933 0.633223 4.87848C0.211075 5.84764 7.96843e-07 6.88517 7.00162e-07 7.99108C6.0348e-07 9.09699 0.211074 10.1375 0.633222 11.1126C1.05537 12.0877 1.62616 12.935 2.3456 13.6544C3.06503 14.3738 3.90933 14.9446 4.87849 15.3668ZM5.36892 4.66213C6.10487 4.07986 7.08778 3.76225 8.12966 3.81519C8.49825 3.81519 8.8054 3.86812 9.29686 3.97399C10.8302 4.34347 11.7517 5.77162 11.3216 7.09391C11.0145 7.88686 10.4014 8.46808 9.54258 8.83861C8.8054 9.20809 8.55968 9.36689 8.55968 9.89623C8.55968 10.3197 8.13089 10.6902 7.64066 10.6902C7.14921 10.6902 6.71919 10.3197 6.71919 9.89623C6.71919 8.46913 7.82373 7.83499 8.55968 7.46445C8.62452 7.42254 8.68616 7.3834 8.74459 7.3463C9.12898 7.10219 9.3745 6.94628 9.48115 6.6715C9.54258 6.40683 9.48115 6.08923 9.29686 5.82456C8.99093 5.55989 8.56091 5.40109 8.13089 5.45402C7.64066 5.40109 7.14921 5.55989 6.71919 5.82456C6.53489 5.9823 6.41326 6.19404 6.41326 6.45871C6.41326 6.88218 5.98324 7.25271 5.49179 7.25271C5.00033 7.25271 4.57031 6.88218 4.57031 6.45871C4.57031 5.77162 4.81604 5.13748 5.36892 4.66213ZM6.71365 12.4335C6.67032 12.3325 6.6513 12.2249 6.65776 12.1173C6.66995 11.9141 6.77222 11.7227 6.94346 11.5826C7.11471 11.4424 7.34185 11.3643 7.578 11.3643C7.81416 11.3643 8.0413 11.4424 8.21254 11.5826C8.38378 11.7227 8.48606 11.9141 8.49825 12.1173C8.5047 12.2249 8.48568 12.3325 8.44235 12.4335C8.39902 12.5346 8.33228 12.627 8.24619 12.7051C8.1601 12.7832 8.05647 12.8454 7.9416 12.8879C7.82673 12.9304 7.70302 12.9523 7.578 12.9523C7.45299 12.9523 7.32928 12.9304 7.21441 12.8879C7.09954 12.8454 6.9959 12.7832 6.90982 12.7051C6.82373 12.627 6.75699 12.5346 6.71365 12.4335Z" fill="#D6D6D6"/>
</svg>
