<svg width="24" height="24" viewBox="0 0 24 24" fill="none" xmlns="http://www.w3.org/2000/svg">
<g clip-path="url(#clip0_1009_1334)">
<path d="M12.0033 0.509033C18.3528 0.509033 23.4988 5.65507 23.4988 12.0045C23.4988 18.354 18.3528 23.5001 12.0033 23.5001C5.65385 23.5001 0.507812 18.354 0.507812 12.0045C0.507812 5.65507 5.65609 0.509033 12.0033 0.509033Z" fill="white"/>
<path d="M12.0048 3.80713V15.2622L17.0385 12.2447L12.0048 3.80713ZM12.0048 20.2017L17.0385 12.9743L12.0048 16.0189V20.2017ZM12.0048 3.80713V15.2622L6.96875 12.2447L12.0048 3.80713Z" fill="black"/>
<path d="M12.0048 16.0189V20.2017L6.96875 12.9744L12.0048 16.0189Z" fill="#050505"/>
</g>
<defs>
<clipPath id="clip0_1009_1334">
<rect width="23" height="23" fill="white" transform="translate(0.5 0.5)"/>
</clipPath>
</defs>
</svg>
