<svg width="197" height="34" viewBox="0 0 197 34" fill="none" xmlns="http://www.w3.org/2000/svg">
<path d="M45.9182 11.5405C45.8274 11.2944 45.7746 11.0359 45.7617 10.774C45.7747 10.2904 45.9604 9.82717 46.2856 9.46749C46.6108 9.1078 47.0542 8.87517 47.5362 8.81132C48.0183 8.74748 48.5074 8.8566 48.9159 9.1191C49.3244 9.38161 49.6255 9.78032 49.7652 10.2437L53.3804 21.5982L57.0188 10.3532C57.1283 9.8982 57.3872 9.49247 57.7544 9.20019C58.1217 8.90791 58.5764 8.74577 59.0466 8.73939H59.3595C59.8311 8.74069 60.2884 8.90097 60.6566 9.19407C61.0249 9.48716 61.2825 9.89577 61.3873 10.3532L65.0315 21.5982L68.641 10.2437C68.7613 9.82656 69.0144 9.45949 69.3623 9.1976C69.7102 8.93571 70.134 8.79313 70.5703 8.79126C70.8301 8.78818 71.0879 8.83672 71.3286 8.93404C71.5693 9.03136 71.7881 9.17551 71.9721 9.35802C72.1561 9.54053 72.3016 9.75774 72.4002 9.99692C72.4987 10.2361 72.5482 10.4924 72.5459 10.7509C72.5303 11.02 72.4776 11.2857 72.3895 11.5405L67.291 26.0939C67.1716 26.5582 66.9046 26.9717 66.5298 27.2729C66.155 27.574 65.6925 27.7468 65.2111 27.7653H64.794C64.314 27.7529 63.8519 27.5819 63.4806 27.2793C63.1092 26.9766 62.8497 26.5595 62.743 26.0939L59.1509 15.4829L55.5646 26.0939C55.4559 26.5595 55.195 26.9762 54.8229 27.2786C54.4507 27.5811 53.9882 27.7522 53.5079 27.7653H53.0907C52.6093 27.7468 52.1468 27.574 51.772 27.2729C51.3972 26.9717 51.1303 26.5582 51.0108 26.0939L45.9182 11.5405ZM73.3512 20.457V20.4109C73.3478 19.4269 73.5392 18.4519 73.9146 17.5415C74.2899 16.6311 74.8418 15.8032 75.5388 15.1051C76.2358 14.4069 77.0641 13.8521 77.9766 13.4724C78.8891 13.0927 79.8679 12.8955 80.8569 12.8921C81.846 12.8887 82.8261 13.0792 83.7412 13.4526C84.6563 13.826 85.4885 14.375 86.1904 15.0684C86.8922 15.7617 87.4498 16.5858 87.8315 17.4936C88.2132 18.4014 88.4114 19.375 88.4148 20.359V20.4109C88.4217 22.3981 87.6348 24.3066 86.2272 25.7167C85.5303 26.4148 84.7019 26.9696 83.7894 27.3493C82.8769 27.729 81.8982 27.9262 80.9091 27.9296C78.9115 27.9365 76.993 27.1537 75.5757 25.7533C74.1583 24.353 73.3582 22.4499 73.3512 20.4627V20.457ZM84.533 20.457V20.4109C84.533 18.3244 83.0499 16.4973 80.8656 16.4973C78.6814 16.4973 77.2504 18.2668 77.2504 20.359V20.4109C77.2504 22.5031 78.7336 24.3302 80.9178 24.3302C83.102 24.3302 84.533 22.5492 84.533 20.457ZM91.2943 15.1429C91.2943 14.6216 91.5024 14.1217 91.8729 13.7531C92.2434 13.3845 92.7459 13.1774 93.2699 13.1774C93.7939 13.1774 94.2964 13.3845 94.6669 13.7531C95.0374 14.1217 95.2456 14.6216 95.2456 15.1429V15.7999C95.8249 14.4224 96.7519 13.1544 97.9222 13.1544C98.1824 13.1387 98.443 13.1787 98.6863 13.2719C98.9296 13.3651 99.1499 13.5093 99.3323 13.6945C99.5147 13.8798 99.655 14.102 99.7435 14.3459C99.8321 14.5898 99.867 14.8498 99.8457 15.1083C99.8654 15.5453 99.7273 15.975 99.4564 16.3196C99.1854 16.6642 98.7995 16.901 98.3684 16.9872C96.3637 17.4656 95.2456 19.0276 95.2456 21.8864V25.5982C95.2456 26.1194 95.0374 26.6194 94.6669 26.9879C94.2964 27.3565 93.7939 27.5636 93.2699 27.5636C92.7459 27.5636 92.2434 27.3565 91.8729 26.9879C91.5024 26.6194 91.2943 26.1194 91.2943 25.5982V15.1429ZM102.163 15.1429C102.163 14.6216 102.371 14.1217 102.742 13.7531C103.112 13.3845 103.615 13.1774 104.139 13.1774C104.663 13.1774 105.165 13.3845 105.536 13.7531C105.906 14.1217 106.115 14.6216 106.115 15.1429V15.2985C107.024 14.1112 108.223 13.0218 110.222 13.0218C111.026 12.9784 111.825 13.1683 112.523 13.5684C113.22 13.9685 113.785 14.5615 114.15 15.2754C114.684 14.5709 115.376 14.0003 116.17 13.609C116.965 13.2177 117.841 13.0167 118.727 13.0218C121.665 13.0218 123.432 14.8258 123.432 18.2091V25.5982C123.432 26.1194 123.224 26.6194 122.853 26.9879C122.483 27.3565 121.98 27.5636 121.456 27.5636C120.932 27.5636 120.43 27.3565 120.059 26.9879C119.689 26.6194 119.481 26.1194 119.481 25.5982V19.5578C119.481 17.6558 118.652 16.676 117.163 16.676C115.674 16.676 114.77 17.6558 114.77 19.5578V25.5982C114.77 26.1194 114.562 26.6194 114.192 26.9879C113.821 27.3565 113.319 27.5636 112.795 27.5636C112.271 27.5636 111.768 27.3565 111.398 26.9879C111.027 26.6194 110.819 26.1194 110.819 25.5982V19.5578C110.819 17.6558 109.985 16.676 108.502 16.676C107.018 16.676 106.109 17.6558 106.109 19.5578V25.5982C106.109 26.1194 105.901 26.6194 105.53 26.9879C105.16 27.3565 104.657 27.5636 104.133 27.5636C103.609 27.5636 103.107 27.3565 102.736 26.9879C102.366 26.6194 102.157 26.1194 102.157 25.5982L102.163 15.1429ZM126.867 10.0362C126.867 9.51496 127.076 9.01504 127.446 8.64646C127.817 8.27787 128.319 8.0708 128.843 8.0708C129.367 8.0708 129.87 8.27787 130.24 8.64646C130.611 9.01504 130.819 9.51496 130.819 10.0362V15.3273C131.728 14.14 132.899 13.0506 134.903 13.0506C137.893 13.0506 139.637 15.0622 139.637 18.3186V25.5982C139.637 26.1194 139.429 26.6194 139.058 26.9879C138.688 27.3565 138.185 27.5636 137.661 27.5636C137.137 27.5636 136.635 27.3565 136.264 26.9879C135.894 26.6194 135.685 26.1194 135.685 25.5982V19.5578C135.685 17.6558 134.799 16.676 133.293 16.676C131.786 16.676 130.819 17.6558 130.819 19.5578V25.5982C130.819 26.1194 130.611 26.6194 130.24 26.9879C129.87 27.3565 129.367 27.5636 128.843 27.5636C128.319 27.5636 127.817 27.3565 127.446 26.9879C127.076 26.6194 126.867 26.1194 126.867 25.5982V10.0362ZM142.395 20.4858V20.4109C142.391 19.4269 142.583 18.4519 142.958 17.5415C143.333 16.6311 143.885 15.8032 144.582 15.1051C145.279 14.4069 146.107 13.8521 147.02 13.4724C147.932 13.0927 148.911 12.8955 149.9 12.8921C150.889 12.8887 151.869 13.0792 152.785 13.4526C153.7 13.826 154.532 14.375 155.234 15.0684C155.935 15.7617 156.493 16.5858 156.875 17.4936C157.257 18.4014 157.455 19.375 157.458 20.359V20.4109C157.462 21.3948 157.27 22.3698 156.895 23.2802C156.519 24.1906 155.968 25.0185 155.271 25.7167C153.863 27.1267 151.95 27.9227 149.952 27.9296C147.955 27.9365 146.036 27.1537 144.619 25.7533C143.202 24.353 142.401 22.4499 142.395 20.4627V20.4858ZM153.576 20.4858V20.4109C153.576 18.3244 152.093 16.4973 149.909 16.4973C147.725 16.4973 146.294 18.2668 146.294 20.359V20.4109C146.294 22.5031 147.777 24.3302 149.961 24.3302C152.145 24.3302 153.576 22.5492 153.576 20.457V20.4858ZM160.529 10.0362C160.529 9.51496 160.737 9.01504 161.107 8.64646C161.478 8.27787 161.98 8.0708 162.504 8.0708C163.028 8.0708 163.531 8.27787 163.901 8.64646C164.272 9.01504 164.48 9.51496 164.48 10.0362V25.5982C164.48 26.1194 164.272 26.6194 163.901 26.9879C163.531 27.3565 163.028 27.5636 162.504 27.5636C161.98 27.5636 161.478 27.3565 161.107 26.9879C160.737 26.6194 160.529 26.1194 160.529 25.5982V10.0362ZM174.804 27.8172C170.616 27.8172 167.522 24.8259 167.522 20.4858V20.4109C167.522 16.3763 170.361 13.0276 174.416 13.0276C179.051 13.0276 181.125 16.9181 181.125 19.8575C181.141 20.1074 181.105 20.3579 181.019 20.5933C180.933 20.8286 180.799 21.0437 180.626 21.225C180.452 21.4064 180.243 21.55 180.011 21.647C179.779 21.7439 179.529 21.7921 179.277 21.7884H171.438C171.552 22.5924 171.965 23.3244 172.596 23.8391C173.228 24.3538 174.03 24.6135 174.845 24.5665C175.863 24.5737 176.853 24.2386 177.655 23.6155C177.926 23.3971 178.268 23.2845 178.617 23.2985C178.823 23.2975 179.028 23.3383 179.219 23.4183C179.409 23.4984 179.582 23.6161 179.725 23.7642C179.869 23.9124 179.98 24.088 180.054 24.2804C180.127 24.4727 180.161 24.6779 180.152 24.8835C180.153 25.1075 180.108 25.3294 180.018 25.5348C179.928 25.7403 179.796 25.9248 179.631 26.0766C178.287 27.2239 176.563 27.834 174.793 27.7884L174.804 27.8172ZM177.354 19.2985C177.122 17.5002 176.079 16.2783 174.416 16.2783C172.753 16.2783 171.711 17.4714 171.398 19.2985H177.354ZM184.428 25.7019C184.221 25.5176 184.054 25.2932 183.938 25.0424C183.821 24.7917 183.757 24.5199 183.75 24.2437C183.753 23.7333 183.955 23.244 184.314 22.8794C184.673 22.5147 185.16 22.3033 185.673 22.2898C186.147 22.2912 186.602 22.4703 186.948 22.7913C187.913 23.6892 189.19 24.1825 190.511 24.1688C192.017 24.1688 193.083 23.2927 193.083 21.9152V21.8633C193.083 20.3532 191.757 19.5117 189.52 19.5117H188.9C188.439 19.5117 187.997 19.3296 187.671 19.0053C187.345 18.681 187.162 18.2412 187.162 17.7826C187.179 17.4598 187.265 17.1441 187.412 16.8562C187.56 16.5682 187.767 16.3144 188.02 16.1111L191.554 12.4858H185.963C185.497 12.4858 185.051 12.3018 184.722 11.9743C184.393 11.6468 184.208 11.2026 184.208 10.7394C184.208 10.2762 184.393 9.83202 184.722 9.5045C185.051 9.17699 185.497 8.99299 185.963 8.99299H194.845C196.003 8.99299 196.873 9.68464 196.873 10.797C196.873 11.7999 196.403 12.3532 195.673 13.0679L192.11 16.5261C194.584 16.9469 197 18.2552 197 21.7135V21.7653C197 25.2581 194.503 27.823 190.447 27.823C188.236 27.8885 186.082 27.1206 184.416 25.6731L184.428 25.7019Z" fill="#8C8B95"/>
<path d="M28.5081 5.64265C26.2494 3.39466 23.3712 1.86355 20.2377 1.24297C17.1042 0.622392 13.8561 0.940226 10.9041 2.15626C7.9522 3.3723 5.42908 5.43192 3.65388 8.07463C1.87869 10.7173 0.931174 13.8244 0.931174 17.0029C0.931174 20.1814 1.87869 23.2884 3.65388 25.9311C5.42908 28.5739 7.9522 30.6335 10.9041 31.8495C13.8561 33.0655 17.1042 33.3834 20.2377 32.7628C23.3712 32.1422 26.2494 30.6111 28.5081 28.3631C31.5359 25.3498 33.2368 21.2635 33.2368 17.0029C33.2368 12.7422 31.5359 8.65601 28.5081 5.64265ZM20.4665 20.3631C19.7986 21.0268 18.9479 21.4785 18.022 21.6613C17.0961 21.8441 16.1365 21.7497 15.2645 21.3901C14.3925 21.0305 13.6472 20.4218 13.1229 19.6409C12.5986 18.86 12.3188 17.942 12.3188 17.0029C12.3188 16.0638 12.5986 15.1458 13.1229 14.3649C13.6472 13.584 14.3925 12.9753 15.2645 12.6157C16.1365 12.256 17.0961 12.1617 18.022 12.3445C18.9479 12.5272 19.7986 12.979 20.4665 13.6427C20.9104 14.0837 21.2625 14.6075 21.5028 15.1841C21.7431 15.7607 21.8667 16.3787 21.8667 17.0029C21.8667 17.627 21.7431 18.2451 21.5028 18.8216C21.2625 19.3982 20.9104 19.922 20.4665 20.3631ZM33.4559 29.8213C33.1119 29.4779 32.6732 29.2438 32.1953 29.1486C31.7174 29.0534 31.2219 29.1014 30.7715 29.2865C30.321 29.4717 29.936 29.7856 29.665 30.1887C29.3941 30.5917 29.2495 31.0656 29.2495 31.5504C29.2495 32.0353 29.3941 32.5092 29.665 32.9122C29.936 33.3152 30.321 33.6292 30.7715 33.8144C31.2219 33.9995 31.7174 34.0475 32.1953 33.9523C32.6732 33.8571 33.1119 33.623 33.4559 33.2795C33.9158 32.8204 34.1741 32.1986 34.1741 31.5504C34.1741 30.9022 33.9158 30.2805 33.4559 29.8213ZM0.715812 4.18444C1.06018 4.52982 1.49992 4.76565 1.97923 4.86201C2.45854 4.95837 2.95582 4.91092 3.40798 4.72567C3.86014 4.54042 4.24678 4.22572 4.51887 3.82151C4.79096 3.4173 4.93622 2.9418 4.93622 2.45533C4.93622 1.96886 4.79096 1.49335 4.51887 1.08914C4.24678 0.684934 3.86014 0.370245 3.40798 0.184996C2.95582 -0.000253459 2.45854 -0.0477084 1.97923 0.0486519C1.49992 0.145012 1.06018 0.38084 0.715812 0.726221C0.257287 1.1861 0 1.80759 0 2.45533C0 3.10306 0.257287 3.72456 0.715812 4.18444Z" fill="url(#paint0_linear_522_531)"/>
<path d="M45.9182 11.5405C45.8274 11.2944 45.7746 11.0359 45.7617 10.774C45.7747 10.2904 45.9604 9.82717 46.2856 9.46749C46.6108 9.1078 47.0542 8.87517 47.5362 8.81132C48.0183 8.74748 48.5074 8.8566 48.9159 9.1191C49.3244 9.38161 49.6255 9.78032 49.7652 10.2437L53.3804 21.5982L57.0188 10.3532C57.1283 9.8982 57.3872 9.49247 57.7544 9.20019C58.1217 8.90791 58.5764 8.74577 59.0466 8.73939H59.3595C59.8311 8.74069 60.2884 8.90097 60.6566 9.19407C61.0249 9.48716 61.2825 9.89577 61.3873 10.3532L65.0315 21.5982L68.641 10.2437C68.7613 9.82656 69.0144 9.45949 69.3623 9.1976C69.7102 8.93571 70.134 8.79313 70.5703 8.79126C70.8301 8.78818 71.0879 8.83672 71.3286 8.93404C71.5693 9.03136 71.7881 9.17551 71.9721 9.35802C72.1561 9.54053 72.3016 9.75774 72.4002 9.99692C72.4987 10.2361 72.5482 10.4924 72.5459 10.7509C72.5303 11.02 72.4776 11.2857 72.3895 11.5405L67.291 26.0939C67.1716 26.5582 66.9046 26.9717 66.5298 27.2729C66.155 27.574 65.6925 27.7468 65.2111 27.7653H64.794C64.314 27.7529 63.8519 27.5819 63.4806 27.2793C63.1092 26.9766 62.8497 26.5595 62.743 26.0939L59.1509 15.4829L55.5646 26.0939C55.4559 26.5595 55.195 26.9762 54.8229 27.2786C54.4507 27.5811 53.9882 27.7522 53.5079 27.7653H53.0907C52.6093 27.7468 52.1468 27.574 51.772 27.2729C51.3972 26.9717 51.1303 26.5582 51.0108 26.0939L45.9182 11.5405ZM73.3512 20.457V20.4109C73.3478 19.4269 73.5392 18.4519 73.9146 17.5415C74.2899 16.6311 74.8418 15.8032 75.5388 15.1051C76.2358 14.4069 77.0641 13.8521 77.9766 13.4724C78.8891 13.0927 79.8679 12.8955 80.8569 12.8921C81.846 12.8887 82.8261 13.0792 83.7412 13.4526C84.6563 13.826 85.4885 14.375 86.1904 15.0684C86.8922 15.7617 87.4498 16.5858 87.8315 17.4936C88.2132 18.4014 88.4114 19.375 88.4148 20.359V20.4109C88.4217 22.3981 87.6348 24.3066 86.2272 25.7167C85.5303 26.4148 84.7019 26.9696 83.7894 27.3493C82.8769 27.729 81.8982 27.9262 80.9091 27.9296C78.9115 27.9365 76.993 27.1537 75.5757 25.7533C74.1583 24.353 73.3582 22.4499 73.3512 20.4627V20.457ZM84.533 20.457V20.4109C84.533 18.3244 83.0499 16.4973 80.8656 16.4973C78.6814 16.4973 77.2504 18.2668 77.2504 20.359V20.4109C77.2504 22.5031 78.7336 24.3302 80.9178 24.3302C83.102 24.3302 84.533 22.5492 84.533 20.457ZM91.2943 15.1429C91.2943 14.6216 91.5024 14.1217 91.8729 13.7531C92.2434 13.3845 92.7459 13.1774 93.2699 13.1774C93.7939 13.1774 94.2964 13.3845 94.6669 13.7531C95.0374 14.1217 95.2456 14.6216 95.2456 15.1429V15.7999C95.8249 14.4224 96.7519 13.1544 97.9222 13.1544C98.1824 13.1387 98.443 13.1787 98.6863 13.2719C98.9296 13.3651 99.1499 13.5093 99.3323 13.6945C99.5147 13.8798 99.655 14.102 99.7435 14.3459C99.8321 14.5898 99.867 14.8498 99.8457 15.1083C99.8654 15.5453 99.7273 15.975 99.4564 16.3196C99.1854 16.6642 98.7995 16.901 98.3684 16.9872C96.3637 17.4656 95.2456 19.0276 95.2456 21.8864V25.5982C95.2456 26.1194 95.0374 26.6194 94.6669 26.9879C94.2964 27.3565 93.7939 27.5636 93.2699 27.5636C92.7459 27.5636 92.2434 27.3565 91.8729 26.9879C91.5024 26.6194 91.2943 26.1194 91.2943 25.5982V15.1429ZM102.163 15.1429C102.163 14.6216 102.371 14.1217 102.742 13.7531C103.112 13.3845 103.615 13.1774 104.139 13.1774C104.663 13.1774 105.165 13.3845 105.536 13.7531C105.906 14.1217 106.115 14.6216 106.115 15.1429V15.2985C107.024 14.1112 108.223 13.0218 110.222 13.0218C111.026 12.9784 111.825 13.1683 112.523 13.5684C113.22 13.9685 113.785 14.5615 114.15 15.2754C114.684 14.5709 115.376 14.0003 116.17 13.609C116.965 13.2177 117.841 13.0167 118.727 13.0218C121.665 13.0218 123.432 14.8258 123.432 18.2091V25.5982C123.432 26.1194 123.224 26.6194 122.853 26.9879C122.483 27.3565 121.98 27.5636 121.456 27.5636C120.932 27.5636 120.43 27.3565 120.059 26.9879C119.689 26.6194 119.481 26.1194 119.481 25.5982V19.5578C119.481 17.6558 118.652 16.676 117.163 16.676C115.674 16.676 114.77 17.6558 114.77 19.5578V25.5982C114.77 26.1194 114.562 26.6194 114.192 26.9879C113.821 27.3565 113.319 27.5636 112.795 27.5636C112.271 27.5636 111.768 27.3565 111.398 26.9879C111.027 26.6194 110.819 26.1194 110.819 25.5982V19.5578C110.819 17.6558 109.985 16.676 108.502 16.676C107.018 16.676 106.109 17.6558 106.109 19.5578V25.5982C106.109 26.1194 105.901 26.6194 105.53 26.9879C105.16 27.3565 104.657 27.5636 104.133 27.5636C103.609 27.5636 103.107 27.3565 102.736 26.9879C102.366 26.6194 102.157 26.1194 102.157 25.5982L102.163 15.1429ZM126.867 10.0362C126.867 9.51496 127.076 9.01504 127.446 8.64646C127.817 8.27787 128.319 8.0708 128.843 8.0708C129.367 8.0708 129.87 8.27787 130.24 8.64646C130.611 9.01504 130.819 9.51496 130.819 10.0362V15.3273C131.728 14.14 132.899 13.0506 134.903 13.0506C137.893 13.0506 139.637 15.0622 139.637 18.3186V25.5982C139.637 26.1194 139.429 26.6194 139.058 26.9879C138.688 27.3565 138.185 27.5636 137.661 27.5636C137.137 27.5636 136.635 27.3565 136.264 26.9879C135.894 26.6194 135.685 26.1194 135.685 25.5982V19.5578C135.685 17.6558 134.799 16.676 133.293 16.676C131.786 16.676 130.819 17.6558 130.819 19.5578V25.5982C130.819 26.1194 130.611 26.6194 130.24 26.9879C129.87 27.3565 129.367 27.5636 128.843 27.5636C128.319 27.5636 127.817 27.3565 127.446 26.9879C127.076 26.6194 126.867 26.1194 126.867 25.5982V10.0362ZM142.395 20.4858V20.4109C142.391 19.4269 142.583 18.4519 142.958 17.5415C143.333 16.6311 143.885 15.8032 144.582 15.1051C145.279 14.4069 146.107 13.8521 147.02 13.4724C147.932 13.0927 148.911 12.8955 149.9 12.8921C150.889 12.8887 151.869 13.0792 152.785 13.4526C153.7 13.826 154.532 14.375 155.234 15.0684C155.935 15.7617 156.493 16.5858 156.875 17.4936C157.257 18.4014 157.455 19.375 157.458 20.359V20.4109C157.462 21.3948 157.27 22.3698 156.895 23.2802C156.519 24.1906 155.968 25.0185 155.271 25.7167C153.863 27.1267 151.95 27.9227 149.952 27.9296C147.955 27.9365 146.036 27.1537 144.619 25.7533C143.202 24.353 142.401 22.4499 142.395 20.4627V20.4858ZM153.576 20.4858V20.4109C153.576 18.3244 152.093 16.4973 149.909 16.4973C147.725 16.4973 146.294 18.2668 146.294 20.359V20.4109C146.294 22.5031 147.777 24.3302 149.961 24.3302C152.145 24.3302 153.576 22.5492 153.576 20.457V20.4858ZM160.529 10.0362C160.529 9.51496 160.737 9.01504 161.107 8.64646C161.478 8.27787 161.98 8.0708 162.504 8.0708C163.028 8.0708 163.531 8.27787 163.901 8.64646C164.272 9.01504 164.48 9.51496 164.48 10.0362V25.5982C164.48 26.1194 164.272 26.6194 163.901 26.9879C163.531 27.3565 163.028 27.5636 162.504 27.5636C161.98 27.5636 161.478 27.3565 161.107 26.9879C160.737 26.6194 160.529 26.1194 160.529 25.5982V10.0362ZM174.804 27.8172C170.616 27.8172 167.522 24.8259 167.522 20.4858V20.4109C167.522 16.3763 170.361 13.0276 174.416 13.0276C179.051 13.0276 181.125 16.9181 181.125 19.8575C181.141 20.1074 181.105 20.3579 181.019 20.5933C180.933 20.8286 180.799 21.0437 180.626 21.225C180.452 21.4064 180.243 21.55 180.011 21.647C179.779 21.7439 179.529 21.7921 179.277 21.7884H171.438C171.552 22.5924 171.965 23.3244 172.596 23.8391C173.228 24.3538 174.03 24.6135 174.845 24.5665C175.863 24.5737 176.853 24.2386 177.655 23.6155C177.926 23.3971 178.268 23.2845 178.617 23.2985C178.823 23.2975 179.028 23.3383 179.219 23.4183C179.409 23.4984 179.582 23.6161 179.725 23.7642C179.869 23.9124 179.98 24.088 180.054 24.2804C180.127 24.4727 180.161 24.6779 180.152 24.8835C180.153 25.1075 180.108 25.3294 180.018 25.5348C179.928 25.7403 179.796 25.9248 179.631 26.0766C178.287 27.2239 176.563 27.834 174.793 27.7884L174.804 27.8172ZM177.354 19.2985C177.122 17.5002 176.079 16.2783 174.416 16.2783C172.753 16.2783 171.711 17.4714 171.398 19.2985H177.354ZM184.428 25.7019C184.221 25.5176 184.054 25.2932 183.938 25.0424C183.821 24.7917 183.757 24.5199 183.75 24.2437C183.753 23.7333 183.955 23.244 184.314 22.8794C184.673 22.5147 185.16 22.3033 185.673 22.2898C186.147 22.2912 186.602 22.4703 186.948 22.7913C187.913 23.6892 189.19 24.1825 190.511 24.1688C192.017 24.1688 193.083 23.2927 193.083 21.9152V21.8633C193.083 20.3532 191.757 19.5117 189.52 19.5117H188.9C188.439 19.5117 187.997 19.3296 187.671 19.0053C187.345 18.681 187.162 18.2412 187.162 17.7826C187.179 17.4598 187.265 17.1441 187.412 16.8562C187.56 16.5682 187.767 16.3144 188.02 16.1111L191.554 12.4858H185.963C185.497 12.4858 185.051 12.3018 184.722 11.9743C184.393 11.6468 184.208 11.2026 184.208 10.7394C184.208 10.2762 184.393 9.83202 184.722 9.5045C185.051 9.17699 185.497 8.99299 185.963 8.99299H194.845C196.003 8.99299 196.873 9.68464 196.873 10.797C196.873 11.7999 196.403 12.3532 195.673 13.0679L192.11 16.5261C194.584 16.9469 197 18.2552 197 21.7135V21.7653C197 25.2581 194.503 27.823 190.447 27.823C188.236 27.8885 186.082 27.1206 184.416 25.6731L184.428 25.7019Z" fill="url(#paint1_linear_522_531)"/>
<path d="M28.5081 5.64265C26.2494 3.39466 23.3712 1.86355 20.2377 1.24297C17.1042 0.622392 13.8561 0.940226 10.9041 2.15626C7.9522 3.3723 5.42908 5.43192 3.65388 8.07463C1.87869 10.7173 0.931174 13.8244 0.931174 17.0029C0.931174 20.1814 1.87869 23.2884 3.65388 25.9311C5.42908 28.5739 7.9522 30.6335 10.9041 31.8495C13.8561 33.0655 17.1042 33.3834 20.2377 32.7628C23.3712 32.1422 26.2494 30.6111 28.5081 28.3631C31.5359 25.3498 33.2368 21.2635 33.2368 17.0029C33.2368 12.7422 31.5359 8.65601 28.5081 5.64265ZM20.4665 20.3631C19.7986 21.0268 18.9479 21.4785 18.022 21.6613C17.0961 21.8441 16.1365 21.7497 15.2645 21.3901C14.3925 21.0305 13.6472 20.4218 13.1229 19.6409C12.5986 18.86 12.3188 17.942 12.3188 17.0029C12.3188 16.0638 12.5986 15.1458 13.1229 14.3649C13.6472 13.584 14.3925 12.9753 15.2645 12.6157C16.1365 12.256 17.0961 12.1617 18.022 12.3445C18.9479 12.5272 19.7986 12.979 20.4665 13.6427C20.9104 14.0837 21.2625 14.6075 21.5028 15.1841C21.7431 15.7607 21.8667 16.3787 21.8667 17.0029C21.8667 17.627 21.7431 18.2451 21.5028 18.8216C21.2625 19.3982 20.9104 19.922 20.4665 20.3631ZM33.4559 29.8213C33.1119 29.4779 32.6732 29.2438 32.1953 29.1486C31.7174 29.0534 31.2219 29.1014 30.7715 29.2865C30.321 29.4717 29.936 29.7856 29.665 30.1887C29.3941 30.5917 29.2495 31.0656 29.2495 31.5504C29.2495 32.0353 29.3941 32.5092 29.665 32.9122C29.936 33.3152 30.321 33.6292 30.7715 33.8144C31.2219 33.9995 31.7174 34.0475 32.1953 33.9523C32.6732 33.8571 33.1119 33.623 33.4559 33.2795C33.9158 32.8204 34.1741 32.1986 34.1741 31.5504C34.1741 30.9022 33.9158 30.2805 33.4559 29.8213ZM0.715812 4.18444C1.06018 4.52982 1.49992 4.76565 1.97923 4.86201C2.45854 4.95837 2.95582 4.91092 3.40798 4.72567C3.86014 4.54042 4.24678 4.22572 4.51887 3.82151C4.79096 3.4173 4.93622 2.9418 4.93622 2.45533C4.93622 1.96886 4.79096 1.49335 4.51887 1.08914C4.24678 0.684934 3.86014 0.370245 3.40798 0.184996C2.95582 -0.000253459 2.45854 -0.0477084 1.97923 0.0486519C1.49992 0.145012 1.06018 0.38084 0.715812 0.726221C0.257287 1.1861 0 1.80759 0 2.45533C0 3.10306 0.257287 3.72456 0.715812 4.18444Z" fill="url(#paint2_linear_522_531)"/>
<defs>
<linearGradient id="paint0_linear_522_531" x1="-2.35484" y1="5.83862" x2="36.4254" y2="28.3415" gradientUnits="userSpaceOnUse">
<stop stop-color="#BD00FF"/>
<stop offset="0.215512" stop-color="#881EE7"/>
<stop offset="0.799851" stop-color="#3700D3"/>
</linearGradient>
<linearGradient id="paint1_linear_522_531" x1="0.667139" y1="-0.86566" x2="163.118" y2="150.714" gradientUnits="userSpaceOnUse">
<stop stop-color="#AE88FE"/>
<stop offset="0.484375" stop-color="#923CFF"/>
<stop offset="1" stop-color="#00B2FF"/>
</linearGradient>
<linearGradient id="paint2_linear_522_531" x1="-10.1897" y1="-15.3" x2="57.4513" y2="-6.97006" gradientUnits="userSpaceOnUse">
<stop stop-color="#AE88FE"/>
<stop offset="0.484375" stop-color="#923CFF"/>
<stop offset="1" stop-color="#00B2FF"/>
</linearGradient>
</defs>
</svg>
