<svg width="11" height="10" viewBox="0 0 11 10" fill="none" xmlns="http://www.w3.org/2000/svg">
<path d="M5.41032 0.160039C4.64035 0.160038 3.88148 0.343738 3.19675 0.695885C2.51202 1.04803 1.92119 1.55846 1.47332 2.18478C1.02545 2.8111 0.733475 3.53524 0.621639 4.29705C0.509803 5.05886 0.581335 5.83636 0.830294 6.56498C1.07925 7.29359 1.49846 7.9523 2.05308 8.48638C2.60771 9.02047 3.28176 9.41453 4.01925 9.63583C4.75674 9.85713 5.53638 9.89928 6.29343 9.75879C7.05048 9.6183 7.76309 9.29921 8.37207 8.82804C8.4195 8.79329 8.45948 8.7494 8.48966 8.69895C8.51984 8.64849 8.5396 8.5925 8.54778 8.53428C8.55596 8.47606 8.55238 8.41679 8.53727 8.35997C8.52215 8.30316 8.49581 8.24995 8.45978 8.20349C8.42376 8.15702 8.37879 8.11825 8.32753 8.08946C8.27627 8.06067 8.21976 8.04244 8.16134 8.03585C8.10292 8.02927 8.04377 8.03446 7.98739 8.05112C7.93101 8.06777 7.87853 8.09556 7.83307 8.13284C7.24063 8.59095 6.53042 8.87168 5.78487 8.94245C5.03931 9.01321 4.28898 8.87111 3.62092 8.53264C2.95287 8.19417 2.39449 7.67319 2.01058 7.03017C1.62667 6.38716 1.43297 5.64845 1.45195 4.89979C1.47094 4.15112 1.70183 3.42319 2.11783 2.80045C2.53384 2.17772 3.1179 1.68571 3.80225 1.38153C4.4866 1.07735 5.24317 0.973457 5.98418 1.08192C6.72519 1.19038 7.42026 1.50674 7.98872 1.99429C8.03243 2.03281 8.08336 2.06228 8.13855 2.08096C8.19374 2.09964 8.25209 2.10718 8.31022 2.10313C8.36835 2.09908 8.42509 2.08353 8.47716 2.05738C8.52922 2.03122 8.57558 1.99498 8.61353 1.95077C8.65148 1.90656 8.68027 1.85525 8.69823 1.79982C8.71619 1.74439 8.72296 1.68594 8.71815 1.62787C8.71334 1.5698 8.69704 1.51327 8.67021 1.46155C8.64337 1.40983 8.60653 1.36396 8.56182 1.32659C7.68519 0.572416 6.56672 0.158405 5.41032 0.160039ZM9.03207 3.01014C8.95067 2.95417 8.85188 2.92926 8.75368 2.93996C8.65547 2.95066 8.56436 2.99625 8.49692 3.06844L8.45842 3.11629C8.40245 3.19769 8.37755 3.29648 8.38825 3.39468C8.39894 3.49289 8.44453 3.584 8.51672 3.65144L9.51992 4.58699L6.49327 4.58754C6.38881 4.58771 6.2883 4.62751 6.21203 4.6989C6.13577 4.7703 6.08944 4.86797 6.08239 4.9722C6.07533 5.07642 6.10809 5.17945 6.17404 5.26046C6.24 5.34148 6.33423 5.39445 6.43772 5.40869L6.49327 5.41254L9.33237 5.41199L8.50682 6.23864L8.46667 6.28484C8.40526 6.36855 8.37768 6.47235 8.38943 6.5755C8.40118 6.67866 8.4514 6.77359 8.53006 6.84135C8.60872 6.90911 8.71004 6.94472 8.8138 6.94106C8.91756 6.93741 9.01612 6.89476 9.08982 6.82164L10.7349 5.17714L10.7756 5.12929C10.8354 5.04792 10.8633 4.94743 10.8539 4.84687C10.8446 4.74631 10.7987 4.65267 10.725 4.58369L9.07992 3.04864L9.03207 3.01014Z" fill="white"/>
</svg>
