<svg width="11" height="12" viewBox="0 0 11 12" fill="none" xmlns="http://www.w3.org/2000/svg">
<g clip-path="url(#clip0_2581_2522)">
<path d="M5.49916 0.633118C4.43316 0.633118 3.3911 0.949223 2.50476 1.54146C1.61841 2.1337 0.927589 2.97546 0.51965 3.96032C0.11171 4.94517 0.00497472 6.02888 0.212941 7.07439C0.420906 8.11991 0.934233 9.08027 1.68801 9.83405C2.44178 10.5878 3.40215 11.1011 4.44766 11.3091C5.49318 11.5171 6.57688 11.4103 7.56173 11.0024C8.54659 10.5945 9.38836 9.90364 9.98059 9.0173C10.5728 8.13095 10.8889 7.08889 10.8889 6.0229C10.8889 5.3151 10.7495 4.61424 10.4787 3.96032C10.2078 3.3064 9.81079 2.71223 9.3103 2.21175C8.80982 1.71126 8.21565 1.31425 7.56173 1.04339C6.90782 0.772528 6.20695 0.633118 5.49916 0.633118V0.633118ZM8.69961 9.22335C7.95763 9.96241 6.98239 10.4214 5.93999 10.5221C4.89759 10.6228 3.85251 10.3591 2.98276 9.77575C2.11301 9.19243 1.47237 8.32562 1.16998 7.32298C0.867587 6.32033 0.922136 5.24386 1.32434 4.27692C1.72654 3.30998 2.45151 2.51238 3.37578 2.01996C4.30004 1.52755 5.36643 1.37078 6.39331 1.57636C7.42018 1.78195 8.34403 2.33716 9.0075 3.14744C9.67096 3.95772 10.033 4.97295 10.032 6.0202C10.0317 6.61555 9.91394 7.20499 9.68529 7.75468C9.45665 8.30437 9.12168 8.80348 8.69961 9.22335V9.22335Z" fill="#1A1E25"/>
<path d="M5.43378 7.84198C5.36609 7.83847 5.2984 7.84858 5.2347 7.87173C5.171 7.89488 5.1126 7.93058 5.06296 7.97673C5.00958 8.02241 4.96685 8.07924 4.9378 8.14321C4.90875 8.20718 4.89407 8.27675 4.8948 8.347C4.90021 8.48784 4.96058 8.62096 5.06296 8.71782C5.10889 8.77105 5.16584 8.81365 5.22987 8.84269C5.2939 8.87173 5.36347 8.8865 5.43378 8.88598C5.50678 8.89217 5.58027 8.88342 5.64977 8.86025C5.71928 8.83708 5.78333 8.79999 5.83801 8.75124C5.89136 8.70553 5.93407 8.6487 5.96312 8.58473C5.99217 8.52076 6.00686 8.45121 6.00617 8.38096C6.00076 8.24012 5.94039 8.10701 5.83801 8.01014C5.72322 7.91474 5.58236 7.85614 5.43378 7.84198V7.84198ZM6.74673 3.93439C6.42064 3.65269 5.99832 3.50786 5.56798 3.53016C5.48207 3.52315 5.39573 3.52315 5.30981 3.53016C4.96057 3.55806 4.62964 3.69783 4.36612 3.92871C4.10261 4.1596 3.92057 4.4693 3.84703 4.81185C3.83726 4.86196 3.83746 4.9135 3.84761 4.96354C3.85776 5.01358 3.87767 5.06112 3.9062 5.10346C3.93473 5.1458 3.97131 5.18211 4.01387 5.21031C4.05643 5.23851 4.10413 5.25806 4.15424 5.26782C4.20435 5.27759 4.2559 5.27739 4.30593 5.26724C4.35597 5.25709 4.40352 5.23718 4.44586 5.20865C4.4882 5.18012 4.52451 5.14353 4.55271 5.10097C4.58091 5.05841 4.60045 5.01072 4.61022 4.96061C4.64116 4.79901 4.70342 4.64503 4.79347 4.50733C4.96669 4.32563 5.20303 4.21735 5.45375 4.20481C5.70447 4.19228 5.95044 4.27644 6.14092 4.43995C6.2768 4.61239 6.34828 4.82682 6.34303 5.0463C6.34254 5.2444 6.2708 5.43571 6.14092 5.58528L6.00617 5.72003C5.67508 5.97215 5.39023 6.2798 5.16429 6.62928C5.06476 6.85123 5.01861 7.09342 5.02954 7.33642V7.47116H5.83801V7.33642C5.84238 7.1598 5.88856 6.98672 5.97275 6.8314C6.05239 6.69196 6.15456 6.56666 6.27512 6.46058C6.50673 6.29195 6.72103 6.10075 6.91489 5.8898C7.09861 5.62264 7.19296 5.30413 7.18438 4.98001C7.19475 4.78403 7.16079 4.58823 7.08502 4.4072C7.00924 4.22616 6.89361 4.06455 6.74673 3.93439V3.93439Z" fill="#1A1E25"/>
</g>
<defs>
<clipPath id="clip0_2581_2522">
<rect width="11" height="11" fill="white" transform="translate(0 0.5)"/>
</clipPath>
</defs>
</svg>
