<svg width="11" height="11" viewBox="0 0 11 11" fill="none" xmlns="http://www.w3.org/2000/svg">
<path d="M5.5146 10.5417C5.40002 10.5417 5.28085 10.5371 5.16168 10.5279C2.65918 10.3583 0.642515 8.34168 0.472932 5.83918C0.289599 3.15793 2.22835 0.797515 4.88668 0.462932C5.00234 0.447894 5.1198 0.469305 5.22271 0.524181C5.32562 0.579058 5.40885 0.664667 5.46081 0.769083C5.51276 0.873498 5.53085 0.991518 5.51256 1.1067C5.49427 1.22189 5.44051 1.3285 5.35877 1.41168C5.04417 1.7348 4.80659 2.12479 4.66374 2.55254C4.52089 2.98029 4.47646 3.43478 4.53377 3.8821C4.69877 5.21126 5.78502 6.29751 7.11418 6.46251C8.03085 6.5771 8.92918 6.2746 9.5846 5.63751C9.75877 5.47251 10.0154 5.43126 10.2263 5.53668C10.4417 5.6421 10.5654 5.87585 10.5333 6.1096C10.2217 8.65793 8.04918 10.5417 5.5146 10.5417ZM4.09377 1.59043C3.25019 1.90079 2.53009 2.4765 2.04165 3.23106C1.5532 3.98563 1.32279 4.87831 1.38502 5.77501C1.5271 7.82376 3.1771 9.47376 5.22585 9.61585C7.10043 9.74418 8.79168 8.60293 9.41043 6.9071C8.67845 7.31465 7.83513 7.47689 7.00418 7.37002C5.2671 7.15001 3.84627 5.73376 3.62627 3.9921C3.52085 3.14876 3.69043 2.3146 4.09377 1.59043Z" fill="#1A1E25"/>
</svg>
