<svg width="12" height="11" viewBox="0 0 12 11" fill="none" xmlns="http://www.w3.org/2000/svg">
<path d="M0.0588117 3.75718C0.184749 3.41006 0.501294 3.16102 0.884959 3.10687L3.46075 2.74464L4.5761 0.554442C4.74717 0.217572 5.11302 0 5.50816 0C5.90231 0 6.26841 0.21709 6.44095 0.553947L7.55607 2.74417L10.1319 3.10687C10.5089 3.15981 10.833 3.41495 10.9582 3.75767C11.0883 4.116 10.9936 4.50458 10.7108 4.77143L8.83005 6.54792L9.26473 9.00401C9.33331 9.38525 9.16686 9.75847 8.82933 9.97873C8.52596 10.1756 8.08178 10.1983 7.75302 10.0324L5.50864 8.88937L3.2628 10.0329C3.11442 10.1088 2.94555 10.1488 2.7742 10.1488C2.56748 10.1488 2.3593 10.0885 2.18455 9.97704C1.8497 9.75825 1.68399 9.38601 1.75183 9.00671L2.18698 6.54818L0.305774 4.77191C0.0229348 4.50407 -0.0717596 4.11525 0.0588117 3.75716V3.75718ZM0.821013 4.22722L2.81595 6.11108C2.92894 6.21889 2.97997 6.37428 2.95262 6.52526L2.49013 9.13819C2.47549 9.21967 2.51381 9.29698 2.59141 9.34772C2.68463 9.40749 2.82546 9.4148 2.92213 9.36529L5.2929 8.15807C5.35988 8.12397 5.43397 8.10617 5.50914 8.10612C5.5848 8.10612 5.65973 8.1244 5.72172 8.15685L8.09203 9.36405C8.18476 9.41138 8.33852 9.40381 8.42053 9.35063C8.50278 9.29695 8.54159 9.2189 8.52645 9.13572L8.06421 6.52328C8.03784 6.37058 8.08983 6.21594 8.20283 6.10935L10.1958 4.22697C10.2598 4.16647 10.2807 4.08866 10.2537 4.01402C10.2234 3.93132 10.1304 3.86326 10.0274 3.84888L7.30712 3.46591C7.15557 3.44445 7.02377 3.35102 6.95496 3.21589L5.77321 0.894677C5.72855 0.807841 5.62214 0.749303 5.50817 0.749303C5.39442 0.749303 5.28852 0.807358 5.24434 0.894194L4.06017 3.21953C3.99037 3.35272 3.85932 3.44516 3.70897 3.46639L0.989416 3.84886C0.881303 3.864 0.794899 3.92691 0.763427 4.01327C0.73584 4.08866 0.75708 4.16673 0.821013 4.22721V4.22722Z" fill="black"/>
</svg>
