<svg width="14" height="14" viewBox="0 0 14 14" fill="none" xmlns="http://www.w3.org/2000/svg">
<path d="M6.99023 3.78166C5.21152 3.78166 3.76504 5.22815 3.76504 7.00686C3.76504 8.78557 5.21152 10.2321 6.99023 10.2321C8.76894 10.2321 10.2154 8.78557 10.2154 7.00686C10.2154 5.22815 8.76894 3.78166 6.99023 3.78166ZM6.99023 9.49924C5.61621 9.49924 4.49785 8.38088 4.49785 7.00686C4.49785 5.63284 5.61621 4.51448 6.99023 4.51448C8.36426 4.51448 9.48262 5.63284 9.48262 7.00686C9.48262 8.38088 8.36562 9.49924 6.99023 9.49924ZM6.99023 2.96682C7.19258 2.96682 7.35664 2.80276 7.35664 2.60041V1.26057C7.35664 1.05823 7.19258 0.894165 6.99023 0.894165C6.78789 0.894165 6.62383 1.05823 6.62383 1.26057V2.60041C6.6252 2.80276 6.78789 2.96682 6.99023 2.96682ZM3.61602 4.15081C3.68711 4.2219 3.78145 4.25745 3.87441 4.25745C3.96875 4.25745 4.06172 4.2219 4.13281 4.15081C4.27637 4.00725 4.27637 3.7762 4.13281 3.63264L3.18535 2.68518C3.15138 2.65106 3.11101 2.62398 3.06655 2.6055C3.02209 2.58703 2.97442 2.57752 2.92627 2.57752C2.87812 2.57752 2.83045 2.58703 2.78599 2.6055C2.74153 2.62398 2.70115 2.65106 2.66719 2.68518C2.63306 2.71915 2.60599 2.75952 2.58751 2.80398C2.56903 2.84844 2.55952 2.89612 2.55952 2.94426C2.55952 2.99241 2.56903 3.04008 2.58751 3.08454C2.60599 3.129 2.63306 3.16938 2.66719 3.20334L3.61602 4.15081ZM2.95156 7.00686C2.95156 6.80452 2.7875 6.64045 2.58516 6.64045H1.24531C1.04297 6.64045 0.878906 6.80452 0.878906 7.00686C0.878906 7.2092 1.04297 7.37327 1.24531 7.37327H2.58516C2.7875 7.37327 2.95156 7.2092 2.95156 7.00686ZM3.61602 9.86291L2.66855 10.8104C2.63443 10.8443 2.60735 10.8847 2.58888 10.9292C2.5704 10.9736 2.56089 11.0213 2.56089 11.0695C2.56089 11.1176 2.5704 11.1653 2.58888 11.2097C2.60735 11.2542 2.63443 11.2946 2.66855 11.3285C2.73965 11.3996 2.83398 11.4352 2.92695 11.4352C3.02129 11.4352 3.11426 11.3996 3.18535 11.3285L4.13281 10.3811C4.27637 10.2375 4.27637 10.0065 4.13281 9.86291C3.99062 9.72073 3.75957 9.72073 3.61602 9.86291ZM6.99023 11.0469C6.78789 11.0469 6.62383 11.211 6.62383 11.4133V12.7531C6.62383 12.9555 6.78789 13.1196 6.99023 13.1196C7.19258 13.1196 7.35664 12.9555 7.35664 12.7531V11.4133C7.35664 11.211 7.19258 11.0469 6.99023 11.0469ZM10.3645 9.86291C10.3305 9.82879 10.2901 9.80171 10.2457 9.78324C10.2012 9.76476 10.1535 9.75525 10.1054 9.75525C10.0572 9.75525 10.0096 9.76476 9.96509 9.78324C9.92063 9.80171 9.88026 9.82879 9.84629 9.86291C9.81217 9.89688 9.78509 9.93725 9.76661 9.98171C9.74814 10.0262 9.73862 10.0738 9.73862 10.122C9.73862 10.1701 9.74814 10.2178 9.76661 10.2623C9.78509 10.3067 9.81217 10.3471 9.84629 10.3811L10.7937 11.3285C10.8648 11.3996 10.9592 11.4352 11.0521 11.4352C11.1465 11.4352 11.2395 11.3996 11.3105 11.3285C11.4541 11.185 11.4541 10.9539 11.3105 10.8104L10.3645 9.86291ZM12.7365 6.64045H11.3967C11.1943 6.64045 11.0303 6.80452 11.0303 7.00686C11.0303 7.2092 11.1943 7.37327 11.3967 7.37327H12.7365C12.9389 7.37327 13.1029 7.2092 13.1029 7.00686C13.1029 6.80452 12.9389 6.64045 12.7365 6.64045ZM10.1061 4.25745C10.2004 4.25745 10.2934 4.2219 10.3645 4.15081L11.3119 3.20334C11.4555 3.05979 11.4555 2.82874 11.3119 2.68518C11.2779 2.65106 11.2376 2.62398 11.1931 2.6055C11.1487 2.58703 11.101 2.57752 11.0528 2.57752C11.0047 2.57752 10.957 2.58703 10.9126 2.6055C10.8681 2.62398 10.8277 2.65106 10.7937 2.68518L9.84629 3.63264C9.81217 3.66661 9.78509 3.70698 9.76661 3.75144C9.74814 3.7959 9.73862 3.84358 9.73862 3.89172C9.73862 3.93987 9.74814 3.98754 9.76661 4.032C9.78509 4.07647 9.81217 4.11684 9.84629 4.15081C9.91875 4.2219 10.0117 4.25745 10.1061 4.25745Z" fill="white"/>
</svg>
