<svg width="105" height="93" viewBox="0 0 105 93" fill="none" xmlns="http://www.w3.org/2000/svg">
<path d="M53.7735 0.202967L50.357 1.07245L8.26484 11.7847L4.84832 12.6542C3.18999 13.0782 1.76979 14.1341 0.899317 15.5902C0.0288418 17.0462 -0.220826 18.7836 0.205087 20.4211L15.0199 77.1154C15.4495 78.752 16.5194 80.1536 17.9948 81.0126C19.4703 81.8717 21.2308 82.1181 22.8901 81.6978L22.8989 81.6955L71.8064 69.2488L71.8153 69.2465C73.4736 68.8225 74.8938 67.7667 75.7643 66.3106C76.6348 64.8545 76.8844 63.1171 76.4585 61.4796L61.6437 4.78529C61.2141 3.14871 60.1442 1.74715 58.6687 0.888099C57.1933 0.029043 55.4328 -0.217354 53.7735 0.202967Z" fill="#848391" fill-opacity="0.3"/>
<path d="M54.2378 1.98027L50.1912 3.01012L9.35912 13.4017L5.31256 14.4315C4.13162 14.7335 3.12026 15.4854 2.50037 16.5223C1.88048 17.5592 1.70268 18.7964 2.00598 19.9625L16.8207 76.6568C17.1267 77.8223 17.8886 78.8203 18.9393 79.4321C19.99 80.0438 21.2437 80.2193 22.4253 79.92L22.4341 79.9177L71.3417 67.471L71.3506 67.4687C72.5315 67.1668 73.5428 66.4149 74.1627 65.378C74.7826 64.3411 74.9604 63.1039 74.6571 61.9378L59.8423 5.24345C59.5364 4.07802 58.7745 3.07994 57.7238 2.46819C56.6731 1.85643 55.4194 1.68096 54.2378 1.98027Z" fill="#0D1117"/>
<path d="M51.1835 20.3394L26.4423 26.6359C26.166 26.7062 25.8727 26.6653 25.6269 26.5222C25.3811 26.3791 25.203 26.1455 25.1317 25.8728C25.0605 25.6001 25.1019 25.3106 25.2469 25.0681C25.3919 24.8255 25.6286 24.6498 25.905 24.5794L50.6461 18.2829C50.9223 18.2129 51.2155 18.2539 51.461 18.3971C51.7066 18.5402 51.8846 18.7737 51.9558 19.0462C52.027 19.3188 51.9857 19.6081 51.8409 19.8506C51.696 20.0931 51.4596 20.2689 51.1835 20.3394Z" fill="#848391" fill-opacity="0.3"/>
<path d="M56.3876 22.7159L27.3486 30.1062C27.0723 30.1765 26.7789 30.1357 26.5332 29.9925C26.2874 29.8494 26.1093 29.6158 26.038 29.3431C25.9667 29.0704 26.0082 28.781 26.1532 28.5384C26.2982 28.2958 26.5349 28.1201 26.8112 28.0497L55.8503 20.6594C56.1266 20.5891 56.4199 20.63 56.6657 20.7731C56.9115 20.9162 57.0896 21.1498 57.1609 21.4225C57.2321 21.6952 57.1907 21.9847 57.0457 22.2273C56.9007 22.4698 56.664 22.6456 56.3876 22.7159Z" fill="#848391" fill-opacity="0.3"/>
<path d="M55.246 35.8915L30.5048 42.188C30.368 42.2228 30.2256 42.2307 30.0857 42.2112C29.9458 42.1917 29.8111 42.1452 29.6894 42.0744C29.5677 42.0035 29.4613 41.9097 29.3764 41.7982C29.2914 41.6868 29.2295 41.56 29.1942 41.4249C29.159 41.2899 29.151 41.1493 29.1707 41.0113C29.1905 40.8732 29.2376 40.7403 29.3094 40.6202C29.3812 40.5001 29.4763 40.3951 29.5892 40.3113C29.7021 40.2274 29.8306 40.1664 29.9675 40.1315L54.7086 33.835C54.8454 33.8002 54.9879 33.7923 55.1278 33.8118C55.2677 33.8313 55.4023 33.8778 55.524 33.9487C55.6457 34.0196 55.7521 34.1134 55.8371 34.2248C55.922 34.3362 55.9839 34.4631 56.0192 34.5981C56.0545 34.7331 56.0625 34.8737 56.0427 35.0118C56.023 35.1499 55.9758 35.2827 55.904 35.4029C55.8322 35.523 55.7372 35.6279 55.6243 35.7118C55.5113 35.7956 55.3828 35.8567 55.246 35.8915Z" fill="#848391" fill-opacity="0.3"/>
<path d="M60.4521 38.268L31.4131 45.6583C31.2762 45.6932 31.1338 45.701 30.9939 45.6815C30.854 45.662 30.7193 45.6155 30.5976 45.5447C30.4759 45.4738 30.3695 45.38 30.2846 45.2686C30.1996 45.1571 30.1377 45.0303 30.1024 44.8953C30.0672 44.7602 30.0592 44.6197 30.0789 44.4816C30.0987 44.3435 30.1458 44.2106 30.2176 44.0905C30.2894 43.9704 30.3845 43.8655 30.4974 43.7816C30.6103 43.6978 30.7388 43.6367 30.8757 43.6019L59.9147 36.2116C60.191 36.1412 60.4844 36.1821 60.7302 36.3252C60.9759 36.4683 61.1541 36.7019 61.2253 36.9746C61.2966 37.2473 61.2551 37.5368 61.1101 37.7794C60.9651 38.0219 60.7284 38.1977 60.4521 38.268Z" fill="#848391" fill-opacity="0.3"/>
<path d="M59.3117 51.4436L34.5705 57.7401C34.2943 57.8102 34.0011 57.7692 33.7555 57.6261C33.5099 57.483 33.3319 57.2495 33.2607 56.9769C33.1894 56.7043 33.2308 56.415 33.3756 56.1725C33.5205 55.93 33.757 55.7541 34.0332 55.6837L58.7743 49.3872C59.0506 49.3168 59.344 49.3577 59.5897 49.5008C59.8355 49.6439 60.0136 49.8775 60.0849 50.1502C60.1562 50.4229 60.1147 50.7124 59.9697 50.955C59.8247 51.1975 59.588 51.3733 59.3117 51.4436Z" fill="#F2F2F2"/>
<path d="M64.5155 53.8202L35.4765 61.2105C35.3396 61.2454 35.1971 61.2534 35.0571 61.234C34.9171 61.2146 34.7823 61.1681 34.6605 61.0973C34.5387 61.0264 34.4323 60.9326 34.3472 60.8211C34.2622 60.7097 34.2003 60.5827 34.1649 60.4476C34.1296 60.3125 34.1217 60.1719 34.1415 60.0337C34.1613 59.8956 34.2085 59.7626 34.2804 59.6425C34.3523 59.5223 34.4474 59.4174 34.5605 59.3335C34.6735 59.2497 34.8022 59.1887 34.9391 59.154L63.9781 51.7637C64.2545 51.6934 64.5478 51.7342 64.7936 51.8774C65.0394 52.0205 65.2175 52.2541 65.2887 52.5268C65.36 52.7995 65.3186 53.0889 65.1736 53.3315C65.0286 53.5741 64.7918 53.7498 64.5155 53.8202Z" fill="#F2F2F2"/>
<path d="M22.2188 33.0921L13.4631 35.3203C13.3306 35.3539 13.19 35.3342 13.0722 35.2656C12.9544 35.197 12.869 35.0851 12.8347 34.9544L10.8248 27.263C10.7908 27.1322 10.8107 26.9935 10.8802 26.8772C10.9498 26.7609 11.0632 26.6766 11.1956 26.6428L19.9512 24.4145C20.0837 24.3809 20.2243 24.4006 20.3421 24.4692C20.4599 24.5378 20.5454 24.6497 20.5797 24.7804L22.5895 32.4719C22.6235 32.6026 22.6036 32.7414 22.5341 32.8576C22.4646 32.9739 22.3512 33.0582 22.2188 33.0921Z" fill="#848391" fill-opacity="0.3"/>
<path d="M26.2813 48.6442L17.5256 50.8724C17.3931 50.906 17.2525 50.8863 17.1347 50.8177C17.0169 50.7491 16.9315 50.6372 16.8972 50.5065L14.8873 42.8151C14.8533 42.6843 14.8732 42.5456 14.9427 42.4293C15.0123 42.3131 15.1257 42.2288 15.2581 42.1949L24.0137 39.9666C24.1462 39.9331 24.2868 39.9527 24.4046 40.0213C24.5224 40.0899 24.6079 40.2018 24.6422 40.3325L26.652 48.024C26.686 48.1547 26.6661 48.2935 26.5966 48.4097C26.5271 48.526 26.4137 48.6103 26.2813 48.6442Z" fill="#848391" fill-opacity="0.3"/>
<path d="M30.3457 64.1963L21.5901 66.4246C21.4576 66.4581 21.317 66.4385 21.1992 66.3699C21.0814 66.3013 20.9959 66.1894 20.9616 66.0587L18.9518 58.3672C18.9178 58.2365 18.9377 58.0977 19.0072 57.9815C19.0767 57.8652 19.1901 57.7809 19.3225 57.747L28.0782 55.5188C28.2107 55.4852 28.3513 55.5049 28.4691 55.5735C28.5869 55.6421 28.6723 55.754 28.7066 55.8847L30.7165 63.5761C30.7505 63.7069 30.7306 63.8456 30.661 63.9619C30.5915 64.0781 30.4781 64.1624 30.3457 64.1963Z" fill="#848391" fill-opacity="0.3"/>
<path d="M87.8974 14.574H37.3716C35.6585 14.5759 34.0161 15.2484 32.8048 16.4438C31.5935 17.6393 30.9121 19.2601 30.9102 20.9507V79.4998C30.9121 81.1904 31.5935 82.8112 32.8048 84.0066C34.0161 85.2021 35.6585 85.8745 37.3716 85.8764H87.8974C89.6105 85.8745 91.2529 85.2021 92.4642 84.0066C93.6755 82.8112 94.3569 81.1904 94.3588 79.4998V20.9507C94.3569 19.2601 93.6755 17.6393 92.4642 16.4438C91.2529 15.2484 89.6105 14.5759 87.8974 14.574Z" fill="#31333B"/>
<path d="M87.8968 16.4097H37.3709C36.1509 16.4111 34.9814 16.8899 34.1187 17.7412C33.2561 18.5925 32.7709 19.7468 32.7695 20.9507V79.4998C32.7709 80.7037 33.2561 81.8579 34.1187 82.7092C34.9814 83.5605 36.1509 84.0394 37.3709 84.0407H87.8968C89.1167 84.0394 90.2862 83.5605 91.1488 82.7092C92.0115 81.8579 92.4967 80.7037 92.498 79.4998V20.9507C92.4967 19.7468 92.0115 18.5925 91.1488 17.7413C90.2862 16.89 89.1167 16.4111 87.8968 16.4097Z" fill="#0D1117"/>
<path d="M80.2918 48.5823H54.7413C54.5999 48.5825 54.4598 48.5551 54.3291 48.5018C54.1984 48.4485 54.0797 48.3703 53.9796 48.2717C53.8796 48.1731 53.8002 48.056 53.7461 47.9271C53.6919 47.7982 53.6641 47.66 53.6641 47.5204C53.6641 47.3809 53.6919 47.2427 53.7461 47.1138C53.8002 46.9849 53.8796 46.8678 53.9796 46.7692C54.0797 46.6705 54.1984 46.5923 54.3291 46.539C54.4598 46.4858 54.5999 46.4584 54.7413 46.4586H80.2918C80.577 46.4589 80.8504 46.5709 81.0519 46.77C81.2534 46.9691 81.3666 47.239 81.3666 47.5204C81.3666 47.8019 81.2534 48.0718 81.0519 48.2709C80.8504 48.47 80.577 48.582 80.2918 48.5823Z" fill="#848391" fill-opacity="0.3"/>
<path d="M84.7303 52.1662H54.7413C54.5999 52.1663 54.4598 52.139 54.3291 52.0857C54.1984 52.0324 54.0797 51.9542 53.9796 51.8556C53.8796 51.757 53.8002 51.6398 53.7461 51.5109C53.6919 51.382 53.6641 51.2438 53.6641 51.1043C53.6641 50.9648 53.6919 50.8266 53.7461 50.6977C53.8002 50.5687 53.8796 50.4516 53.9796 50.353C54.0797 50.2544 54.1984 50.1762 54.3291 50.1229C54.4598 50.0696 54.5999 50.0423 54.7413 50.0424H84.7303C85.0157 50.0424 85.2894 50.1543 85.4912 50.3534C85.693 50.5526 85.8063 50.8227 85.8063 51.1043C85.8063 51.3859 85.693 51.656 85.4912 51.8552C85.2894 52.0543 85.0157 52.1662 84.7303 52.1662Z" fill="#848391" fill-opacity="0.3"/>
<path d="M80.2918 64.6433H54.7413C54.5999 64.6435 54.4598 64.6161 54.3291 64.5628C54.1984 64.5095 54.0797 64.4313 53.9796 64.3327C53.8796 64.2341 53.8002 64.117 53.7461 63.9881C53.6919 63.8591 53.6641 63.721 53.6641 63.5814C53.6641 63.4419 53.6919 63.3037 53.7461 63.1748C53.8002 63.0459 53.8796 62.9288 53.9796 62.8301C54.0797 62.7315 54.1984 62.6533 54.3291 62.6C54.4598 62.5467 54.5999 62.5194 54.7413 62.5195H80.2918C80.5772 62.5195 80.8509 62.6314 81.0527 62.8306C81.2545 63.0297 81.3678 63.2998 81.3678 63.5814C81.3678 63.863 81.2545 64.1331 81.0527 64.3323C80.8509 64.5314 80.5772 64.6433 80.2918 64.6433Z" fill="#848391" fill-opacity="0.3"/>
<path d="M84.7303 68.2271H54.7413C54.5999 68.2273 54.4598 68.1999 54.3291 68.1466C54.1984 68.0933 54.0797 68.0151 53.9796 67.9165C53.8796 67.8179 53.8002 67.7008 53.7461 67.5719C53.6919 67.4429 53.6641 67.3048 53.6641 67.1652C53.6641 67.0257 53.6919 66.8875 53.7461 66.7586C53.8002 66.6297 53.8796 66.5126 53.9796 66.4139C54.0797 66.3153 54.1984 66.2371 54.3291 66.1838C54.4598 66.1305 54.5999 66.1032 54.7413 66.1033H84.7303C84.8717 66.1032 85.0118 66.1305 85.1425 66.1838C85.2732 66.2371 85.3919 66.3153 85.492 66.4139C85.592 66.5126 85.6714 66.6297 85.7255 66.7586C85.7797 66.8875 85.8075 67.0257 85.8075 67.1652C85.8075 67.3048 85.7797 67.4429 85.7255 67.5719C85.6714 67.7008 85.592 67.8179 85.492 67.9165C85.3919 68.0151 85.2732 68.0933 85.1425 68.1466C85.0118 68.1999 84.8717 68.2273 84.7303 68.2271Z" fill="#848391" fill-opacity="0.3"/>
<path d="M49.019 53.7931H39.9769C39.8401 53.793 39.7089 53.7393 39.6122 53.6438C39.5155 53.5483 39.4611 53.4189 39.4609 53.2839V45.3408C39.4611 45.2058 39.5155 45.0764 39.6122 44.981C39.7089 44.8855 39.8401 44.8318 39.9769 44.8317H49.019C49.1558 44.8318 49.2869 44.8855 49.3836 44.981C49.4804 45.0764 49.5348 45.2058 49.5349 45.3408V53.2839C49.5348 53.4189 49.4804 53.5483 49.3836 53.6438C49.2869 53.7393 49.1558 53.793 49.019 53.7931Z" fill="#848391" fill-opacity="0.3"/>
<path d="M49.019 69.854H39.9769C39.8401 69.8539 39.7089 69.8002 39.6122 69.7047C39.5155 69.6093 39.4611 69.4798 39.4609 69.3448V61.4018C39.4611 61.2668 39.5155 61.1373 39.6122 61.0419C39.7089 60.9464 39.8401 60.8927 39.9769 60.8926H49.019C49.1558 60.8927 49.2869 60.9464 49.3836 61.0419C49.4804 61.1373 49.5348 61.2668 49.5349 61.4018V69.3448C49.5348 69.4798 49.4804 69.6093 49.3836 69.7047C49.2869 69.8002 49.1558 69.8539 49.019 69.854Z" fill="#848391" fill-opacity="0.3"/>
<path d="M80.3216 30.7034H61.4842C61.1988 30.7034 60.9251 30.5915 60.7234 30.3923C60.5216 30.1932 60.4082 29.9231 60.4082 29.6415C60.4082 29.3598 60.5216 29.0897 60.7234 28.8906C60.9251 28.6915 61.1988 28.5796 61.4842 28.5796H80.3216C80.607 28.5796 80.8807 28.6915 81.0824 28.8906C81.2842 29.0897 81.3976 29.3598 81.3976 29.6415C81.3976 29.9231 81.2842 30.1932 81.0824 30.3923C80.8807 30.5915 80.607 30.7034 80.3216 30.7034Z" fill="#848391" fill-opacity="0.3"/>
<path d="M84.7601 34.2872H61.4842C61.3429 34.2872 61.203 34.2597 61.0724 34.2064C60.9419 34.153 60.8233 34.0748 60.7234 33.9762C60.6234 33.8776 60.5442 33.7605 60.4901 33.6317C60.436 33.5029 60.4082 33.3648 60.4082 33.2253C60.4082 33.0859 60.436 32.9478 60.4901 32.819C60.5442 32.6901 60.6234 32.5731 60.7234 32.4745C60.8233 32.3759 60.9419 32.2976 61.0724 32.2443C61.203 32.1909 61.3429 32.1635 61.4842 32.1635H84.7601C85.0455 32.1635 85.3192 32.2753 85.521 32.4745C85.7227 32.6736 85.8361 32.9437 85.8361 33.2253C85.8361 33.507 85.7227 33.7771 85.521 33.9762C85.3192 34.1753 85.0455 34.2872 84.7601 34.2872Z" fill="#848391" fill-opacity="0.3"/>
<path d="M57.314 38.6304H39.9476C39.8108 38.6302 39.6797 38.5765 39.5829 38.4811C39.4862 38.3856 39.4318 38.2562 39.4316 38.1212V24.7456C39.4318 24.6106 39.4862 24.4811 39.5829 24.3857C39.6797 24.2902 39.8108 24.2365 39.9476 24.2364H57.314C57.4508 24.2365 57.582 24.2902 57.6787 24.3857C57.7754 24.4811 57.8298 24.6106 57.83 24.7456V38.1212C57.8298 38.2562 57.7754 38.3856 57.6787 38.4811C57.582 38.5765 57.4508 38.6302 57.314 38.6304Z" fill="#848391" fill-opacity="0.3"/>
</svg>
