<svg width="36" height="28" viewBox="0 0 36 28" fill="none" xmlns="http://www.w3.org/2000/svg">
    <rect x="-0.633975" y="17.6365" width="36.5409" height="12.2921" rx="6.14605" transform="rotate(-30 -0.633975 17.6365)" fill="url(#paint0_linear_707_505)" stroke="#FBF9FF" stroke-width="2"/>
    <path d="M9.48683 18.0173L8.54392 18.5617C8.45626 18.4496 8.35854 18.3616 8.25075 18.2975C8.14214 18.232 8.02674 18.1896 7.90455 18.1702C7.78237 18.1508 7.65638 18.1546 7.52659 18.1817C7.39824 18.208 7.27092 18.2576 7.14462 18.3305C6.91643 18.4623 6.75038 18.6337 6.64649 18.8449C6.54177 19.0546 6.50492 19.294 6.53592 19.5631C6.56609 19.8308 6.66943 20.1175 6.84592 20.4232C7.02738 20.7375 7.22649 20.9747 7.44323 21.1347C7.66142 21.2938 7.88667 21.379 8.11899 21.3903C8.35132 21.4016 8.57871 21.3431 8.80116 21.2146C8.92602 21.1425 9.03202 21.0593 9.11917 20.965C9.20775 20.8699 9.27543 20.7667 9.32221 20.6555C9.36816 20.5428 9.39189 20.4248 9.3934 20.3015C9.39634 20.1773 9.3746 20.0502 9.32818 19.9201L10.2736 19.38C10.366 19.5964 10.4177 19.8268 10.4287 20.0712C10.4402 20.3133 10.4069 20.5555 10.3286 20.7978C10.251 21.0378 10.1243 21.2659 9.94871 21.4821C9.77371 21.696 9.54485 21.8846 9.26212 22.0478C8.86888 22.2749 8.46589 22.3889 8.05315 22.3899C7.64184 22.3901 7.24912 22.2733 6.87501 22.0397C6.50232 21.8051 6.17761 21.4482 5.90086 20.9689C5.62328 20.4881 5.47754 20.0268 5.46365 19.5852C5.44976 19.1435 5.54686 18.7449 5.75494 18.3894C5.96219 18.0325 6.25957 17.7421 6.64706 17.5184C6.90252 17.3709 7.16004 17.2701 7.41962 17.2159C7.68063 17.1609 7.93558 17.1534 8.18448 17.1934C8.43255 17.232 8.66686 17.3196 8.88741 17.4563C9.10939 17.5923 9.3092 17.7792 9.48683 18.0173ZM13.3236 19.7087C12.9892 19.9017 12.659 19.9976 12.333 19.9964C12.0076 19.9929 11.7052 19.9016 11.4256 19.7224C11.1453 19.5417 10.9073 19.282 10.7118 18.9433C10.5146 18.6017 10.4082 18.2651 10.3928 17.9334C10.3765 17.6003 10.4486 17.2927 10.6091 17.0105C10.7702 16.7262 11.018 16.4874 11.3524 16.2944C11.6868 16.1013 12.0167 16.0065 12.3421 16.01C12.6681 16.0112 12.9713 16.1022 13.2516 16.2828C13.5312 16.4621 13.7695 16.7225 13.9667 17.064C14.1623 17.4027 14.2682 17.7387 14.2845 18.0718C14.3 18.4035 14.2271 18.7115 14.066 18.9959C13.9055 19.278 13.658 19.5156 13.3236 19.7087ZM12.9178 18.9958C13.0699 18.9079 13.1721 18.7915 13.2243 18.6466C13.2756 18.5002 13.2836 18.3368 13.2483 18.1563C13.2144 17.9749 13.1419 17.7881 13.0309 17.5958C12.9198 17.4034 12.7943 17.2473 12.6542 17.1272C12.5155 17.0064 12.3699 16.9316 12.2175 16.9029C12.0651 16.8742 11.9128 16.9037 11.7606 16.9915C11.6071 17.0802 11.5032 17.1985 11.449 17.3466C11.3962 17.4938 11.3867 17.6581 11.4206 17.8394C11.456 18.0199 11.5292 18.2064 11.6402 18.3987C11.7512 18.591 11.8761 18.7476 12.0147 18.8684C12.1548 18.9885 12.3018 19.0624 12.4557 19.0903C12.6102 19.1159 12.7642 19.0844 12.9178 18.9958ZM16.315 14.9964L16.7351 15.7241L14.7244 16.8849L14.3043 16.1573L16.315 14.9964ZM18.1652 14.2784L19.2689 16.1901L18.3518 16.7195L15.8063 12.3107L16.6976 11.7961L17.6708 13.4817L17.7095 13.4594C17.6715 13.2211 17.7038 12.9986 17.8065 12.792C17.9083 12.584 18.0848 12.4074 18.336 12.2624C18.5656 12.1298 18.7948 12.0645 19.0236 12.0663C19.253 12.0659 19.4689 12.1317 19.6713 12.2636C19.8744 12.3932 20.0498 12.5876 20.1975 12.8467L21.413 14.9521L20.4959 15.4816L19.3749 13.5398C19.2586 13.3352 19.1154 13.2064 18.9452 13.1535C18.7764 13.0998 18.5987 13.1268 18.4121 13.2345C18.2873 13.3066 18.1921 13.397 18.1266 13.5056C18.0625 13.6134 18.0326 13.734 18.0369 13.8674C18.0418 13.9985 18.0846 14.1355 18.1652 14.2784ZM23.666 13.7375C23.3316 13.9305 23.0014 14.0265 22.6754 14.0252C22.35 14.0217 22.0476 13.9304 21.768 13.7512C21.4877 13.5705 21.2497 13.3108 21.0542 12.9721C20.857 12.6305 20.7506 12.2939 20.7352 11.9622C20.7189 11.6291 20.791 11.3215 20.9515 11.0394C21.1127 10.755 21.3604 10.5163 21.6948 10.3232C22.0292 10.1301 22.3591 10.0353 22.6845 10.0388C23.0105 10.04 23.3137 10.131 23.5941 10.3116C23.8736 10.4909 24.1119 10.7513 24.3092 11.0929C24.5047 11.4316 24.6106 11.7675 24.6269 12.1006C24.6424 12.4323 24.5695 12.7403 24.4084 13.0247C24.2479 13.3068 24.0004 13.5444 23.666 13.7375ZM23.2602 13.0246C23.4123 12.9367 23.5145 12.8204 23.5667 12.6754C23.618 12.529 23.626 12.3656 23.5907 12.1851C23.5568 12.0037 23.4843 11.8169 23.3733 11.6246C23.2622 11.4323 23.1367 11.2761 22.9966 11.156C22.8579 11.0352 22.7123 10.9604 22.5599 10.9317C22.4075 10.903 22.2552 10.9325 22.1031 11.0204C21.9495 11.109 21.8456 11.2274 21.7914 11.3754C21.7386 11.5226 21.7291 11.6869 21.763 11.8682C21.7984 12.0487 21.8716 12.2352 21.9826 12.4275C22.0936 12.6198 22.2185 12.7764 22.3571 12.8972C22.4973 13.0173 22.6442 13.0912 22.7981 13.1191C22.9526 13.1447 23.1066 13.1132 23.2602 13.0246ZM27.2391 8.43682L26.4293 8.97321C26.3736 8.90974 26.3054 8.86297 26.2249 8.83291C26.1436 8.80141 26.0542 8.79081 25.9568 8.80111C25.86 8.80915 25.7586 8.84382 25.6524 8.90514C25.5103 8.98717 25.4078 9.0865 25.345 9.20312C25.2814 9.31831 25.2782 9.42541 25.3354 9.52444C25.3809 9.60338 25.4511 9.65188 25.5457 9.66996C25.6403 9.68804 25.774 9.66925 25.9466 9.6136L26.6146 9.38863C26.9742 9.26904 27.2752 9.23687 27.5176 9.29211C27.76 9.34735 27.95 9.49409 28.0875 9.73233C28.2126 9.94904 28.2586 10.1761 28.2253 10.4134C28.1935 10.65 28.0935 10.878 27.9256 11.0974C27.7582 11.3146 27.531 11.5061 27.2439 11.6718C26.8062 11.9245 26.4048 12.0347 26.0398 12.0024C25.6754 11.9679 25.3799 11.8056 25.1531 11.5155L26.0277 10.9474C26.1321 11.0651 26.2569 11.1289 26.4023 11.1387C26.5468 11.1471 26.7009 11.1041 26.8645 11.0096C27.0253 10.9168 27.1366 10.8114 27.1986 10.6933C27.2611 10.573 27.2646 10.4629 27.2088 10.3631C27.1593 10.2807 27.0848 10.2328 26.9853 10.2195C26.8849 10.2047 26.7546 10.2244 26.5946 10.2786L25.956 10.4951C25.5958 10.6169 25.2908 10.6438 25.041 10.5756C24.7926 10.5066 24.5971 10.3487 24.4546 10.1019C24.332 9.88945 24.2837 9.67332 24.3099 9.45347C24.3375 9.23279 24.432 9.02034 24.5935 8.81612C24.7564 8.61108 24.9792 8.42694 25.2619 8.26371C25.6796 8.02259 26.0592 7.9211 26.4008 7.95925C26.7438 7.99657 27.0232 8.15576 27.2391 8.43682ZM29.1063 6.10155L29.5041 6.79044L27.5127 7.94012L27.115 7.25123L29.1063 6.10155ZM27.1097 6.19801L28.0268 5.66853L29.8066 8.75129C29.8555 8.83596 29.9065 8.89452 29.9597 8.92697C30.0121 8.95798 30.0666 8.96956 30.1233 8.9617C30.1814 8.95301 30.2413 8.93085 30.3031 8.89522C30.3461 8.87037 30.3871 8.84192 30.426 8.80989C30.4641 8.77642 30.4934 8.7509 30.5138 8.73334L31.0521 9.33249C31.0144 9.37336 30.9594 9.42715 30.8869 9.49386C30.8153 9.56202 30.7211 9.63263 30.6045 9.70571C30.3885 9.84193 30.1777 9.92436 29.9723 9.95303C29.7683 9.98086 29.5794 9.95026 29.4055 9.8612C29.2316 9.77215 29.0828 9.61886 28.9591 9.40132L27.1097 6.19801Z" fill="white"/>
    <defs>
        <linearGradient id="paint0_linear_707_505" x1="-13.4917" y1="10.8391" x2="56.3277" y2="33.9073" gradientUnits="userSpaceOnUse">
            <stop stop-color="#AE88FE"/>
            <stop offset="0.484375" stop-color="#923CFF"/>
            <stop offset="1" stop-color="#00B2FF"/>
        </linearGradient>
    </defs>
</svg>
