<svg width="27" height="22" viewBox="0 0 27 22" fill="none" xmlns="http://www.w3.org/2000/svg">
    <rect x="-0.633975" y="12.1478" width="25.5633" height="12.2921" rx="6.14605" transform="rotate(-30 -0.633975 12.1478)" fill="url(#paint0_linear_707_505)" stroke="#FBF9FF" stroke-width="2"/>
    <path d="M8.36108 17.0316L5.81563 12.6228L6.74777 12.0846L7.79802 13.9037L9.6903 12.8112L8.64005 10.9921L9.57004 10.4551L12.1155 14.864L11.1855 15.4009L10.134 13.5797L8.24174 14.6722L9.29323 16.4934L8.36108 17.0316ZM14.3981 13.6322C14.0637 13.8253 13.7335 13.9212 13.4075 13.92C13.0821 13.9165 12.7796 13.8252 12.5001 13.6459C12.2198 13.4653 11.9818 13.2056 11.7863 12.8669C11.589 12.5253 11.4827 12.1887 11.4673 11.857C11.451 11.5239 11.5231 11.2162 11.6836 10.9341C11.8447 10.6497 12.0925 10.411 12.4269 10.218C12.7613 10.0249 13.0912 9.93011 13.4166 9.93359C13.7426 9.93481 14.0458 10.0258 14.3261 10.2064C14.6057 10.3857 14.844 10.6461 15.0412 10.9876C15.2368 11.3263 15.3427 11.6622 15.359 11.9954C15.3744 12.3271 15.3016 12.6351 15.1405 12.9195C14.98 13.2016 14.7325 13.4392 14.3981 13.6322ZM13.9923 12.9193C14.1444 12.8315 14.2465 12.7151 14.2987 12.5702C14.3501 12.4238 14.3581 12.2604 14.3228 12.0798C14.2889 11.8985 14.2164 11.7117 14.1054 11.5193C13.9943 11.327 13.8688 11.1709 13.7286 11.0508C13.59 10.93 13.4444 10.8552 13.292 10.8264C13.1395 10.7977 12.9873 10.8273 12.8351 10.9151C12.6816 11.0038 12.5777 11.1221 12.5234 11.2702C12.4707 11.4174 12.4612 11.5816 12.4951 11.763C12.5305 11.9435 12.6036 12.1299 12.7147 12.3223C12.8257 12.5146 12.9506 12.6712 13.0892 12.792C13.2293 12.9121 13.3763 12.986 13.5302 13.0139C13.6847 13.0395 13.8387 13.008 13.9923 12.9193ZM17.9712 8.33159L17.1614 8.86799C17.1056 8.80451 17.0375 8.75775 16.957 8.72768C16.8756 8.69619 16.7863 8.68559 16.6889 8.69589C16.5921 8.70392 16.4906 8.7386 16.3844 8.79992C16.2423 8.88195 16.1399 8.98127 16.0771 9.09789C16.0135 9.21308 16.0103 9.32019 16.0675 9.41922C16.113 9.49815 16.1831 9.54666 16.2778 9.56474C16.3724 9.58281 16.506 9.56403 16.6786 9.50838L17.3467 9.28341C17.7063 9.16382 18.0073 9.13164 18.2497 9.18689C18.4921 9.24213 18.682 9.38887 18.8196 9.62711C18.9447 9.84382 18.9906 10.0709 18.9574 10.3082C18.9255 10.5447 18.8256 10.7727 18.6576 10.9922C18.4902 11.2094 18.263 11.4008 17.976 11.5665C17.5383 11.8193 17.1369 11.9295 16.7719 11.8972C16.4075 11.8626 16.1119 11.7003 15.8852 11.4103L16.7598 10.8421C16.8641 10.9599 16.989 11.0237 17.1344 11.0335C17.2789 11.0419 17.433 10.9989 17.5966 10.9044C17.7573 10.8116 17.8687 10.7062 17.9306 10.5881C17.9932 10.4678 17.9966 10.3577 17.9409 10.2579C17.8914 10.1754 17.8169 10.1276 17.7173 10.1142C17.617 10.0995 17.4867 10.1192 17.3266 10.1733L16.6881 10.3898C16.3279 10.5117 16.0229 10.5385 15.7731 10.4704C15.5246 10.4014 15.3292 10.2435 15.1867 9.99663C15.064 9.78422 15.0158 9.56809 15.0419 9.34824C15.0695 9.12756 15.1641 8.91511 15.3255 8.7109C15.4885 8.50585 15.7113 8.32172 15.994 8.15848C16.4116 7.91736 16.7913 7.81587 17.1328 7.85402C17.4759 7.89135 17.7553 8.05054 17.9712 8.33159ZM19.8384 5.99633L20.2361 6.68521L18.2448 7.83489L17.8471 7.14601L19.8384 5.99633ZM17.8418 6.09278L18.7589 5.56331L20.5387 8.64606C20.5876 8.73074 20.6386 8.7893 20.6918 8.82174C20.7441 8.85275 20.7987 8.86433 20.8554 8.85647C20.9135 8.84779 20.9734 8.82563 21.0351 8.79C21.0782 8.76514 21.1192 8.73669 21.1581 8.70466C21.1962 8.67119 21.2254 8.64568 21.2459 8.62811L21.7842 9.22726C21.7465 9.26813 21.6915 9.32192 21.619 9.38864C21.5474 9.45679 21.4532 9.5274 21.3366 9.60048C21.1205 9.7367 20.9098 9.81914 20.7044 9.8478C20.5004 9.87564 20.3115 9.84503 20.1376 9.75598C19.9637 9.66693 19.8149 9.51363 19.6912 9.29609L17.8418 6.09278Z" fill="white"/>
    <defs>
        <linearGradient id="paint0_linear_707_505" x1="-10.2185" y1="5.35031" x2="42.2364" y2="17.745" gradientUnits="userSpaceOnUse">
            <stop stop-color="#AE88FE"/>
            <stop offset="0.484375" stop-color="#923CFF"/>
            <stop offset="1" stop-color="#00B2FF"/>
        </linearGradient>
    </defs>
</svg>
