<svg width="24" height="24" viewBox="0 0 24 24" fill="none" xmlns="http://www.w3.org/2000/svg">
    <path d="M12 7.37997V16.62" stroke="white" stroke-width="1.5" stroke-linecap="round" stroke-linejoin="round"/>
    <path d="M9.43701 13.793C9.43701 14.783 10.207 15.586 11.153 15.586H13.089C13.914 15.586 14.585 14.882 14.585 14.024C14.585 13.089 14.178 12.748 13.562 12.539L10.471 11.461C9.86598 11.252 9.44799 10.911 9.44799 9.97598C9.44799 9.10698 10.119 8.41397 10.944 8.41397H12.88C13.826 8.41397 14.596 9.21698 14.596 10.207" stroke="white" stroke-width="1.5" stroke-linecap="round" stroke-linejoin="round"/>
    <path d="M12 23C18.0751 23 23 18.0751 23 12C23 5.92487 18.0751 1 12 1C5.92487 1 1 5.92487 1 12C1 18.0751 5.92487 23 12 23Z" stroke="white" stroke-width="1.5" stroke-miterlimit="10" stroke-linecap="round" stroke-linejoin="round"/>
</svg>
