<?xml version="1.0" standalone="no"?><!DOCTYPE svg PUBLIC "-//W3C//DTD SVG 1.1//EN" "http://www.w3.org/Graphics/SVG/1.1/DTD/svg11.dtd"><svg t="1671272323712" class="icon" viewBox="0 0 1024 1024" version="1.1" xmlns="http://www.w3.org/2000/svg" p-id="3485" xmlns:xlink="http://www.w3.org/1999/xlink" width="128" height="128"><path d="M896 896h-64v64c0 35.392-28.608 64-64 64s-64-28.608-64-64v-64h-64c-35.392 0-64-28.608-64-64s28.608-64 64-64h64v-64c0-35.392 28.608-64 64-64s64 28.608 64 64v64h64c35.392 0 64 28.608 64 64s-28.608 64-64 64zM585.024 649.024C505.92 672.768 448 745.28 448 832c0 83.52 53.568 153.792 128 180.224V1024H128a64 64 0 0 1-64-64c0-128 123.712-247.424 250.176-294.656C241.152 620.224 192 540.096 192 448v-64c0-141.376 114.624-256 256-256s256 114.624 256 256v64c0 29.824-6.656 57.536-16.128 84.032-48.704 23.168-87.104 64.448-102.848 116.992z" fill="#fff" p-id="3486"></path></svg>