<?xml version="1.0" standalone="no"?><!DOCTYPE svg PUBLIC "-//W3C//DTD SVG 1.1//EN" "http://www.w3.org/Graphics/SVG/1.1/DTD/svg11.dtd"><svg t="1671272185332" class="icon" viewBox="0 0 1024 1024" version="1.1" xmlns="http://www.w3.org/2000/svg" p-id="3898" xmlns:xlink="http://www.w3.org/1999/xlink" width="128" height="128"><path d="M871.616 75.456c-86.912 92.288-221.76 185.6-213.376 350.016A156.16 156.16 0 0 0 640 448l99.712-1.536a21.568 21.568 0 0 1 16.768 34.752l-177.984 213.376a20.992 20.992 0 0 1-29.44 3.52 20.672 20.672 0 0 1-3.52-3.52L354.368 481.856a21.568 21.568 0 0 1 16.832-35.392L448 448c10.624 0 2.56-9.6 4.032-20.096 59.968-282.88 394.432-354.816 419.584-352.448zM811.648 960H192c-109.44 6.976-124.48-75.648-128-128l0.576-640.384a115.52 115.52 0 0 1 128-128C84.992 64.64 448 64 448 64a32 32 0 1 1 0 64H192.448a52.096 52.096 0 0 0-64 64v606.784c-0.96 48.256 14.912 96.256 63.552 97.216h640a61.696 61.696 0 0 0 64-64l-0.512-257.152a32 32 0 0 1 64 0L960 832a115.84 115.84 0 0 1-128 128z" fill="#888888" p-id="3899"></path></svg>