<?xml version="1.0" standalone="no"?><!DOCTYPE svg PUBLIC "-//W3C//DTD SVG 1.1//EN" "http://www.w3.org/Graphics/SVG/1.1/DTD/svg11.dtd"><svg t="1671272128760" class="icon" viewBox="0 0 1024 1024" version="1.1" xmlns="http://www.w3.org/2000/svg" p-id="3389" xmlns:xlink="http://www.w3.org/1999/xlink" width="128" height="128"><path d="M299.897789 832.352145c-5.51869 1.042749-11.073196 1.509377-16.573467 1.509377-24.176632 0-47.669696-9.526981-65.069995-26.952862-21.391193-21.373797-30.899754-51.894927-25.453718-81.644485 53.56701-292.65534 77.005838-316.112588 95.880721-335.004867l249.460562-249.443166-57.55688-57.55688L117.232516 83.259262c-30.503734 0-55.220672 24.715915-55.220672 55.219649l0 766.960833c0 30.523177 24.716938 55.220672 55.220672 55.220672l554.104957 0c30.505781 0 55.221696-24.697495 55.221696-55.220672L726.559169 644.825145l-91.692329 91.692329C616.010377 755.355517 592.554152 778.794345 299.897789 832.352145z" p-id="3390" fill="#Fff">></path><path d="M939.872462 221.560118 803.582403 85.271082c-22.019503-22.019503-57.736982-22.019503-79.755462 0.01842l-120.614032 120.596635 0 0L353.751325 455.346699c-22.020526 22.037922-70.427002 286.490943-70.427002 286.490943s264.453021-48.4075 286.490943-70.427002l156.744927-156.744927 0 0 213.31227-213.33069C961.910385 279.314497 961.910385 243.598041 939.872462 221.560118zM447.959963 645.777843l-41.612747 14.09195c-1.168616 0.397043-2.427282 0.576121-3.684926 0.594541-0.233314 0-0.467651-0.072655-0.700965-0.090051-1.348718-0.055259-2.696412-0.306992-3.973498-0.737804-0.3776-0.125867-0.772596-0.251733-1.131777-0.412392-1.420349-0.611937-2.749624-1.348718-3.739161-2.355651l-24.859177-24.860201c-3.091408-3.091408-4.494361-8.770757-2.983961-13.193487l14.110369-41.61377c0.880043-2.606361 2.012843-4.978385 3.218298-7.207146 0.287549-0.557702 0.593518-1.096984 0.916882-1.61887 1.240247-2.084475 2.570545-4.025687 4.009314-5.607718 0.125867-0.143263 0.25071-0.233314 0.376577-0.35918 1.367137-1.437745 2.786463-2.571568 4.206812-3.470031 0.3776-0.234337 0.7552-0.466628 1.11438-0.64673 1.563612-0.792039 3.109828-1.330298 4.620227-1.348718 0.682545 0 1.311879 0.181125 1.959631 0.341784 0.413416 0.090051 0.825808 0.090051 1.221828 0.251733 1.042749 0.431835 2.031263 1.078565 2.965541 2.012843l61.636802 61.637826C473.305211 628.862591 463.311603 640.565121 447.959963 645.777843zM837.682036 271.2621l-37.422308 37.424354c-7.190773 7.189749-18.839067 7.189749-26.02984 0l-57.754379-57.754379c-7.188726-7.190773-7.188726-18.838044 0-26.028816l37.425378-37.424354c7.188726-7.189749 18.837021-7.189749 26.027793 0l57.753355 57.754379C844.872808 252.424056 844.872808 264.071328 837.682036 271.2621z" p-id="3391" fill="#Fff"></path></svg>