<?xml version="1.0" standalone="no"?><!DOCTYPE svg PUBLIC "-//W3C//DTD SVG 1.1//EN" "http://www.w3.org/Graphics/SVG/1.1/DTD/svg11.dtd"><svg t="1672063842985" class="icon" viewBox="0 0 1024 1024" version="1.1" xmlns="http://www.w3.org/2000/svg" p-id="1498" xmlns:xlink="http://www.w3.org/1999/xlink" width="128" height="128"><path d="M643.9 402.9c-22.5 0-37.5-15-37.5-37.5V102.8H231.3c-52.5 0-93.8 41.3-93.8 93.8v637.6c0 52.5 41.3 93.8 93.8 93.8h562.6c52.5 0 93.8-41.3 93.8-93.8V402.9H643.9z m-356.3-82.6c0-22.5 15-37.5 37.5-37.5h168.8c22.5 0 37.5 15 37.5 37.5v150c0 22.5-15 37.5-37.5 37.5H325.1c-22.5 0-37.5-15-37.5-37.5v-150z m225 450.1H325.1c-22.5 0-37.5-15-37.5-37.5s15-37.5 37.5-37.5h187.5c22.5 0 37.5 15 37.5 37.5s-15 37.5-37.5 37.5z m187.6-131.3H325.1c-22.5 0-37.5-15-37.5-37.5s15-37.5 37.5-37.5h375.1c22.5 0 37.5 18.8 37.5 37.5 0 22.5-15 37.5-37.5 37.5z" p-id="1499" fill="#ffffff"></path><path d="M681.4 125.3v202.5h183.8z" p-id="1500" fill="#ffffff"></path></svg>