<svg data-v-2cb57da0="" version="1.0" xmlns="http://www.w3.org/2000/svg" xmlns:xlink="http://www.w3.org/1999/xlink" width="100%" height="100%" viewBox="0 0 340.000000 250.000000" preserveAspectRatio="xMidYMid meet" color-interpolation-filters="sRGB" style="margin: auto;"><rect data-v-2cb57da0="" x="0" y="0" width="100%" height="100%" fill="#0063dc" fill-opacity="1" class="background"></rect> <rect data-v-2cb57da0="" x="0" y="0" width="100%" height="100%" fill="url(#watermark)" fill-opacity="1" class="watermarklayer"></rect> <g data-v-2cb57da0="" fill="#feffff" class="iconbordersvg" transform="translate(66.3499984741211,81.40188217163086)"><g data-gra="graph-icon-name"><g><rect data-gra="graph-name-bg" stroke-width="3" class="i-icon-bg" x="0" y="0" width="207.3000030517578" height="87.19623565673828" fill-opacity="0" stroke="rgb(254, 255, 255)"></rect> <!----> <!----> </g> <g transform="translate(0,0)"><g data-gra="graph-icon" transform="translate(137.3000030517578,0)"><g><rect data-gra="graph-name-bg" stroke-width="2" class="i-icon-bg" x="0" y="0" width="70" height="87.19623565673828" fill-opacity="0"></rect> <!----> <!----> </g> <g transform="translate(5,5)"><g class="iconsvg-imagesvg"><g><!----> <svg filter="url(#colors8362516276)" x="0" y="0" width="60" height="77.19623282383819" filtersec="colorsf966744880" class="image-svg-svg primary" style="overflow: visible;"><svg xmlns="http://www.w3.org/2000/svg" xmlns:xlink="http://www.w3.org/1999/xlink" version="1.1" x="0px" y="0px" viewBox="10.692916870117188 0 74.61476135253906 96" enable-background="new 0 0 96 96" xml:space="preserve"><g><path d="M16.238,69.221c-2.861,7.646-5.035-23.379,1.227-29.467c0.124,3.205,1.203,3.803,2.01,6.627   c1.631-5.386,1.773-11.406,3.951-16.665c2.071-5.004,4.641-8.813,8.764-12.097c0.756,1.269,1.221,2.633,1.957,3.866   C38.679,5.734,55.402,7.111,66.637,0c0.372,2.816-1.193,5.962-1.49,8.763c-0.331,3.108-0.401,6.089-1.54,8.94   c-2.854,7.146-8.21,8.858-13.702,13.127c2.551-0.254,4.816-0.626,7.418-0.709c-4.278,1.021-4.527,5.329-6.11,8.227   c-2.351,4.303-5.308,4.836-9.206,6.949c2.374-0.488,5.678,0.698,7.334,2.185c-5.66,3.822-6.623,10.742-11.574,14.954   c-4.041,3.44-14.17,6.236-15.429,11.627l-9.261,16.238c0,0,17.01-56.831,36.569-70.855C49.646,19.445,35.067,18.889,16.238,69.221z   "></path><g><path d="M17.18,96c-2.063,0-4.154-0.689-5.998-2.848c-0.732-0.857-0.631-2.146,0.227-2.879c0.858-0.734,2.147-0.632,2.88,0.227    c1.749,2.047,3.542,1.685,7.517,0.302c0.775-0.271,1.578-0.55,2.392-0.784c2.288-0.659,4.58-1.396,6.796-2.108    c6.469-2.08,13.158-4.231,20.396-4.649c2.004-0.104,3.694,0.566,5.189,1.166c0.838,0.337,1.631,0.654,2.411,0.813    c2.658,0.54,4.699,0.688,6.24,0.449c1.946-0.302,3.855-1.731,5.701-3.115c0.644-0.483,1.276-0.956,1.905-1.386    c0.313-0.212,0.641-0.442,0.981-0.684c2.698-1.896,6.057-4.274,9.636-3.926c1.123,0.104,1.949,1.099,1.846,2.223    s-1.1,1.947-2.223,1.846c-2.092-0.203-4.76,1.688-6.908,3.2c-0.357,0.251-0.702,0.494-1.03,0.718    c-0.581,0.396-1.164,0.834-1.757,1.277c-2.143,1.605-4.571,3.426-7.527,3.884c-2.027,0.313-4.539,0.155-7.679-0.482    c-1.146-0.233-2.149-0.637-3.12-1.026c-1.256-0.505-2.344-0.94-3.432-0.878c-6.718,0.388-12.868,2.366-19.379,4.46    c-2.246,0.722-4.568,1.468-6.916,2.145c-0.725,0.209-1.453,0.465-2.182,0.718C21.388,95.272,19.299,96,17.18,96z"></path></g></g></svg></svg> <defs><filter id="colors8362516276"><feColorMatrix type="matrix" values="0 0 0 0 0.9921875  0 0 0 0 0.99609375  0 0 0 0 0.99609375  0 0 0 1 0" class="icon-fecolormatrix"></feColorMatrix></filter> <filter id="colorsf966744880"><feColorMatrix type="matrix" values="0 0 0 0 0.99609375  0 0 0 0 0.99609375  0 0 0 0 0.99609375  0 0 0 1 0" class="icon-fecolormatrix"></feColorMatrix></filter> <filter id="colorsb3320822248"><feColorMatrix type="matrix" values="0 0 0 0 0  0 0 0 0 0  0 0 0 0 0  0 0 0 1 0" class="icon-fecolormatrix"></feColorMatrix></filter></defs></g></g></g></g> <g data-gra="graph-name" transform="translate(0,0)"><g><rect data-gra="graph-name-bg" stroke-width="2" class="i-icon-bg" x="0" y="0" width="137.3000030517578" height="87.19623565673828" fill-opacity="0"></rect> <!----> <!----> </g> <g transform="translate(5,15.071117401123047)"><g data-gra="path-name" fill-rule="" class="tp-name" transform="translate(0,0)"><g transform="scale(1)"><g><path d="M7.67 3.49Q6.06 3.49 4.88 3.07 3.69 2.65 2.81 1.49L2.81 1.49Q3.01-0.28 4.4-5.06 5.78-9.84 7.41-14.86 9.04-19.88 9.68-21.56L9.68-21.56Q10.16-22.85 11.02-24.15 11.89-25.46 13.09-25.46L13.09-25.46Q13.77-25.46 14.62-24.9L14.62-24.9Q12.21-19.4 9.78-11.77 7.35-4.14 6.06 1.77L6.06 1.77Q6.75 2.01 8.07 2.01L8.07 2.01Q12.21 2.01 15.88-1.18 19.56-4.38 21.77-9.1 23.97-13.81 23.97-18.07L23.97-18.07Q23.97-22.73 21.64-25 19.32-27.27 15.42-27.27L15.42-27.27Q12.81-27.27 10.72-26.32 8.63-25.38 7.45-23.73 6.26-22.09 6.26-20.04L6.26-20.04Q6.26-18.95 6.63-18.11L6.63-18.11Q4.98-18.11 4.2-18.81 3.41-19.52 3.41-20.68L3.41-20.68Q3.41-22.57 5.22-24.5 7.03-26.42 10.1-27.67 13.17-28.91 16.75-28.91L16.75-28.91Q22.29-28.91 24.92-25.82 27.55-22.73 27.55-17.67L27.55-17.67Q27.55-12.09 24.66-7.21 21.77-2.33 17.15 0.58 12.53 3.49 7.67 3.49L7.67 3.49ZM31.88 1.77Q29.35 1.77 27.95 0.4 26.54-0.96 26.54-3.09L26.54-3.09Q26.54-5.42 28.11-8.13 29.68-10.84 32.13-12.67 34.58-14.5 36.94-14.5L36.94-14.5Q38.19-14.5 39.03-13.87 39.88-13.25 39.88-11.81L39.88-11.81Q39.88-9.88 38.39-8.17 36.9-6.47 34.55-5.38 32.21-4.3 29.76-4.02L29.76-4.02Q29.68-3.61 29.68-3.09L29.68-3.09Q29.68-2.05 30.26-1 30.84 0.04 32.77 0.04L32.77 0.04Q35.22 0.04 37.77-1.95 40.32-3.94 41.88-6.91L41.88-6.91 42.69-6.26Q41.08-2.65 38.09-0.44 35.1 1.77 31.88 1.77L31.88 1.77ZM30.2-5.5Q31.64-5.66 33.43-6.67 35.22-7.67 36.46-9.14 37.71-10.6 37.71-12.01L37.71-12.01Q37.71-12.45 37.55-12.61 37.39-12.77 37.02-12.77L37.02-12.77Q35.86-12.77 34.47-11.67 33.09-10.56 31.92-8.87 30.76-7.19 30.2-5.5L30.2-5.5ZM45.62 2.05Q42.81 2.05 41.46 0.42 40.12-1.2 40.12-3.45L40.12-3.45Q40.12-5.02 40.68-5.64 41.24-6.26 41.94-6.59 42.65-6.91 42.77-7.03L42.77-7.03Q45.34-9.68 46.66-12.53L46.66-12.53 46.66-12.93Q46.66-14.42 47.16-15.14 47.67-15.86 48.47-15.86L48.47-15.86Q49.35-15.86 49.43-15.06L49.43-15.06Q49.43-14.86 49.33-14.46 49.23-14.05 49.23-13.61L49.23-13.61Q49.23-12.85 49.47-12.01 49.71-11.16 50.24-9.72L50.24-9.72Q50.88-7.95 51.22-6.67 51.56-5.38 51.56-4.06L51.56-4.06Q51.56-3.37 51.4-2.41L51.4-2.41Q54.13-3.09 56.14-6.95L56.14-6.95 56.62-6.59Q55.82-4.3 54.39-2.89 52.97-1.49 51.04-1.2L51.04-1.2Q50.4 0.4 48.95 1.22 47.51 2.05 45.62 2.05L45.62 2.05ZM48.23-2.49Q48.35-2.85 48.35-3.73L48.35-3.73Q48.31-5.02 48.07-6.26 47.83-7.51 47.34-9.48L47.34-9.48 46.98-10.92Q45.02-7.51 43.49-5.9L43.49-5.9Q44.17-4.74 45.42-3.79 46.66-2.85 48.23-2.49L48.23-2.49ZM45.34 0.28Q46.14 0.28 46.84-0.12 47.55-0.52 47.91-1.29L47.91-1.29Q46.34-1.61 45.02-2.51 43.69-3.41 42.89-4.46L42.89-4.46Q42.33-4.34 42.33-3.37L42.33-3.37Q42.33-1.93 43.13-0.82 43.93 0.28 45.34 0.28L45.34 0.28ZM62.97-16.91Q62.12-16.91 61.54-17.31 60.96-17.71 60.96-18.47L60.96-18.47Q60.96-19.4 61.98-20.1 63.01-20.8 64.17-20.8L64.17-20.8Q65.9-20.8 65.9-19.32L65.9-19.32Q65.9-18.47 64.97-17.69 64.05-16.91 62.97-16.91L62.97-16.91ZM58.23 1.2Q56.54 1.2 55.62 0.2 54.69-0.8 54.69-2.37L54.69-2.37Q54.69-3.98 55.6-6.73 56.5-9.48 57.89-11.57 59.27-13.65 60.68-13.65L60.68-13.65Q61.2-13.65 61.54-13.35 61.88-13.05 61.88-12.49L61.88-12.49Q61.88-12.13 61.56-11.5 61.24-10.88 60.52-9.72L60.52-9.72Q59.23-7.59 58.49-5.96 57.75-4.34 57.75-2.89L57.75-2.89Q57.75-1.65 58.19-1.2 58.63-0.76 59.55-0.76L59.55-0.76Q62.73-0.76 65.86-6.91L65.86-6.91 66.46-6.26Q65.05-2.73 62.89-0.76 60.72 1.2 58.23 1.2L58.23 1.2ZM66.82 11.24Q65.7 11.24 64.89 10.58 64.09 9.92 64.09 8.67L64.09 8.67Q64.09 7.11 65.27 5.82 66.46 4.54 68.03 3.63 69.59 2.73 72.16 1.53L72.16 1.53Q73.17-1 73.77-3.49L73.77-3.49Q70.52 0.6 67.66 0.6L67.66 0.6Q66.06 0.6 65.11-0.52 64.17-1.65 64.17-3.49L64.17-3.49Q64.17-6.18 65.94-8.59 67.7-11 70.31-12.47 72.92-13.93 75.29-13.93L75.29-13.93Q76.54-13.93 77.2-13.49 77.86-13.05 77.86-12.41L77.86-12.41Q77.86-12.01 77.62-11.69 77.38-11.36 77.22-11.32L77.22-11.32Q76.82-11.73 76.42-11.89 76.02-12.05 75.41-12.05L75.41-12.05Q73.45-12.05 71.6-10.58 69.75-9.12 68.61-7.05 67.46-4.98 67.46-3.33L67.46-3.33Q67.46-2.53 67.8-2.11 68.15-1.69 68.71-1.69L68.71-1.69Q69.79-1.69 71.38-3.09 72.97-4.5 74.53-6.71L74.53-6.71Q74.97-8.95 75.58-9.94 76.18-10.92 77.3-10.92L77.3-10.92Q77.82-10.92 78.47-10.76L78.47-10.76Q78.47-9.72 77.58-6.59 76.7-3.45 75.45-0.08L75.45-0.08Q77.46-0.92 79.33-2.71 81.2-4.5 82-6.83L82-6.83 82.72-6.1Q81.84-3.57 79.57-1.53 77.3 0.52 74.93 1.61L74.93 1.61Q73.09 6.06 71.1 8.65 69.11 11.24 66.82 11.24L66.82 11.24ZM66.66 9.4Q67.46 9.4 68.75 7.91 70.03 6.43 71.4 3.41L71.4 3.41Q68.79 4.7 67.34 5.84 65.9 6.99 65.9 8.27L65.9 8.27Q65.9 8.79 66.12 9.1 66.34 9.4 66.66 9.4L66.66 9.4ZM94.53 0.8Q93 0.8 92.16 0.04 91.32-0.72 91.32-1.97L91.32-1.97Q91.32-2.49 91.5-3.17 91.68-3.86 91.88-4.54L91.88-4.54Q92.44-6.38 92.44-7.27L92.44-7.27Q92.44-8.07 92.04-8.45 91.64-8.83 91.04-8.83L91.04-8.83Q88.91-8.83 86.74-6.16 84.57-3.49 82.08 0.6L82.08 0.6Q80.35 0.6 79.47-0.56L79.47-0.56 79.83-1.57Q82.2-7.31 82.2-10.08L82.2-10.08Q82.52-10.44 83.12-10.74 83.73-11.04 84.29-11.04L84.29-11.04Q84.97-11.04 85.33-10.72 85.69-10.4 85.69-9.84L85.69-9.84Q85.69-8.75 85.01-6.26L85.01-6.26Q86.82-8.67 88.77-10.2 90.71-11.73 92.6-11.73L92.6-11.73Q94.21-11.73 95.09-10.62 95.97-9.52 95.97-7.99L95.97-7.99Q95.97-7.11 95.75-6.3 95.53-5.5 95.09-4.5L95.09-4.5Q94.41-2.81 94.41-1.97L94.41-1.97Q94.41-1.37 94.69-1.08 94.97-0.8 95.37-0.8L95.37-0.8Q96.7-0.8 98.24-2.63 99.79-4.46 101.03-6.95L101.03-6.95 101.72-6.38Q100.27-3.05 98.52-1.12 96.78 0.8 94.53 0.8L94.53 0.8ZM104.65 1.77Q102.12 1.77 100.71 0.4 99.31-0.96 99.31-3.09L99.31-3.09Q99.31-5.42 100.87-8.13 102.44-10.84 104.89-12.67 107.34-14.5 109.71-14.5L109.71-14.5Q110.95-14.5 111.8-13.87 112.64-13.25 112.64-11.81L112.64-11.81Q112.64-9.88 111.15-8.17 109.67-6.47 107.32-5.38 104.97-4.3 102.52-4.02L102.52-4.02Q102.44-3.61 102.44-3.09L102.44-3.09Q102.44-2.05 103.02-1 103.6 0.04 105.53 0.04L105.53 0.04Q107.98 0.04 110.53-1.95 113.08-3.94 114.65-6.91L114.65-6.91 115.45-6.26Q113.84-2.65 110.85-0.44 107.86 1.77 104.65 1.77L104.65 1.77ZM102.96-5.5Q104.41-5.66 106.19-6.67 107.98-7.67 109.23-9.14 110.47-10.6 110.47-12.01L110.47-12.01Q110.47-12.45 110.31-12.61 110.15-12.77 109.79-12.77L109.79-12.77Q108.62-12.77 107.24-11.67 105.85-10.56 104.69-8.87 103.52-7.19 102.96-5.5L102.96-5.5ZM121.11 1.04Q119.63 1.04 118.7 0.26 117.78-0.52 117.78-1.85L117.78-1.85Q117.78-2.61 118.08-3.51 118.38-4.42 118.98-5.7L118.98-5.7Q119.51-6.83 119.79-7.61 120.07-8.39 120.07-9L120.07-9Q120.07-10.52 118.06-11.57L118.06-11.57Q117.26-9.56 116.19-7.51 115.13-5.46 114.29-4.06L114.29-4.06 113.68-5.22Q115.53-8.51 116.94-12.49L116.94-12.49Q116.54-12.89 116.54-13.57L116.54-13.57Q116.54-14.62 117.18-15.54 117.82-16.46 118.42-16.46L118.42-16.46Q118.82-16.46 119.09-15.98 119.35-15.5 119.35-15.18L119.35-15.18Q119.35-15.02 119.17-14.48 118.98-13.93 118.9-13.69L118.9-13.69Q118.94-13.41 119.23-13.15 119.51-12.89 120.27-12.41L120.27-12.41Q121.68-11.48 122.46-10.62 123.24-9.76 123.24-8.31L123.24-8.31Q123.24-7.43 122.94-6.55 122.64-5.66 122.04-4.42L122.04-4.42Q121.15-2.65 121.15-1.89L121.15-1.89Q121.15-0.96 122.16-0.96L122.16-0.96Q123.36-0.96 124.79-1.93 126.21-2.89 127.4-4.28 128.58-5.66 129.14-6.87L129.14-6.87 130.11-6.14Q129.31-4.34 127.86-2.69 126.41-1.04 124.63 0 122.84 1.04 121.11 1.04L121.11 1.04Z" transform="translate(-2.809999942779541, 28.90999984741211)"></path></g> <!----> <!----> <!----> <!----> <!----> <!----> <!----></g></g> <g data-gra="path-slogan" fill-rule="" class="tp-slogan" fill="#feffff" transform="translate(9.595001220703125,46.150001525878906)"><!----> <!----> <g transform="scale(1, 1)"><g transform="scale(1)"><path d="M2.80 1.04Q2.06 1.04 1.44 0.80Q0.82 0.55 0.43 0.05Q0.05-0.44 0.05-1.15L0.05-1.15Q0.05-2.04 0.60-2.43Q1.15-2.82 1.90-2.82L1.90-2.82Q1.51-2.42 1.31-1.99Q1.12-1.56 1.12-1.15L1.12-1.15Q1.12-0.50 1.61-0.05Q2.11 0.41 3 0.41L3 0.41Q3.56 0.41 4.07 0.22Q4.58 0.04 4.90-0.34Q5.22-0.71 5.22-1.21L5.22-1.21Q5.22-1.66 4.97-2.00Q4.72-2.35 4.35-2.60Q3.98-2.86 3.36-3.19L3.36-3.19Q2.70-3.55 2.29-3.83Q1.88-4.10 1.61-4.51Q1.33-4.91 1.33-5.44L1.33-5.44Q1.33-6.12 1.78-6.88Q2.22-7.63 3.02-8.14Q3.83-8.64 4.82-8.64L4.82-8.64Q6.32-8.64 6.32-7.38L6.32-7.38Q6.32-6.77 6.03-6.02Q5.74-5.27 5.36-4.69L5.36-4.69Q4.84-4.80 4.84-5.30L4.84-5.30Q4.84-5.53 4.93-5.83Q5.02-6.12 5.18-6.53L5.18-6.53Q5.35-6.98 5.44-7.25Q5.52-7.51 5.52-7.73L5.52-7.73Q5.52-7.96 5.38-8.07Q5.24-8.18 4.88-8.18L4.88-8.18Q4.16-8.18 3.56-7.78Q2.96-7.37 2.61-6.79Q2.26-6.20 2.26-5.71L2.26-5.71Q2.26-5.35 2.47-5.06Q2.69-4.78 3.02-4.57Q3.35-4.36 3.91-4.06L3.91-4.06Q4.62-3.67 5.05-3.38Q5.47-3.10 5.78-2.64Q6.08-2.18 6.08-1.55L6.08-1.55Q6.08-0.76 5.61-0.17Q5.14 0.42 4.37 0.73Q3.61 1.04 2.80 1.04L2.80 1.04ZM9.18-5.05Q8.93-5.05 8.75-5.17Q8.58-5.29 8.58-5.52L8.58-5.52Q8.58-5.80 8.89-6.01Q9.19-6.22 9.54-6.22L9.54-6.22Q10.06-6.22 10.06-5.77L10.06-5.77Q10.06-5.52 9.78-5.29Q9.50-5.05 9.18-5.05L9.18-5.05ZM7.76 0.36Q7.26 0.36 6.98 0.06Q6.71-0.24 6.71-0.71L6.71-0.71Q6.71-1.19 6.98-2.01Q7.25-2.83 7.66-3.46Q8.08-4.08 8.50-4.08L8.50-4.08Q8.65-4.08 8.75-3.99Q8.86-3.90 8.86-3.73L8.86-3.73Q8.86-3.62 8.76-3.44Q8.66-3.25 8.45-2.90L8.45-2.90Q8.06-2.27 7.84-1.78Q7.62-1.30 7.62-0.86L7.62-0.86Q7.62-0.49 7.75-0.36Q7.88-0.23 8.16-0.23L8.16-0.23Q9.11-0.23 10.04-2.06L10.04-2.06L10.22-1.87Q9.80-0.82 9.16-0.23Q8.51 0.36 7.76 0.36L7.76 0.36ZM10.33 3.36Q10.00 3.36 9.76 3.16Q9.52 2.96 9.52 2.59L9.52 2.59Q9.52 2.12 9.87 1.74Q10.22 1.36 10.69 1.09Q11.16 0.82 11.93 0.46L11.93 0.46Q12.23-0.30 12.41-1.04L12.41-1.04Q11.44 0.18 10.58 0.18L10.58 0.18Q10.10 0.18 9.82-0.16Q9.54-0.49 9.54-1.04L9.54-1.04Q9.54-1.85 10.07-2.57Q10.60-3.29 11.38-3.73Q12.16-4.16 12.86-4.16L12.86-4.16Q13.24-4.16 13.43-4.03Q13.63-3.90 13.63-3.71L13.63-3.71Q13.63-3.59 13.56-3.49Q13.49-3.40 13.44-3.38L13.44-3.38Q13.32-3.50 13.20-3.55Q13.08-3.60 12.90-3.60L12.90-3.60Q12.31-3.60 11.76-3.16Q11.21-2.72 10.87-2.11Q10.52-1.49 10.52-1.00L10.52-1.00Q10.52-0.76 10.63-0.63Q10.73-0.50 10.90-0.50L10.90-0.50Q11.22-0.50 11.69-0.92Q12.17-1.34 12.64-2.00L12.64-2.00Q12.77-2.68 12.95-2.97Q13.13-3.26 13.46-3.26L13.46-3.26Q13.62-3.26 13.81-3.22L13.81-3.22Q13.81-2.90 13.55-1.97Q13.28-1.03 12.91-0.02L12.91-0.02Q13.51-0.28 14.07-0.81Q14.63-1.34 14.87-2.04L14.87-2.04L15.08-1.82Q14.82-1.07 14.14-0.46Q13.46 0.16 12.76 0.48L12.76 0.48Q12.20 1.81 11.61 2.59Q11.02 3.36 10.33 3.36L10.33 3.36ZM10.28 2.81Q10.52 2.81 10.91 2.36Q11.29 1.92 11.70 1.02L11.70 1.02Q10.92 1.40 10.49 1.75Q10.06 2.09 10.06 2.47L10.06 2.47Q10.06 2.63 10.12 2.72Q10.19 2.81 10.28 2.81L10.28 2.81ZM18.61 0.24Q18.16 0.24 17.90 0.01Q17.65-0.22 17.65-0.59L17.65-0.59Q17.65-0.74 17.71-0.95Q17.76-1.15 17.82-1.36L17.82-1.36Q17.99-1.91 17.99-2.17L17.99-2.17Q17.99-2.41 17.87-2.53Q17.75-2.64 17.57-2.64L17.57-2.64Q16.93-2.64 16.28-1.84Q15.64-1.04 14.89 0.18L14.89 0.18Q14.38 0.18 14.11-0.17L14.11-0.17L14.22-0.47Q14.93-2.18 14.93-3.01L14.93-3.01Q15.02-3.12 15.20-3.21Q15.38-3.30 15.55-3.30L15.55-3.30Q15.76-3.30 15.86-3.20Q15.97-3.11 15.97-2.94L15.97-2.94Q15.97-2.62 15.77-1.87L15.77-1.87Q16.31-2.59 16.89-3.05Q17.47-3.50 18.04-3.50L18.04-3.50Q18.52-3.50 18.78-3.17Q19.04-2.84 19.04-2.39L19.04-2.39Q19.04-2.12 18.98-1.88Q18.91-1.64 18.78-1.34L18.78-1.34Q18.58-0.84 18.58-0.59L18.58-0.59Q18.58-0.41 18.66-0.32Q18.74-0.24 18.86-0.24L18.86-0.24Q19.26-0.24 19.72-0.79Q20.18-1.33 20.56-2.08L20.56-2.08L20.76-1.91Q20.33-0.91 19.81-0.34Q19.28 0.24 18.61 0.24L18.61 0.24ZM24.04 0.56Q23.62 0.56 23.33 0.29Q23.05 0.01 23.05-0.49L23.05-0.49Q23.05-1.19 23.56-2.05Q24.07-2.92 24.86-3.52Q25.66-4.12 26.45-4.12L26.45-4.12Q26.98-4.12 27.33-3.85Q27.68-3.58 27.68-3.16L27.68-3.16Q27.68-2.60 27-2.58L27-2.58Q27.43-2.45 27.43-2.22L27.43-2.22Q27.43-2.14 27.35-1.97Q27.26-1.80 27.16-1.62L27.16-1.62Q26.96-1.31 26.86-1.07Q26.75-0.84 26.75-0.64L26.75-0.64Q26.75-0.46 26.84-0.33Q26.93-0.20 27.11-0.20L27.11-0.20Q27.44-0.20 27.97-0.67Q28.49-1.14 28.98-2.08L28.98-2.08L29.21-1.85Q28.76-0.85 28.10-0.25Q27.44 0.36 26.77 0.36L26.77 0.36Q26.29 0.36 26.03 0.04Q25.78-0.28 25.78-0.68L25.78-0.68Q25.24-0.04 24.85 0.26Q24.47 0.56 24.04 0.56L24.04 0.56ZM24.29-0.05Q24.71-0.05 25.27-0.65Q25.82-1.26 26.53-2.23L26.53-2.23L26.77-2.56Q26.81-2.62 26.87-2.62L26.87-2.62L26.92-2.60Q26.98-2.80 26.98-3.05L26.98-3.05Q26.98-3.67 26.47-3.67L26.47-3.67Q25.94-3.67 25.37-3.11Q24.79-2.54 24.40-1.76Q24.01-0.98 24.01-0.43L24.01-0.43Q24.01-0.23 24.08-0.14Q24.14-0.05 24.29-0.05L24.29-0.05ZM30.10 0.61Q29.26 0.61 28.85 0.13Q28.45-0.36 28.45-1.03L28.45-1.03Q28.45-1.50 28.62-1.69Q28.79-1.87 29.00-1.97Q29.21-2.06 29.24-2.10L29.24-2.10Q30.01-2.89 30.41-3.74L30.41-3.74L30.41-3.86Q30.41-4.31 30.56-4.52Q30.71-4.74 30.95-4.74L30.95-4.74Q31.21-4.74 31.24-4.50L31.24-4.50Q31.24-4.44 31.21-4.32Q31.18-4.20 31.18-4.07L31.18-4.07Q31.18-3.84 31.25-3.59Q31.32-3.34 31.48-2.90L31.48-2.90Q31.67-2.38 31.77-1.99Q31.87-1.61 31.87-1.21L31.87-1.21Q31.87-1.01 31.82-0.72L31.82-0.72Q32.64-0.92 33.24-2.08L33.24-2.08L33.38-1.97Q33.14-1.28 32.72-0.86Q32.29-0.44 31.72-0.36L31.72-0.36Q31.52 0.12 31.09 0.37Q30.66 0.61 30.10 0.61L30.10 0.61ZM30.88-0.74Q30.91-0.85 30.91-1.12L30.91-1.12Q30.90-1.50 30.83-1.87Q30.76-2.24 30.61-2.83L30.61-2.83L30.50-3.26Q29.92-2.24 29.46-1.76L29.46-1.76Q29.66-1.42 30.04-1.13Q30.41-0.85 30.88-0.74L30.88-0.74ZM30.01 0.08Q30.25 0.08 30.46-0.04Q30.67-0.16 30.78-0.38L30.78-0.38Q30.31-0.48 29.92-0.75Q29.52-1.02 29.28-1.33L29.28-1.33Q29.11-1.30 29.11-1.01L29.11-1.01Q29.11-0.58 29.35-0.25Q29.59 0.08 30.01 0.08L30.01 0.08ZM36.60 3.36Q36.26 3.36 36.02 3.16Q35.78 2.96 35.78 2.58L35.78 2.58Q35.78 2.11 36.14 1.73Q36.49 1.34 36.96 1.08Q37.43 0.82 38.17 0.47L38.17 0.47Q38.38-0.05 38.75-1.40L38.75-1.40Q38.32-0.79 37.90-0.44Q37.49-0.10 37.02-0.10L37.02-0.10Q36.62-0.10 36.31-0.34Q36.00-0.58 36.00-1.09L36.00-1.09Q36.00-1.50 36.19-2.13Q36.38-2.76 36.65-3.23Q36.91-3.71 37.10-3.71L37.10-3.71Q37.22-3.71 37.46-3.58Q37.70-3.46 37.75-3.31L37.75-3.31Q37.52-3 37.25-2.27Q36.98-1.54 36.98-1.12L36.98-1.12Q36.98-0.67 37.33-0.67L37.33-0.67Q37.69-0.67 38.11-1.09Q38.53-1.51 38.92-2.12L38.92-2.12Q38.94-2.21 38.99-2.52Q39.04-2.83 39.20-3.07Q39.37-3.30 39.68-3.30L39.68-3.30Q39.73-3.30 40.07-3.25L40.07-3.25Q40.06-2.95 39.79-1.94Q39.52-0.94 39.16 0.02L39.16 0.02Q39.74-0.22 40.27-0.71Q40.79-1.20 41.09-2.00L41.09-2.00L41.29-1.84Q41.04-1.01 40.42-0.44Q39.80 0.12 39.00 0.48L39.00 0.48Q38.44 1.81 37.85 2.59Q37.27 3.36 36.60 3.36L36.60 3.36ZM36.48 2.92Q36.73 2.92 37.14 2.41Q37.55 1.90 37.94 1.00L37.94 1.00Q37.25 1.34 36.75 1.76Q36.25 2.18 36.25 2.58L36.25 2.58Q36.25 2.71 36.31 2.81Q36.36 2.92 36.48 2.92L36.48 2.92ZM41.62 0.38Q41.12 0.38 40.90 0.06Q40.68-0.26 40.68-0.74L40.68-0.74Q40.68-1.25 40.89-1.79Q41.10-2.33 41.44-2.69Q41.77-3.05 42.12-3.05L42.12-3.05Q42.26-3.05 42.49-2.95L42.49-2.95Q42.56-3.50 42.88-3.86Q43.20-4.22 43.78-4.22L43.78-4.22Q44.26-4.22 44.48-3.95Q44.71-3.68 44.71-3.25L44.71-3.25Q44.71-2.83 44.49-2.29Q44.27-1.75 43.92-1.21L43.92-1.21Q44.06-1.14 44.26-1.14L44.26-1.14Q44.59-1.14 44.98-1.36Q45.36-1.58 45.56-2.04L45.56-2.04L45.78-1.88Q45.53-1.31 45.10-1.01Q44.68-0.71 44.22-0.71L44.22-0.71Q43.94-0.71 43.62-0.82L43.62-0.82Q43.18-0.29 42.65 0.05Q42.12 0.38 41.62 0.38L41.62 0.38ZM43.51-1.46Q43.81-1.91 44.01-2.39Q44.21-2.87 44.21-3.25L44.21-3.25Q44.21-3.78 43.87-3.78L43.87-3.78Q43.72-3.78 43.55-3.62Q43.38-3.47 43.27-3.21Q43.16-2.95 43.16-2.64L43.16-2.64Q43.16-2.36 43.26-2.01Q43.36-1.66 43.51-1.46L43.51-1.46ZM42.05-0.23Q42.26-0.23 42.58-0.47Q42.89-0.71 43.20-1.08L43.20-1.08Q42.52-1.68 42.48-2.84L42.48-2.84Q42.34-2.77 42.13-2.40Q41.93-2.03 41.78-1.57Q41.64-1.12 41.64-0.78L41.64-0.78Q41.64-0.23 42.05-0.23L42.05-0.23ZM46.20 0.36Q45.80 0.36 45.54-0.01Q45.28-0.38 45.28-0.89L45.28-0.89Q45.28-1.32 45.47-1.97Q45.66-2.62 45.92-3.10Q46.18-3.58 46.37-3.58L46.37-3.58Q46.45-3.58 46.63-3.49Q46.80-3.40 46.93-3.26L46.93-3.26Q46.68-2.89 46.41-2.20Q46.14-1.50 46.14-1.00L46.14-1.00Q46.14-0.77 46.21-0.52Q46.27-0.28 46.50-0.28L46.50-0.28Q46.94-0.28 47.56-1.27Q48.18-2.26 48.62-3.28L48.62-3.28Q49.34-3.16 49.34-2.87L49.34-2.87Q49.34-2.84 49.20-2.52L49.20-2.52Q48.95-1.93 48.77-1.43Q48.59-0.92 48.59-0.55L48.59-0.55Q48.59-0.13 48.91-0.13L48.91-0.13Q49.16-0.13 49.52-0.37Q49.87-0.60 50.24-1.04Q50.62-1.48 50.89-2.05L50.89-2.05L51.07-1.91Q50.81-1.26 50.39-0.74Q49.97-0.23 49.48 0.07Q49.00 0.36 48.55 0.36L48.55 0.36Q48.02 0.36 47.87-0.01Q47.72-0.37 47.72-0.98L47.72-0.98Q47.32-0.36 46.96 0Q46.60 0.36 46.20 0.36L46.20 0.36ZM57.19 0.46Q56.82 0.46 56.66 0.14Q56.51-0.18 56.48-0.74L56.48-0.74L56.50-1.03Q56.50-1.27 56.52-1.56L56.52-1.56Q56.05-0.71 55.58-0.17Q55.12 0.36 54.62 0.36L54.62 0.36Q54.23 0.36 53.96-0.01Q53.69-0.37 53.69-0.89L53.69-0.89Q53.69-1.33 53.88-1.98Q54.07-2.63 54.33-3.11Q54.59-3.59 54.78-3.59L54.78-3.59Q54.89-3.59 55.09-3.48Q55.28-3.37 55.33-3.24L55.33-3.24Q55.08-2.88 54.82-2.18Q54.55-1.49 54.55-0.98L54.55-0.98Q54.55-0.74 54.62-0.51Q54.70-0.28 54.92-0.28L54.92-0.28Q55.54-0.28 56.64-2.42L56.64-2.42Q56.74-2.93 56.81-3.16Q56.88-3.38 56.95-3.45Q57.02-3.52 57.16-3.52L57.16-3.52Q57.38-3.52 57.51-3.43Q57.64-3.34 57.64-3.17L57.64-3.17Q57.64-3.13 57.58-2.95L57.58-2.95Q57.46-2.57 57.38-1.97Q57.31-1.38 57.31-0.78L57.31-0.78Q57.31-0.46 57.35-0.31Q57.40-0.17 57.53-0.17L57.53-0.17Q57.84-0.17 58.35-0.87Q58.86-1.57 59.29-2.46L59.29-2.46Q59.29-3.31 59.47-3.65Q59.64-3.98 59.95-3.98L59.95-3.98Q60.22-3.98 60.35-3.81Q60.48-3.64 60.48-3.47L60.48-3.47Q60.48-3.35 60.41-3.23Q60.35-3.11 60.32-3.06L60.32-3.06Q60.08-2.58 60.08-1.99L60.08-1.99Q60.08-1.10 60.61-1.10L60.61-1.10Q60.84-1.10 61.06-1.31Q61.28-1.51 61.54-2.02L61.54-2.02L61.76-1.84Q61.52-1.26 61.19-1.00Q60.86-0.74 60.52-0.74L60.52-0.74Q60.14-0.74 59.86-1.01Q59.58-1.28 59.41-1.74L59.41-1.74Q58.87-0.80 58.30-0.17Q57.72 0.46 57.19 0.46L57.19 0.46ZM63.65-5.05Q63.40-5.05 63.22-5.17Q63.05-5.29 63.05-5.52L63.05-5.52Q63.05-5.80 63.35-6.01Q63.66-6.22 64.01-6.22L64.01-6.22Q64.52-6.22 64.52-5.77L64.52-5.77Q64.52-5.52 64.25-5.29Q63.97-5.05 63.65-5.05L63.65-5.05ZM62.23 0.36Q61.73 0.36 61.45 0.06Q61.18-0.24 61.18-0.71L61.18-0.71Q61.18-1.19 61.45-2.01Q61.72-2.83 62.13-3.46Q62.54-4.08 62.96-4.08L62.96-4.08Q63.12-4.08 63.22-3.99Q63.32-3.90 63.32-3.73L63.32-3.73Q63.32-3.62 63.23-3.44Q63.13-3.25 62.92-2.90L62.92-2.90Q62.53-2.27 62.31-1.78Q62.09-1.30 62.09-0.86L62.09-0.86Q62.09-0.49 62.22-0.36Q62.35-0.23 62.63-0.23L62.63-0.23Q63.58-0.23 64.51-2.06L64.51-2.06L64.69-1.87Q64.27-0.82 63.62-0.23Q62.98 0.36 62.23 0.36L62.23 0.36ZM65.60 0.61Q64.76 0.61 64.36 0.13Q63.96-0.36 63.96-1.03L63.96-1.03Q63.96-1.50 64.13-1.69Q64.30-1.87 64.51-1.97Q64.72-2.06 64.75-2.10L64.75-2.10Q65.52-2.89 65.92-3.74L65.92-3.74L65.92-3.86Q65.92-4.31 66.07-4.52Q66.22-4.74 66.46-4.74L66.46-4.74Q66.72-4.74 66.74-4.50L66.74-4.50Q66.74-4.44 66.71-4.32Q66.68-4.20 66.68-4.07L66.68-4.07Q66.68-3.84 66.76-3.59Q66.83-3.34 66.98-2.90L66.98-2.90Q67.18-2.38 67.28-1.99Q67.38-1.61 67.38-1.21L67.38-1.21Q67.38-1.01 67.33-0.72L67.33-0.72Q68.15-0.92 68.75-2.08L68.75-2.08L68.89-1.97Q68.65-1.28 68.23-0.86Q67.80-0.44 67.22-0.36L67.22-0.36Q67.03 0.12 66.60 0.37Q66.17 0.61 65.60 0.61L65.60 0.61ZM66.38-0.74Q66.42-0.85 66.42-1.12L66.42-1.12Q66.41-1.50 66.34-1.87Q66.26-2.24 66.12-2.83L66.12-2.83L66.01-3.26Q65.42-2.24 64.97-1.76L64.97-1.76Q65.17-1.42 65.54-1.13Q65.92-0.85 66.38-0.74L66.38-0.74ZM65.52 0.08Q65.76 0.08 65.97-0.04Q66.18-0.16 66.29-0.38L66.29-0.38Q65.82-0.48 65.42-0.75Q65.03-1.02 64.79-1.33L64.79-1.33Q64.62-1.30 64.62-1.01L64.62-1.01Q64.62-0.58 64.86-0.25Q65.10 0.08 65.52 0.08L65.52 0.08ZM68.96 0.46Q68.71 0.46 68.59 0.07Q68.47-0.31 68.47-0.90L68.47-0.90Q68.47-1.98 69.15-3.83Q69.83-5.69 70.70-7.13Q71.58-8.57 72.13-8.57L72.13-8.57Q72.37-8.57 72.51-8.30Q72.65-8.04 72.65-7.72L72.65-7.72Q72.65-7.16 72.25-6.24Q71.84-5.32 71.19-4.46Q70.54-3.60 69.84-3.19L69.84-3.19Q69.43-2.11 69.43-1.15L69.43-1.15L69.44-0.90Q69.47-0.94 69.55-1.16L69.55-1.16Q69.79-1.79 70.06-2.29Q70.32-2.80 70.78-3.23Q71.24-3.67 71.86-3.67L71.86-3.67Q72.41-3.67 72.66-3.32Q72.91-2.96 72.91-2.48L72.91-2.48Q72.91-2.21 72.84-1.97Q72.77-1.73 72.62-1.36L72.62-1.36Q72.60-1.31 72.53-1.13Q72.47-0.96 72.44-0.82Q72.41-0.68 72.41-0.58L72.41-0.58Q72.41-0.19 72.73-0.19L72.73-0.19Q73.00-0.19 73.36-0.46Q73.72-0.72 74.06-1.16Q74.41-1.61 74.66-2.12L74.66-2.12L74.86-1.92Q74.41-0.94 73.78-0.32Q73.15 0.29 72.43 0.29L72.43 0.29Q71.99 0.29 71.74 0.05Q71.50-0.18 71.50-0.55L71.50-0.55Q71.50-0.79 71.66-1.42L71.66-1.42Q71.84-2.00 71.84-2.29L71.84-2.29Q71.84-2.80 71.41-2.80L71.41-2.80Q70.98-2.80 70.69-2.35Q70.39-1.90 70.02-1.02L70.02-1.02Q69.72-0.28 69.49 0.09Q69.26 0.46 68.96 0.46L68.96 0.46ZM70.09-3.96Q70.58-4.40 71.04-5.11Q71.50-5.82 71.78-6.49Q72.07-7.15 72.07-7.44L72.07-7.44Q71.93-7.38 71.56-6.86Q71.18-6.34 70.78-5.55Q70.37-4.76 70.09-3.96L70.09-3.96Z" transform="translate(-0.048, 8.64)"></path></g></g></g></g></g></g></g></g><defs v-gra="od"></defs></svg>