<?xml version="1.0" encoding="UTF-8"?>
<svg width="141px" height="126px" viewBox="0 0 141 126" version="1.1" xmlns="http://www.w3.org/2000/svg" xmlns:xlink="http://www.w3.org/1999/xlink">
    <title>Combined Shape</title>
    <defs>
        <linearGradient x1="94.3877753%" y1="90.0788246%" x2="13.9795173%" y2="9.92117749%" id="linearGradient-1">
            <stop stop-color="#5A81FF" offset="0%"></stop>
            <stop stop-color="#E40C5B" offset="52.38%"></stop>
            <stop stop-color="#FF4C3B" offset="100%"></stop>
        </linearGradient>
    </defs>
    <g id="首页" stroke="none" stroke-width="1" fill="none" fill-rule="evenodd">
        <path d="M58.092,4.123 L58.211,4.331 L58.326,4.133 L128.431,125.558 L113.874,125.558 L97.489,97.177 L96.5721727,96.9059137 C88.3004758,94.5075395 79.4833571,93.229 70.232,93.229 L70.232,93.229 L69.0690036,93.2359337 C64.0393112,93.2959592 59.1395714,93.7448571 54.389,94.549 L54.389,94.549 L62.267,80.904 L63.5975556,80.8232593 C65.8150556,80.7008056 68.0311667,80.639 70.232,80.639 L70.232,80.639 L71.4705591,80.6457997 C77.2564044,80.7092 83.1187333,81.2150667 88.799,82.126 L88.799,82.126 L58.206,29.137 L7.278,117.346 L2.4158453e-13,104.741 L58.092,4.123 Z M58.318,45.392 L65.596,57.999 L37.725,106.272 L38.6650712,105.994598 C48.4310986,103.178436 59.7840313,101.919 70.511,101.919 L70.511,101.919 L71.4073704,101.922407 C72.0052222,101.927 72.6036667,101.936333 73.203,101.951 L73.203,101.951 L74.4621431,101.987667 C80.34116,102.190764 86.2560667,102.8408 91.941,103.902 L91.941,103.902 L101.239,120.007 L100.371484,119.696133 C91.0950808,116.422535 81.0874848,114.509 70.511,114.509 L70.511,114.509 L69.6324915,114.51295 C53.8429775,114.65503 39.3334364,118.6242 26.667,125.439 L26.667,125.439 L26.87,125.076 L26.59,125.558 L12.035,125.558 L58.318,45.392 Z M79.646,6.53699317e-13 L140.24,104.953 L140.24,104.956 L132.961,117.56 L65.088,6.53699317e-13 L79.646,6.53699317e-13 Z" id="Combined-Shape" fill="url(#linearGradient-1)"></path>
    </g>
</svg>