<svg width="12" height="12" viewBox="0 0 12 12" fill="none" xmlns="http://www.w3.org/2000/svg">
<path d="M5.52094 8.7642L9.46084 3.58674C9.65344 3.33366 9.6037 2.9715 9.35014 2.77932L7.9333 1.7061C7.67968 1.51398 7.31662 1.56354 7.12414 1.81662L3.184 6.99384L5.52094 8.7642ZM2.3341 6.78042C2.34382 6.7626 2.35498 6.74532 2.36764 6.72876L6.47806 1.3272C6.94108 0.71874 7.81408 0.59952 8.4238 1.06152L9.84076 2.13474C10.4506 2.59674 10.5701 3.46764 10.107 4.07598L5.97832 9.50142C5.96866 9.51402 5.9584 9.52602 5.9476 9.5373C5.90292 9.61255 5.8351 9.67133 5.75428 9.70488L2.17138 11.1892C2.10473 11.2168 2.03195 11.2262 1.96049 11.2164C1.88903 11.2065 1.82147 11.1779 1.76476 11.1333C1.70812 11.0888 1.66441 11.0299 1.63815 10.9629C1.6119 10.8958 1.60405 10.8229 1.61542 10.7518L2.21542 7.0077C2.22921 6.92105 2.27087 6.84126 2.3341 6.78042ZM2.90944 7.80192L2.53096 10.1639L4.79128 9.2274L2.90944 7.80192Z" fill="#7B7D7B"/>
</svg>
