<svg width="18" height="18" viewBox="0 0 18 18" fill="none" xmlns="http://www.w3.org/2000/svg">
<g clip-path="url(#clip0_806_12297)">
<path d="M6.52502 5.62488V3.37483C6.52502 3.00208 6.22273 2.69995 5.84995 2.69995C5.47702 2.69995 5.17492 3.00208 5.17492 3.37483V5.17492H3.37502C3.00208 5.17492 2.69995 5.47705 2.69995 5.8498C2.69995 6.22273 3.00208 6.52483 3.37502 6.52483H5.62488C6.12192 6.52483 6.52502 6.12196 6.52502 5.62488ZM6.52502 12.3749V14.6248C6.52502 14.9977 6.22273 15.2999 5.84995 15.2999C5.47702 15.2999 5.17492 14.9977 5.17492 14.6248V12.8249H3.37502C3.00208 12.8249 2.69995 12.5228 2.69995 12.1498C2.69995 11.7771 3.00208 11.4748 3.37502 11.4748H5.62488C6.12192 11.4748 6.52502 11.8778 6.52502 12.3749ZM11.4749 12.3749V14.6248C11.4749 14.9977 11.7771 15.2999 12.15 15.2999C12.5228 15.2999 12.8249 14.9977 12.8249 14.6248V12.8249H14.625C14.9977 12.8249 15.3 12.5228 15.3 12.1498C15.3 11.7771 14.9977 11.4748 14.625 11.4748H12.3749C11.8778 11.4748 11.4749 11.8778 11.4749 12.3749ZM11.4749 5.62488V3.37483C11.4749 3.00208 11.7771 2.69995 12.15 2.69995C12.5228 2.69995 12.8249 3.00208 12.8249 3.37483V5.17492H14.625C14.9977 5.17492 15.3 5.47705 15.3 5.8498C15.3 6.22273 14.9977 6.52483 14.625 6.52483H12.3749C11.8778 6.52483 11.4749 6.12196 11.4749 5.62488Z" fill="#28C57C"/>
<path d="M0 16.1998V1.7999C0 0.805749 0.805939 0 1.80009 0H16.2001C17.1942 0 18 0.805749 18 1.7999V16.1999C18 17.194 17.1942 18 16.2001 18H1.80009C0.805939 18 0 17.194 0 16.1998ZM16.2001 1.34994H1.80009C1.48177 1.34994 1.3501 1.48177 1.3501 1.7999V16.1999C1.3501 16.5182 1.48177 16.6501 1.80009 16.6501H16.65V1.7999C16.65 1.48177 16.5182 1.34994 16.2001 1.34994Z" fill="#28C57C"/>
</g>
<defs>
<clipPath id="clip0_806_12297">
<rect width="18" height="18" fill="white"/>
</clipPath>
</defs>
</svg>
