<svg width="24" height="24" viewBox="0 0 24 24" fill="none" xmlns="http://www.w3.org/2000/svg">
<path fill-rule="evenodd" clip-rule="evenodd" d="M2 11.9999C2 6.48588 6.486 1.99988 12 1.99988C17.514 1.99988 22 6.48588 22 11.9999C22 17.5139 17.514 21.9999 12 21.9999C6.486 21.9999 2 17.5139 2 11.9999ZM14.707 14.7069C15.098 14.3159 15.098 13.6839 14.707 13.2929L13.414 11.9999L14.707 10.7069C15.098 10.3159 15.098 9.68388 14.707 9.29288C14.316 8.90188 13.684 8.90188 13.293 9.29288L12 10.5859L10.707 9.29288C10.316 8.90188 9.684 8.90188 9.293 9.29288C8.902 9.68388 8.902 10.3159 9.293 10.7069L10.586 11.9999L9.293 13.2929C8.902 13.6839 8.902 14.3159 9.293 14.7069C9.488 14.9019 9.744 14.9999 10 14.9999C10.256 14.9999 10.512 14.9019 10.707 14.7069L12 13.4139L13.293 14.7069C13.488 14.9019 13.744 14.9999 14 14.9999C14.256 14.9999 14.512 14.9019 14.707 14.7069Z" fill="#FD0505"/>
<mask id="mask0_180_7069" style="mask-type:alpha" maskUnits="userSpaceOnUse" x="2" y="1" width="20" height="21">
<path fill-rule="evenodd" clip-rule="evenodd" d="M2 11.9999C2 6.48588 6.486 1.99988 12 1.99988C17.514 1.99988 22 6.48588 22 11.9999C22 17.5139 17.514 21.9999 12 21.9999C6.486 21.9999 2 17.5139 2 11.9999ZM14.707 14.7069C15.098 14.3159 15.098 13.6839 14.707 13.2929L13.414 11.9999L14.707 10.7069C15.098 10.3159 15.098 9.68388 14.707 9.29288C14.316 8.90188 13.684 8.90188 13.293 9.29288L12 10.5859L10.707 9.29288C10.316 8.90188 9.684 8.90188 9.293 9.29288C8.902 9.68388 8.902 10.3159 9.293 10.7069L10.586 11.9999L9.293 13.2929C8.902 13.6839 8.902 14.3159 9.293 14.7069C9.488 14.9019 9.744 14.9999 10 14.9999C10.256 14.9999 10.512 14.9019 10.707 14.7069L12 13.4139L13.293 14.7069C13.488 14.9019 13.744 14.9999 14 14.9999C14.256 14.9999 14.512 14.9019 14.707 14.7069Z" fill="white"/>
</mask>
<g mask="url(#mask0_180_7069)">
</g>
</svg>
