<svg width="24" height="24" viewBox="0 0 24 24" fill="none" xmlns="http://www.w3.org/2000/svg">
<path fill-rule="evenodd" clip-rule="evenodd" d="M17.312 15.897L20.707 19.293C21.098 19.684 21.098 20.316 20.707 20.707C20.512 20.902 20.256 21 20 21C19.744 21 19.488 20.902 19.293 20.707L15.897 17.312C14.543 18.365 12.846 19 11 19C6.589 19 3 15.411 3 11C3 6.589 6.589 3 11 3C15.411 3 19 6.589 19 11C19 12.846 18.365 14.543 17.312 15.897ZM11 5C7.691 5 5 7.691 5 11C5 14.309 7.691 17 11 17C14.309 17 17 14.309 17 11C17 7.691 14.309 5 11 5Z" fill="#383B46"/>
<mask id="mask0_300_412" style="mask-type:alpha" maskUnits="userSpaceOnUse" x="3" y="3" width="19" height="18">
<path fill-rule="evenodd" clip-rule="evenodd" d="M17.312 15.897L20.707 19.293C21.098 19.684 21.098 20.316 20.707 20.707C20.512 20.902 20.256 21 20 21C19.744 21 19.488 20.902 19.293 20.707L15.897 17.312C14.543 18.365 12.846 19 11 19C6.589 19 3 15.411 3 11C3 6.589 6.589 3 11 3C15.411 3 19 6.589 19 11C19 12.846 18.365 14.543 17.312 15.897ZM11 5C7.691 5 5 7.691 5 11C5 14.309 7.691 17 11 17C14.309 17 17 14.309 17 11C17 7.691 14.309 5 11 5Z" fill="white"/>
</mask>
<g mask="url(#mask0_300_412)">
</g>
</svg>
