<svg width="21" height="20" viewBox="0 0 21 20" fill="none" xmlns="http://www.w3.org/2000/svg">
<path fill-rule="evenodd" clip-rule="evenodd" d="M10.2002 18C14.6185 18 18.2002 14.4183 18.2002 10C18.2002 5.58172 14.6185 2 10.2002 2C5.78192 2 2.2002 5.58172 2.2002 10C2.2002 14.4183 5.78192 18 10.2002 18ZM13.7305 8.53033C14.0234 8.23744 14.0234 7.76256 13.7305 7.46967C13.4376 7.17678 12.9628 7.17678 12.6699 7.46967L9.2002 10.9393L7.73053 9.46967C7.43763 9.17678 6.96276 9.17678 6.66987 9.46967C6.37697 9.76256 6.37697 10.2374 6.66987 10.5303L8.31631 12.1768C8.80447 12.6649 9.59592 12.6649 10.0841 12.1768L13.7305 8.53033Z" fill="#28C57C"/>
</svg>
