<svg width="28" height="28" viewBox="0 0 28 28" fill="none" xmlns="http://www.w3.org/2000/svg">
<path d="M24.4524 13.5143C24.4837 13.816 24.5 14.1334 24.5 14.4675C24.5 16.7373 23.709 18.2625 22.9425 19.218C22.5556 19.7003 22.1704 20.0424 21.8872 20.2608C21.746 20.3698 21.6312 20.4472 21.5558 20.4953C21.5182 20.5191 21.4904 20.5357 21.4743 20.545L21.4587 20.5539C21.1762 20.7069 21 21.0023 21 21.3236V23.625C21 24.1082 20.6082 24.5 20.125 24.5H19.25C19.25 23.5335 18.4665 22.75 17.5 22.75H14C13.0335 22.75 12.25 23.5335 12.25 24.5H11.375C10.8918 24.5 10.5 24.1082 10.5 23.625V22.5703C10.5 22.1352 10.1803 21.7662 9.74974 21.704C9.74367 21.703 9.73154 21.7009 9.71385 21.6976C9.67843 21.6907 9.62089 21.6787 9.54494 21.6594C9.3927 21.6211 9.16874 21.5551 8.90201 21.4475C8.36687 21.2315 7.67468 20.8542 7.03959 20.2106C6.26416 19.4245 5.79023 18.3869 5.53663 17.6678C5.28439 16.9526 4.71033 16.3052 3.89065 16.0735C3.65955 16.0081 3.5 15.7972 3.5 15.5571V14.1677C3.5 13.9411 3.65018 13.7419 3.86804 13.6797C4.71546 13.4374 5.28286 12.7496 5.52214 12.0262C5.71861 11.4321 6.06592 10.6671 6.62966 10.0957C7.17797 9.53985 7.785 9.11545 8.26175 8.82835C8.49839 8.68585 8.69846 8.57983 8.83677 8.5106C8.9058 8.47604 8.95911 8.45082 8.99348 8.43495L9.03033 8.41822L9.03772 8.41496C9.35865 8.27678 9.56667 7.96084 9.56667 7.61129V4.68183C9.93268 4.99161 10.3482 5.3136 10.7907 5.6032C11.3466 5.96699 11.9938 6.31248 12.6722 6.49494C12.871 5.9224 13.1436 5.37633 13.4836 4.87193L13.4734 4.8709C12.9853 4.82143 12.3869 4.55635 11.7491 4.13893C11.1271 3.73186 10.5456 3.23201 10.1032 2.81412C9.66982 2.40462 9.09029 2.37529 8.65807 2.55071C8.22222 2.72759 7.81667 3.16425 7.81667 3.78284V7.06857C7.68269 7.14046 7.52815 7.22731 7.35896 7.32919C6.80069 7.66537 6.06527 8.17591 5.38384 8.86667C4.55084 9.71108 4.09631 10.7641 3.86064 11.4767C3.76409 11.7686 3.56785 11.9454 3.38697 11.9971C2.41799 12.2741 1.75 13.1599 1.75 14.1677V15.5571C1.75 16.5804 2.42989 17.4791 3.41464 17.7574C3.60031 17.8099 3.79104 17.9799 3.88626 18.2499C4.17715 19.0747 4.75758 20.3891 5.79376 21.4394C6.63523 22.2926 7.54721 22.7878 8.2471 23.0703C8.42971 23.1441 8.59891 23.2036 8.75 23.2516V23.625C8.75 25.0747 9.92525 26.25 11.375 26.25H12.25C13.2165 26.25 14 25.4665 14 24.5H17.5C17.5 25.4665 18.2835 26.25 19.25 26.25H20.125C21.5747 26.25 22.75 25.0747 22.75 23.625V21.7996C22.8139 21.7541 22.883 21.703 22.9565 21.6463C23.3296 21.3582 23.8194 20.9213 24.3075 20.313C25.291 19.0869 26.25 17.1839 26.25 14.4675C26.25 13.33 26.0881 12.3111 25.7791 11.4021C25.4683 12.1747 25.0206 12.8918 24.4524 13.5143Z" fill="#535353"/>
<path d="M24.135 6.78094C25.0548 9.00101 24.3385 11.4907 22.5414 12.91C21.8129 13.4852 20.8124 13.4411 19.9547 13.0859L15.7739 11.3546C14.9163 10.9995 14.1775 10.3233 14.069 9.40139C13.8014 7.12711 15.0551 4.86004 17.2752 3.94024C19.9539 2.83042 23.0251 4.10225 24.135 6.78094ZM21.4568 11.5366C22.6557 10.5898 23.1305 8.92849 22.5181 7.45077C21.7782 5.66497 19.7307 4.81709 17.945 5.55698C16.4673 6.16921 15.6285 7.67976 15.807 9.19691C15.8109 9.22989 15.8263 9.29576 15.9224 9.39917C16.0269 9.51159 16.2028 9.63808 16.4435 9.73776L20.6243 11.4691C20.8651 11.5688 21.0788 11.6037 21.2322 11.598C21.3733 11.5929 21.4307 11.5572 21.4568 11.5366ZM10.0625 13.125C10.7874 13.125 11.375 12.5374 11.375 11.8125C11.375 11.0876 10.7874 10.5 10.0625 10.5C9.33763 10.5 8.75 11.0876 8.75 11.8125C8.75 12.5374 9.33763 13.125 10.0625 13.125Z" fill="#535353"/>
</svg>
