<svg width="12" height="8" viewBox="0 0 12 8" fill="none" xmlns="http://www.w3.org/2000/svg">
<mask id="path-1-outside-1" maskUnits="userSpaceOnUse" x="0.000487975" y="-0.000488762" width="12" height="8" fill="black">
<rect fill="white" x="0.000487975" y="-0.000488762" width="12" height="8"/>
<path fill-rule="evenodd" clip-rule="evenodd" d="M1.14623 1.19943C0.951228 1.42034 0.951228 1.77761 1.14623 1.99798L5.27831 6.66871C5.36939 6.77326 5.47883 6.85651 5.60033 6.9134C5.72183 6.97029 5.85288 6.99961 5.98509 6.99961C6.11731 6.99961 6.24812 6.97029 6.36962 6.9134C6.49111 6.85651 6.60056 6.77326 6.69164 6.66871L10.8542 1.96416C10.9473 1.85739 10.9995 1.716 11.0005 1.56869C11.0014 1.42139 10.9508 1.27922 10.8591 1.17106C10.8138 1.11749 10.7591 1.07462 10.698 1.04511C10.6369 1.01561 10.5709 1.00009 10.5041 0.999528C10.4373 0.998965 10.3713 1.01337 10.3098 1.04184C10.2483 1.07032 10.1927 1.11225 10.1467 1.16506L6.33812 5.47088C6.29258 5.5232 6.23776 5.56486 6.17699 5.59333C6.11622 5.6218 6.05099 5.63649 5.98485 5.63649C5.91871 5.63649 5.85324 5.6218 5.79247 5.59333C5.7317 5.56486 5.67688 5.5232 5.63134 5.47088L1.85277 1.19943C1.80727 1.14712 1.75237 1.10548 1.69164 1.07701C1.63091 1.04855 1.5656 1.03387 1.4995 1.03387C1.4334 1.03387 1.36809 1.04855 1.30736 1.07701C1.24663 1.10548 1.19173 1.14712 1.14623 1.19943Z"/>
</mask>
<path fill-rule="evenodd" clip-rule="evenodd" d="M1.14623 1.19943C0.951228 1.42034 0.951228 1.77761 1.14623 1.99798L5.27831 6.66871C5.36939 6.77326 5.47883 6.85651 5.60033 6.9134C5.72183 6.97029 5.85288 6.99961 5.98509 6.99961C6.11731 6.99961 6.24812 6.97029 6.36962 6.9134C6.49111 6.85651 6.60056 6.77326 6.69164 6.66871L10.8542 1.96416C10.9473 1.85739 10.9995 1.716 11.0005 1.56869C11.0014 1.42139 10.9508 1.27922 10.8591 1.17106C10.8138 1.11749 10.7591 1.07462 10.698 1.04511C10.6369 1.01561 10.5709 1.00009 10.5041 0.999528C10.4373 0.998965 10.3713 1.01337 10.3098 1.04184C10.2483 1.07032 10.1927 1.11225 10.1467 1.16506L6.33812 5.47088C6.29258 5.5232 6.23776 5.56486 6.17699 5.59333C6.11622 5.6218 6.05099 5.63649 5.98485 5.63649C5.91871 5.63649 5.85324 5.6218 5.79247 5.59333C5.7317 5.56486 5.67688 5.5232 5.63134 5.47088L1.85277 1.19943C1.80727 1.14712 1.75237 1.10548 1.69164 1.07701C1.63091 1.04855 1.5656 1.03387 1.4995 1.03387C1.4334 1.03387 1.36809 1.04855 1.30736 1.07701C1.24663 1.10548 1.19173 1.14712 1.14623 1.19943Z" fill="#3484A7"/>
<path d="M1.14623 1.99798L1.44582 1.73294L1.44578 1.7329L1.14623 1.99798ZM5.27831 6.66871L5.57992 6.40595L5.5779 6.40367L5.27831 6.66871ZM6.69164 6.66871L6.39206 6.40364L6.39003 6.40596L6.69164 6.66871ZM10.8542 1.96416L11.1538 2.22923L11.1558 2.22692L10.8542 1.96416ZM10.8591 1.17106L10.5536 1.42922L10.554 1.42969L10.8591 1.17106ZM10.1467 1.16506L10.4463 1.43008L10.4483 1.42786L10.1467 1.16506ZM6.33812 5.47088L6.0385 5.20586L6.03642 5.20825L6.33812 5.47088ZM5.63134 5.47088L5.93305 5.20824L5.93093 5.20585L5.63134 5.47088ZM1.85277 1.19943L1.55097 1.46197L1.55317 1.46446L1.85277 1.19943ZM1.4995 1.03387L1.4995 1.43387L1.4995 1.03387ZM0.846347 0.934719C0.51802 1.30667 0.517581 1.89116 0.846672 2.26305L1.44578 1.7329C1.38487 1.66407 1.38444 1.53401 1.44611 1.46414L0.846347 0.934719ZM0.846638 2.26302L4.97872 6.93375L5.5779 6.40367L1.44582 1.73294L0.846638 2.26302ZM4.9767 6.93145C5.10296 7.07638 5.25686 7.19426 5.43071 7.27566L5.76995 6.55114C5.7008 6.51877 5.63582 6.47013 5.57991 6.40596L4.9767 6.93145ZM5.43071 7.27566C5.60461 7.35708 5.7935 7.39961 5.98509 7.39961L5.98509 6.59961C5.91226 6.59961 5.83904 6.5835 5.76995 6.55114L5.43071 7.27566ZM5.98509 7.39961C6.1768 7.39961 6.36543 7.35703 6.53923 7.27566L6.2 6.55114C6.1308 6.58354 6.05782 6.59961 5.98509 6.59961L5.98509 7.39961ZM6.53923 7.27566C6.71308 7.19426 6.86698 7.07638 6.99324 6.93145L6.39003 6.40596C6.33413 6.47013 6.26914 6.51877 6.2 6.55114L6.53923 7.27566ZM6.99121 6.93377L11.1538 2.22922L10.5547 1.6991L6.39207 6.40364L6.99121 6.93377ZM11.1558 2.22692C11.3144 2.04487 11.399 1.81004 11.4005 1.57122L10.6005 1.56617C10.6001 1.62195 10.5801 1.66991 10.5526 1.7014L11.1558 2.22692ZM11.4005 1.57122C11.402 1.33217 11.3202 1.09639 11.1643 0.912434L10.554 1.42969C10.5814 1.46205 10.6008 1.51061 10.6005 1.56617L11.4005 1.57122ZM11.1647 0.912907C11.0846 0.818121 10.9855 0.739775 10.872 0.684945L10.524 1.40528C10.5326 1.40946 10.5431 1.41685 10.5536 1.42922L11.1647 0.912907ZM10.872 0.684945C10.7585 0.630127 10.6344 0.60061 10.5075 0.599542L10.5008 1.39951C10.5075 1.39957 10.5153 1.40108 10.524 1.40528L10.872 0.684945ZM10.5075 0.599542C10.3805 0.598473 10.256 0.625945 10.1417 0.678877L10.4779 1.40481C10.4866 1.40079 10.4942 1.39946 10.5008 1.39951L10.5075 0.599542ZM10.1417 0.678877C10.0277 0.73168 9.92703 0.808316 9.84516 0.902264L10.4483 1.42786C10.4584 1.41619 10.4689 1.40895 10.4779 1.40481L10.1417 0.678877ZM9.8471 0.900049L6.03851 5.20587L6.63773 5.73589L10.4463 1.43008L9.8471 0.900049ZM6.03642 5.20825C6.02619 5.21999 6.01589 5.22708 6.0073 5.2311L6.34668 5.95555C6.45963 5.90264 6.55896 5.8264 6.63982 5.73351L6.03642 5.20825ZM6.0073 5.2311C5.99861 5.23518 5.99121 5.23649 5.98485 5.23649L5.98485 6.03649C6.11077 6.03649 6.23383 6.00842 6.34668 5.95555L6.0073 5.2311ZM5.98485 5.23649C5.97827 5.23649 5.97065 5.23508 5.96216 5.2311L5.62278 5.95555C5.73583 6.00851 5.85915 6.03649 5.98485 6.03649L5.98485 5.23649ZM5.96216 5.2311C5.95357 5.22708 5.94326 5.21999 5.93304 5.20825L5.32963 5.73351C5.41049 5.8264 5.50982 5.90264 5.62278 5.95555L5.96216 5.2311ZM5.93093 5.20585L2.15237 0.9344L1.55317 1.46446L5.33174 5.73591L5.93093 5.20585ZM2.15456 0.936896C2.07353 0.843752 1.97404 0.767616 1.86139 0.71482L1.52189 1.43921C1.5307 1.44334 1.54101 1.4505 1.55098 1.46196L2.15456 0.936896ZM1.86139 0.71482C1.74844 0.661882 1.62526 0.633868 1.4995 0.633868L1.4995 1.43387C1.50594 1.43387 1.51338 1.43522 1.52189 1.43921L1.86139 0.71482ZM1.4995 0.633868C1.37374 0.633868 1.25056 0.661882 1.13761 0.71482L1.47711 1.43921C1.48562 1.43522 1.49306 1.43387 1.4995 1.43387L1.4995 0.633868ZM1.13761 0.71482C1.02496 0.767616 0.925467 0.843752 0.844439 0.936896L1.44802 1.46196C1.45799 1.4505 1.4683 1.44334 1.47711 1.43921L1.13761 0.71482Z" fill="#3484A7" mask="url(#path-1-outside-1)"/>
</svg>
