<svg width="16" height="16" viewBox="0 0 16 16" fill="none" xmlns="http://www.w3.org/2000/svg">
<path d="M15.3109 9.75334L13.8402 8.60334C13.8589 8.426 13.8749 8.21869 13.8749 7.99934C13.8749 7.78 13.8596 7.57269 13.8402 7.39534L15.3122 6.24469C15.5856 6.02869 15.6602 5.64534 15.4862 5.32603L13.9569 2.68C13.7936 2.38134 13.4356 2.228 13.0722 2.362L11.3369 3.05866C11.0042 2.81866 10.6556 2.616 10.2949 2.454L10.0309 0.613344C9.98755 0.264 9.68355 0 9.32424 0H6.25759C5.89824 0 5.59493 0.264 5.55224 0.608L5.28758 2.45534C4.93824 2.61269 4.59493 2.81269 4.24758 3.06L2.50759 2.36134C2.18155 2.23534 1.79155 2.37666 1.62955 2.674L0.0982416 5.32334C-0.0824146 5.62869 -0.00775838 6.02534 0.271585 6.24669L1.74224 7.39669C1.7189 7.62134 1.70759 7.81669 1.70759 8.00003C1.70759 8.18338 1.71893 8.37869 1.74224 8.60403L0.270242 9.75469C-0.00310212 9.97134 -0.0771021 10.3547 0.0968979 10.6733L1.62624 13.3193C1.78959 13.6173 2.14424 13.772 2.5109 13.6373L4.24624 12.9407C4.57824 13.18 4.9269 13.3827 5.28758 13.5453L5.55158 15.3853C5.5949 15.736 5.89824 16 6.25824 16H9.3249C9.68424 16 9.98824 15.736 10.0309 15.392L10.2956 13.5453C10.6449 13.3873 10.9876 13.188 11.3356 12.94L13.0756 13.6387C13.1596 13.6713 13.2469 13.688 13.3369 13.688C13.5956 13.688 13.8336 13.5467 13.9536 13.3267L15.4896 10.6667C15.6602 10.3547 15.5856 9.97134 15.3109 9.75334ZM7.7909 10.6667C6.32024 10.6667 5.12424 9.47066 5.12424 8C5.12424 6.52934 6.32024 5.33334 7.7909 5.33334C9.26155 5.33334 10.4576 6.52934 10.4576 8C10.4576 9.47066 9.26155 10.6667 7.7909 10.6667Z" fill="#AAB6C1"/>
</svg>
