<svg width="20" height="18" viewBox="0 0 20 18" fill="none" xmlns="http://www.w3.org/2000/svg">
<path d="M19.1699 12.3998L13.2599 2.54977C12.4799 1.24977 11.2999 0.509766 9.99992 0.509766C8.69992 0.509766 7.51992 1.24977 6.73992 2.53977L0.829922 12.3998C0.389922 13.1298 0.169922 13.8898 0.169922 14.6098C0.169922 15.1798 0.309922 15.7398 0.589922 16.2298C1.22992 17.3498 2.46992 17.9998 3.99992 17.9998H15.9999C17.5299 17.9998 18.7699 17.3498 19.4099 16.2298C19.6899 15.7398 19.8299 15.2098 19.8299 14.6498C19.8399 13.9098 19.6199 13.1398 19.1699 12.3998ZM9.99992 5.44977C10.8499 5.44977 11.5499 6.14977 11.5499 6.99977C11.5499 7.84977 10.8599 8.54977 9.99992 8.54977C9.14992 8.54977 8.44992 7.84977 8.44992 6.99977C8.44992 6.13977 9.13992 5.44977 9.99992 5.44977ZM11.6899 13.9098C11.6599 13.9498 10.8899 14.8298 9.61992 14.8298H9.46992C8.95992 14.7998 8.53992 14.5798 8.28992 14.1998C7.97992 13.7298 7.92992 13.0898 8.16992 12.3798L8.57992 11.1598C8.80992 10.4798 8.58992 10.3698 8.46992 10.3098L8.32992 10.2898C8.07992 10.2898 7.72992 10.4398 7.61992 10.4998C7.51992 10.5498 7.38992 10.5298 7.30992 10.4298C7.23992 10.3298 7.23992 10.1998 7.31992 10.1098C7.34992 10.0698 8.18992 9.11977 9.53992 9.19977C10.0499 9.22976 10.4699 9.44977 10.7199 9.82977C11.0399 10.2998 11.0799 10.9398 10.8399 11.6598L10.4299 12.8798C10.1999 13.5598 10.4199 13.6698 10.5399 13.7298L10.6799 13.7498C10.9299 13.7498 11.2799 13.5998 11.3899 13.5498C11.4999 13.4898 11.6199 13.5198 11.6999 13.6198C11.7699 13.6898 11.7699 13.8198 11.6899 13.9098Z" fill="#4AA3AB"/>
</svg>
