<?xml version="1.0" standalone="no"?><!DOCTYPE svg PUBLIC "-//W3C//DTD SVG 1.1//EN" "http://www.w3.org/Graphics/SVG/1.1/DTD/svg11.dtd"><svg t="1671273702618" class="icon" viewBox="0 0 1024 1024" version="1.1" xmlns="http://www.w3.org/2000/svg" p-id="1499" xmlns:xlink="http://www.w3.org/1999/xlink" width="128" height="128"><path d="M830.926 739.954H191.958c-15.464 0-28 12.536-28 28s12.536 28 28 28h638.968c15.464 0 28-12.536 28-28s-12.536-28-28-28zM484.248 688.036c7.798 7.797 18.04 11.694 28.282 11.694s20.487-3.899 28.284-11.696l309.697-309.697c10.935-10.935 10.935-28.663 0-39.598-10.934-10.936-28.664-10.936-39.598 0L539.469 610.183V102.99c0-15.464-12.535-28-28-28-15.464 0-28 12.536-28 28v505.071L216.268 340.86c-10.935-10.936-28.664-10.935-39.598 0-10.935 10.935-10.935 28.663 0 39.598l307.578 307.578z" p-id="1500" fill="#fff"></path></svg>