<?xml version="1.0" standalone="no"?><!DOCTYPE svg PUBLIC "-//W3C//DTD SVG 1.1//EN" "http://www.w3.org/Graphics/SVG/1.1/DTD/svg11.dtd"><svg t="1669882724269" class="icon" viewBox="0 0 1024 1024" version="1.1" xmlns="http://www.w3.org/2000/svg" p-id="2517" width="128" height="128" xmlns:xlink="http://www.w3.org/1999/xlink"><path d="M742.69214375 611.63757781c12.99138469 10.36142156 33.8092875 5.1648675 44.23408219-10.36142156 5.19655406-7.763145 5.19655406-15.52628906 5.19655406-23.28943406-2.59827656-7.763145-7.79483063-15.52628906-13.02307125-20.6911575-18.21962531-10.36142156-36.43925062-23.28943406-57.25715344-31.05257906 26.01445688-25.88771156 46.83235875-54.34201312 59.85543-87.99286876 15.62134875-36.21744656 23.41617937-75.03317062 23.41617938-116.44717125 0-160.42776281-130.10396812-289.80294562-291.48232032-289.80294562-161.34666562 0-288.85235625 131.97346031-288.85235625 292.40122313 0 77.63144719 31.24269656 150.06634031 85.86988688 204.40835343-169.14149625 77.63144719-278.45924906 245.82235406-278.45924906 432.13782844 0 18.12456656 13.02307125 31.05257906 31.21101 31.05257906s31.21101-12.95969906 31.21101-31.05257906c0-173.35577438 109.28606625-328.61866969 270.6644175-388.12555031 91.09812656 54.34201312 208.17902438 51.74373656 296.67887437 0C690.63154438 583.18327625 719.24427781 596.11128875 742.69214375 611.63757781L742.69214375 611.63757781 742.69214375 611.63757781zM740.06218062 324.43290875c0 31.05257906-5.19655406 62.10515813-18.21962531 90.55945969-10.42479469 25.88771156-28.61273344 49.17714563-49.43063625 69.86830219-41.63580469 41.41400062-98.89295812 64.70343469-158.74838812 64.70343468-124.90741406 0-226.39864969-100.92088125-226.39864969-225.1311975 0-124.21031531 101.49123469-225.1311975 226.39864969-225.1311975S740.06218062 200.22259344 740.06218062 324.43290875L740.06218062 324.43290875 740.06218062 324.43290875zM984.68045562 813.47934125l-119.71086-119.01376125c-13.02307125-12.9280125-36.43925062-12.9280125-49.46232187 0-5.19655406 5.1648675-10.39310812 15.52628906-10.39310813 23.28943406 0 10.36142156 2.59827656 18.12456656 10.39310813 23.28943406l62.4537075 62.10515813-216.00554156 0c-18.21962531 0-33.84097406 15.52628906-33.84097407 33.65085563 0 18.09288 15.62134875 33.61917 33.84097407 33.61917l216.00554156 0-62.4537075 62.10515812c-5.19655406 5.1648675-10.39310812 15.52628906-10.39310812 23.28943406 0 10.329735 2.59827656 18.12456656 10.39310812 23.28943407 5.19655406 7.763145 15.62134875 10.36142156 23.41617937 10.36142156s18.21962531-2.59827656 23.41617938-10.36142156l119.71086-119.01376125c2.59827656-2.59827656 5.19655406-7.763145 7.79483063-10.36142157 2.59827656-7.763145 2.59827656-18.12456656 0-25.856025C989.87700969 821.24248531 987.27873219 816.07761781 984.68045562 813.47934125L984.68045562 813.47934125 984.68045562 813.47934125z" p-id="2518" fill="#ffffff"></path></svg>