<?xml version="1.0" standalone="no"?><!DOCTYPE svg PUBLIC "-//W3C//DTD SVG 1.1//EN" "http://www.w3.org/Graphics/SVG/1.1/DTD/svg11.dtd"><svg t="1671696848941" class="icon" viewBox="0 0 1024 1024" version="1.1" xmlns="http://www.w3.org/2000/svg" p-id="4301" xmlns:xlink="http://www.w3.org/1666/xlink" width="128" height="128"><path d="M560 848h-80c-13.232 0-24-10.768-24-24V800a8 8 0 0 1 16 0v24a8 8 0 0 0 8 8h80a8 8 0 0 0 8-8V800a8 8 0 0 1 16 0v24c0 13.232-10.768 24-24 24zM192 104H128a8 8 0 0 1 0-16h64a8 8 0 0 1 0 16z" fill="#666" p-id="4302"></path><path d="M160 136a8 8 0 0 1-8-8V64a8 8 0 0 1 16 0v64a8 8 0 0 1-8 8zM80 208H16a8 8 0 0 1 0-16h64a8 8 0 0 1 0 16z" fill="#666" p-id="4303"></path><path d="M48 240a8 8 0 0 1-8-8v-64a8 8 0 0 1 16 0v64a8 8 0 0 1-8 8zM120 776A8 8 0 0 1 112 768V264c0-26.464 21.536-48 48-48h720c26.464 0 48 21.536 48 48V528a8 8 0 0 1-16 0V264c0-17.648-14.352-32-32-32H160c-17.648 0-32 14.352-32 32V768a8 8 0 0 1-8 8zM548 952h-32a8 8 0 0 1 0-16h32a8 8 0 0 1 0 16zM484 952h-320a8 8 0 0 1 0-16h320a8 8 0 0 1 0 16zM488 152h-32a8 8 0 0 1 0-16h32a8 8 0 0 1 0 16zM840 152h-320a8 8 0 0 1 0-16h320a8 8 0 0 1 0 16z" fill="#666" p-id="4304"></path><path d="M992 968H800c-13.232 0-24-10.768-24-24V576c0-13.232 10.768-24 24-24h192c13.232 0 24 10.768 24 24v368c0 13.232-10.768 24-24 24z m-192-400a8 8 0 0 0-8 8v368a8 8 0 0 0 8 8h192a8 8 0 0 0 8-8V576a8 8 0 0 0-8-8H800zM744 888h-672c-26.464 0-48-21.536-48-48s21.536-48 48-48h672a8 8 0 0 1 0 16h-672c-17.648 0-32 14.352-32 32s14.352 32 32 32h672a8 8 0 0 1 0 16z" fill="#666" p-id="4305"></path><path d="M744 728h-560c-13.232 0-24-10.768-24-24V288c0-13.232 10.768-24 24-24h672c13.232 0 24 10.768 24 24v240a8 8 0 0 1-16 0V288a8 8 0 0 0-8-8h-672a8 8 0 0 0-8 8v416a8 8 0 0 0 8 8h560a8 8 0 0 1 0 16z" fill="#666" p-id="4306"></path><path d="M936 600h-80a8 8 0 0 1-7.76-6.064l-8-32a8 8 0 0 1 15.52-3.872l6.48 25.936h67.504l6.48-25.936a7.936 7.936 0 0 1 9.696-5.824 7.984 7.984 0 0 1 5.824 9.696l-8 32a7.968 7.968 0 0 1-7.744 6.064z" fill="#666" p-id="4307"></path><path d="M516 644l-168-192 64-88h208l64 88z" fill="#fcca00" p-id="4308"></path><path d="M516 652a7.952 7.952 0 0 1-6.016-2.736l-168-192a7.968 7.968 0 0 1-0.448-9.968l64-88a8 8 0 0 1 6.464-3.296h208c2.56 0 4.976 1.232 6.464 3.296l64 88a7.968 7.968 0 0 1-0.448 9.968l-168 192a7.952 7.952 0 0 1-6.016 2.736z m-157.76-200.464l157.76 180.32 157.76-180.32-57.84-79.536h-199.84l-57.84 79.536z" fill="#666" p-id="4309"></path><path d="M516 652a8 8 0 0 1-7.488-5.184l-72-192a7.952 7.952 0 0 1 0.576-6.832l51.232-88a8 8 0 0 1 6.912-3.984h49.52c3.04 0 5.824 1.728 7.184 4.464l43.232 88a7.952 7.952 0 0 1 0.32 6.336l-72 192a8 8 0 0 1-7.488 5.2z m-63.168-199.264l63.168 168.48 63.296-168.784-39.536-80.432h-39.936l-46.992 80.736z" fill="#666" p-id="4310"></path><path d="M684 460h-336a8 8 0 0 1 0-16h336a8 8 0 0 1 0 16zM896 776h-80a8 8 0 0 1-8-8v-80a8 8 0 0 1 8-8h80a8 8 0 0 1 8 8v80a8 8 0 0 1-8 8z m-72-16h64v-64h-64v64z" fill="#666" p-id="4311"></path><path d="M896 688h80v80h-80z" fill="#0455cc" p-id="4312" data-spm-anchor-id="a313x.7781069.0.i12" class="selected"></path><path d="M976 776h-80a8 8 0 0 1-8-8v-80a8 8 0 0 1 8-8h80a8 8 0 0 1 8 8v80a8 8 0 0 1-8 8z m-72-16h64v-64h-64v64z" fill="#666" p-id="4313"></path><path d="M816 768h80v80h-80z" fill="#40C4FF" p-id="4314" data-spm-anchor-id="a313x.7781069.0.i11" class="selected"></path><path d="M896 856h-80a8 8 0 0 1-8-8v-80a8 8 0 0 1 8-8h80a8 8 0 0 1 8 8v80a8 8 0 0 1-8 8z m-72-16h64v-64h-64v64z" fill="#666" p-id="4315"></path><path d="M976 856h-80a8 8 0 0 1-8-8v-80a8 8 0 0 1 8-8h80a8 8 0 0 1 8 8v80a8 8 0 0 1-8 8z m-72-16h64v-64h-64v64z" fill="#666" p-id="4316"></path><path d="M824 408a8 8 0 0 1-8-8v-72h-72a8 8 0 0 1 0-16h80a8 8 0 0 1 8 8v80a8 8 0 0 1-8 8z" fill="#666" p-id="4317"></path></svg>