<?xml version="1.0" standalone="no"?><!DOCTYPE svg PUBLIC "-//W3C//DTD SVG 1.1//EN" "http://www.w3.org/Graphics/SVG/1.1/DTD/svg11.dtd"><svg t="1671714211401" class="icon" viewBox="0 0 1024 1024" version="1.1" xmlns="http://www.w3.org/2000/svg" p-id="3241" xmlns:xlink="http://www.w3.org/1999/xlink" width="128" height="128"><path d="M988 256h-112a8 8 0 0 1 0-16h104v-64c0-35.296-28.704-64-64-64a8 8 0 0 1 0-16c44.112 0 80 35.888 80 80v72a8 8 0 0 1-8 8zM611.984 544H332a8 8 0 0 1 0-16h279.984a8 8 0 0 1 0 16zM531.984 608H332a8 8 0 0 1 0-16h199.984a8 8 0 0 1 0 16zM531.984 720H332a8 8 0 0 1 0-16h199.984a8 8 0 0 1 0 16zM691.984 480H332a8 8 0 0 1 0-16h359.984a8 8 0 0 1 0 16z" fill="#666" p-id="3242"></path><path d="M969.728 310.592l-7.648-14.592-315.984 315.968a79.968 79.968 0 0 0-23.424 56.576v34.752l22.624 22.624h34.752a80.064 80.064 0 0 0 56.576-23.424l204.512-204.512a160.064 160.064 0 0 0 28.592-187.392z" fill="#fcca00" p-id="3243"></path><path d="M680.048 733.92h-34.752a8.064 8.064 0 0 1-5.664-2.336l-22.624-22.624a8 8 0 0 1-2.336-5.664v-34.736c0-23.52 9.152-45.616 25.76-62.224l315.984-315.984a8.016 8.016 0 0 1 12.752 1.936l7.648 14.592a167.248 167.248 0 0 1-30.032 196.752L742.272 708.144a87.488 87.488 0 0 1-62.224 25.776z m-31.44-16h31.44a71.52 71.52 0 0 0 50.912-21.088L935.472 492.32a151.312 151.312 0 0 0 27.152-178.016l-2.592-4.96-308.288 308.288a71.488 71.488 0 0 0-21.072 50.912v31.424l17.936 17.952zM188 824a8 8 0 0 1-8-8V184c0-48.528 39.488-88 88-88h648a8 8 0 0 1 0 16c-35.296 0-64 28.704-64 64v192.832a8 8 0 0 1-16 0V176c0-26.144 12.608-49.392 32.048-64H268a72.08 72.08 0 0 0-72 72V816a8 8 0 0 1-8 8zM768 999.6a8 8 0 0 1-0.4-16 71.824 71.824 0 0 0 68.4-71.616V640.352a8 8 0 0 1 16 0V912c0 46.752-36.72 85.232-83.6 87.6H768z" fill="#666" p-id="3244"></path><path d="M560.704 795.872a8 8 0 0 1-5.664-13.648l220.352-220.352a8 8 0 0 1 11.312 11.312L566.352 793.536a7.968 7.968 0 0 1-5.648 2.336z" fill="#666" p-id="3245"></path><path d="M700 920V848h-656v72a72 72 0 0 0 72 72h656a72 72 0 0 1-72-72z" fill="#0455cc" p-id="3246"></path><path d="M772 1000h-656c-44.112 0-80-35.888-80-80V848a8 8 0 0 1 8-8h656a8 8 0 0 1 8 8v72c0 35.296 28.704 64 64 64a8 8 0 0 1 0 16z m-720-144v64c0 35.296 28.704 64 64 64h608.048a79.952 79.952 0 0 1-32.048-64v-64h-640z" fill="#666" p-id="3247"></path><path d="M700 272m-64 0a64 64 0 1 0 128 0 64 64 0 1 0-128 0Z" fill="#666" p-id="3248"></path><path d="M700 344c-39.696 0-72-32.304-72-72s32.304-72 72-72 72 32.304 72 72-32.304 72-72 72z m0-128c-30.88 0-56 25.12-56 56s25.12 56 56 56 56-25.12 56-56-25.12-56-56-56zM516 256h-144a8 8 0 0 1 0-16h144a8 8 0 0 1 0 16zM448 304h-76a8 8 0 0 1 0-16H448a8 8 0 0 1 0 16zM100 144h-64a8 8 0 0 1 0-16h64a8 8 0 0 1 0 16zM188 72h-64a8 8 0 0 1 0-16h64a8 8 0 0 1 0 16z" fill="#666" p-id="3249"></path><path d="M156 104a8 8 0 0 1-8-8V32a8 8 0 0 1 16 0v64a8 8 0 0 1-8 8zM68 176a8 8 0 0 1-8-8v-64a8 8 0 0 1 16 0v64a8 8 0 0 1-8 8zM124 600a8 8 0 0 1-8-8v-32a8 8 0 0 1 16 0v32a8 8 0 0 1-8 8zM124 536a8 8 0 0 1-8-8V272a8 8 0 0 1 16 0v256a8 8 0 0 1-8 8z" fill="#666" p-id="3250"></path><path d="M908 672a8 8 0 0 1-8-8v-32a8 8 0 0 1 16 0v32a8 8 0 0 1-8 8z" fill="#666" p-id="3251"></path><path d="M908 960a8 8 0 0 1-8-8v-256a8 8 0 0 1 16 0v256a8 8 0 0 1-8 8z" fill="#666" p-id="3252"></path><path d="M556 344h-224a8 8 0 0 1-8-8v-128a8 8 0 0 1 8-8h224a8 8 0 0 1 8 8v128a8 8 0 0 1-8 8z m-216-16h208v-112h-208v112z" fill="#666" p-id="3253"></path></svg>