<?xml version="1.0" standalone="no"?><!DOCTYPE svg PUBLIC "-//W3C//DTD SVG 1.1//EN" "http://www.w3.org/Graphics/SVG/1.1/DTD/svg11.dtd"><svg t="1669882837531" class="icon" viewBox="0 0 1024 1024" version="1.1" xmlns="http://www.w3.org/2000/svg" p-id="2763" width="128" height="128" xmlns:xlink="http://www.w3.org/1999/xlink"><path d="M922.10449939 940.97553903H104.93630708c-41.64601561 0-75.5238625-33.8778469-75.5238625-75.5238625V180.34235237c0-41.64601561 33.8778469-75.5238625 75.5238625-75.52386251h354.53058886c41.64601561 0 75.5238625 33.8778469 75.5238625 75.52386251 0 11.86803554-9.71021089 21.57824643-21.57824643 21.57824643s-21.57824643-9.71021089-21.57824643-21.57824643c0-17.90994454-14.45742511-32.36736965-32.36736964-32.36736965H104.93630708c-17.90994454 0-32.36736965 14.45742511-32.36736965 32.36736965v685.10932416c0 17.90994454 14.45742511 32.36736965 32.36736965 32.36736964h817.16819231c11.86803554 0 21.57824643 9.71021089 21.57824644 21.57824644s-9.49442843 21.57824643-21.57824644 21.57824642z" fill="#ffffff" p-id="2764"></path><path d="M922.10449939 940.97553903c-11.86803554 0-21.57824643-9.71021089-21.57824642-21.57824642s9.71021089-21.57824643 21.57824642-21.57824644c17.90994454 0 32.36736965-14.45742511 32.36736965-32.36736964V421.58714746c0-17.90994454-14.45742511-32.36736965-32.36736965-32.36736965H283.81996999c-17.90994454 0-32.36736965 14.45742511-32.36736964 32.36736965v289.79584956c0 11.86803554-9.71021089 21.57824643-21.57824644 21.57824643s-21.57824643-9.71021089-21.57824643-21.57824643V421.58714746c0-41.64601561 33.8778469-75.5238625 75.52386251-75.52386251h638.2845294c41.64601561 0 75.5238625 33.8778469 75.52386251 75.52386251v443.86452907c0 41.64601561-33.8778469 75.5238625-75.52386251 75.5238625zM760.0518687 277.87602624h-192.26217569c-41.64601561 0-75.5238625-33.8778469-75.5238625-75.52386252v-11.22068814c0-11.86803554 9.71021089-21.57824643 21.57824643-21.57824643s21.57824643 9.71021089 21.57824642 21.57824643v11.22068814c0 17.90994454 14.45742511 32.36736965 32.36736965 32.36736965H760.0518687c11.86803554 0 21.57824643 9.71021089 21.57824645 21.57824642s-9.71021089 21.57824643-21.57824645 21.57824645z" fill="#ffffff" p-id="2765"></path><path d="M176.1445203 940.97553903h-17.04681468c-11.86803554 0-21.57824643-9.71021089-21.57824642-21.57824642s9.71021089-21.57824643 21.57824642-21.57824644h17.04681468c17.90994454 0 32.36736965-14.45742511 32.36736965-32.36736964v-181.9046174c0-11.86803554 9.71021089-21.57824643 21.57824643-21.57824644s21.57824643 9.71021089 21.57824643 21.57824644v181.9046174c-0.21578247 41.64601561-33.8778469 75.5238625-75.52386251 75.5238625zM850.68050372 389.43556028c-11.86803554 0-21.57824643-9.71021089-21.57824644-21.57824644v-57.3981355c0-17.90994454-14.45742511-32.36736965-32.36736964-32.36736964h-97.53367386c-11.86803554 0-21.57824643-9.71021089-21.57824644-21.57824643s9.71021089-21.57824643 21.57824644-21.57824643H796.73488764c41.64601561 0 75.5238625 33.8778469 75.5238625 75.5238625v57.3981355c0 11.86803554-9.71021089 21.57824643-21.57824642 21.57824644z" fill="#ffffff" p-id="2766"></path><path d="M613.53557544 784.53325242c-11.86803554 0-21.57824643-9.71021089-21.57824643-21.57824644V534.00981135c0-11.86803554 9.71021089-21.57824643 21.57824643-21.57824642s21.57824643 9.71021089 21.57824643 21.57824642v228.94519463c0 11.86803554-9.71021089 21.57824643-21.57824643 21.57824644z" fill="#ffffff" p-id="2767"></path><path d="M705.89047017 647.94295251c-5.61034407 0-11.00490568-2.15782465-15.32055497-6.25769146L598.21502048 549.33036633c-8.41551611-8.41551611-8.41551611-22.00981135 0-30.42532748 8.41551611-8.41551611 22.00981135-8.41551611 30.42532747 0L721.21102514 611.25993358c8.41551611 8.41551611 8.41551611 22.00981135 0 30.42532747-4.31564928 4.31564928-9.71021089 6.25769147-15.32055497 6.25769146z" fill="#ffffff" p-id="2768"></path><path d="M520.96489826 647.94295251c-5.61034407 0-11.00490568-2.15782465-15.32055496-6.25769146-8.41551611-8.41551611-8.41551611-22.00981135 0-30.42532747l92.57067718-92.57067719c8.41551611-8.41551611 22.00981135-8.41551611 30.42532747 0 8.41551611 8.41551611 8.41551611 22.00981135 0 30.42532747l-92.57067719 92.57067719c-4.09986682 4.31564928-9.49442843 6.25769147-15.1047725 6.25769146z" fill="#ffffff" p-id="2769"></path></svg>