<?xml version="1.0" encoding="UTF-8"?>
<svg width="48px" height="48px" viewBox="0 0 48 48" version="1.1" xmlns="http://www.w3.org/2000/svg" xmlns:xlink="http://www.w3.org/1999/xlink">
    <title>icon- copy</title>
    <g id="Page1" stroke="none" stroke-width="1" fill="none" fill-rule="evenodd">
        <g id="Icon" transform="translate(-684.000000, -250.000000)">
            <g id="icon--copy" transform="translate(684.000000, 250.000000)">
                <rect id="Rectangle" x="0" y="0" width="48" height="48"></rect>
                <path d="M26,17.5 L14,17.5 C11.5147186,17.5 9.5,19.5147186 9.5,22 L9.5,34 C9.5,36.4852814 11.5147186,38.5 14,38.5 L26,38.5 C28.4852814,38.5 30.5,36.4852814 30.5,34 L30.5,22 C30.5,19.5147186 28.4852814,17.5 26,17.5 Z M26,20.5 C26.8284271,20.5 27.5,21.1715729 27.5,22 L27.5,34 C27.5,34.8284271 26.8284271,35.5 26,35.5 L14,35.5 C13.1715729,35.5 12.5,34.8284271 12.5,34 L12.5,22 C12.5,21.1715729 13.1715729,20.5 14,20.5 L26,20.5 Z" id="Rectangle" fill="#fff" fill-rule="nonzero"></path>
                <path d="M34,9.5 C36.4852814,9.5 38.5,11.5147186 38.5,14 L38.5,26 C38.5,28.4852814 36.4852814,30.5 34,30.5 L29,30.5 L29,27.5 L34,27.5 C34.8284271,27.5 35.5,26.8284271 35.5,26 L35.5,14 C35.5,13.1715729 34.8284271,12.5 34,12.5 L22,12.5 C21.1715729,12.5 20.5,13.1715729 20.5,14 L20.5,19 L17.5,19 L17.5,14 C17.5,11.5147186 19.5147186,9.5 22,9.5 L34,9.5 Z" id="path" fill="#fff" fill-rule="nonzero"></path>
            </g>
        </g>
    </g>
</svg>