<?xml version="1.0" standalone="no"?><!DOCTYPE svg PUBLIC "-//W3C//DTD SVG 1.1//EN" "http://www.w3.org/Graphics/SVG/1.1/DTD/svg11.dtd"><svg t="1669882878782" class="icon" viewBox="0 0 1024 1024" version="1.1" xmlns="http://www.w3.org/2000/svg" p-id="3455" width="128" height="128" xmlns:xlink="http://www.w3.org/1999/xlink"><path d="M975.1194672 65.89339325c-26.45098431-34.51050507-74.65661539-46.79672949-128.80084078-32.31383135L123.30990534 226.84142161c-49.47818738 13.27094094-82.33739985 41.47926358-92.50269675 79.44384943-10.25619447 38.28272518 4.31760018 79.58019471 41.03992926 116.28737455l269.93335476 269.93335583 259.78320708 259.76805677c28.84460133 28.87490087 60.76454607 44.11527268 92.26030573 44.11527268 48.85705901 0 87.57911851-35.7982106 103.68301079-95.77498454l192.71647858-722.44818966c11.86203936-44.25161797 6.51427496-84.12503773-15.10402759-112.27276342z m-43.43354628 96.60820547L738.93914386 884.96493868c-4.10550763 15.25552212-16.70987141 50.82649095-45.13028767 50.82648987-14.87678476 0-32.43502739-9.3472263-49.41758937-26.36008674L406.04456824 671.08464322l182.11184523-182.12699554a30.29895063 30.29895063 0 1 0-42.84271637-42.84271638L363.2018508 628.24192578 114.68985424 379.74507844c-20.46694123-20.46694123-29.70812178-41.52471236-25.36022207-57.7649499 4.27215246-15.93724851 22.37577514-29.2839367 49.65998037-36.58598381L862.01348287 92.13228502a110.77296534 110.77296534 0 0 1 28.31437051-4.09035839c11.60449804 0 27.37510279 2.54511154 36.72232802 14.74043947 9.87745818 12.8619051 11.51360154 34.05602151 4.63573952 59.71923262z" fill="#ffffff" p-id="3456"></path><path d="M757.90628701 628.196477a15.24037288 15.24037288 0 0 0-18.4975093 10.86217467l-1.56039609 5.95374354a15.17977486 15.17977486 0 0 0 29.34453366 7.65048491l1.5603961-5.96889277a15.17977486 15.17977486 0 0 0-10.84702437-18.49751035zM746.49873227 672.16025515a15.14947532 15.14947532 0 0 0-18.48236005 10.86217468l-32.2986821 124.36204456a15.14947532 15.14947532 0 1 0 29.32938442 7.60503614l32.31383135-124.36204456a15.16462455 15.16462455 0 0 0-10.86217362-18.46721082z" fill="#ffffff" p-id="3457"></path></svg>