<?xml version="1.0" standalone="no"?><!DOCTYPE svg PUBLIC "-//W3C//DTD SVG 1.1//EN" "http://www.w3.org/Graphics/SVG/1.1/DTD/svg11.dtd"><svg t="1671273689278" class="icon" viewBox="0 0 1024 1024" version="1.1" xmlns="http://www.w3.org/2000/svg" p-id="1344" xmlns:xlink="http://www.w3.org/1999/xlink" width="128" height="128"><path d="M1017.6 492.8C1011.2 480 787.2 192 512 192 236.8 192 12.8 480 6.4 492.8c-6.4 12.8-6.4 25.6 0 38.4C12.8 544 236.8 832 512 832c275.2 0 499.2-288 505.6-300.8 6.4-12.8 6.4-25.6 0-38.4zM512 768c-204.8 0-384-192-441.6-256C128 448 307.2 256 512 256s384 192 441.6 256c-57.6 64-236.8 256-441.6 256z" fill="#fff" p-id="1345"></path><path d="M512 352C422.4 352 352 422.4 352 512s70.4 160 160 160 160-70.4 160-160S601.6 352 512 352z m0 256c-51.2 0-96-44.8-96-96S460.8 416 512 416s96 44.8 96 96S563.2 608 512 608z" fill="#fff" p-id="1346"></path></svg>