<?xml version="1.0" standalone="no"?><!DOCTYPE svg PUBLIC "-//W3C//DTD SVG 1.1//EN" "http://www.w3.org/Graphics/SVG/1.1/DTD/svg11.dtd"><svg t="1671273631806" class="icon" viewBox="0 0 1024 1024" version="1.1" xmlns="http://www.w3.org/2000/svg" p-id="1036" xmlns:xlink="http://www.w3.org/1999/xlink" width="128" height="128"><path d="M917.284001 297.722752c-5.406127-5.437849-13.06762-8.396227-21.479197-8.396227-9.611915 0-18.953677 3.844561-25.713638 10.543124L511.980046 659.992589 153.873018 299.91672c-6.729262-6.745634-16.072047-10.619872-25.654286-10.619872-8.470929 0-16.131399 2.989077-21.598924 8.457626-12.301164 12.435217-11.32493 33.69031 2.192945 47.312562l376.764969 378.821815c6.758937 6.788613 15.860223 10.723226 25.052582 10.8143l3.425006 0c8.981559-0.301875 17.814738-4.205788 24.423249-10.8143l376.733247-378.852514C928.728658 331.382363 929.690566 310.113967 917.284001 297.722752" fill="#fff" p-id="1037"></path></svg>