<?xml version="1.0" standalone="no"?><!DOCTYPE svg PUBLIC "-//W3C//DTD SVG 1.1//EN" "http://www.w3.org/Graphics/SVG/1.1/DTD/svg11.dtd"><svg t="1669958431697" class="icon" viewBox="0 0 1024 1024" version="1.1" xmlns="http://www.w3.org/2000/svg" p-id="2121" xmlns:xlink="http://www.w3.org/1999/xlink" width="128" height="128"><path d="M862.04822659 381.85758829c0 79.01503509-60.42326277 139.43829787-139.43829787 139.43829788s-139.43829787-60.42326277-139.43829787-139.43829788 60.42326277-139.43829787 139.43829787-139.43829787 139.43829787 65.07120531 139.43829787 139.43829787z m-511.2737585-278.87659574c-102.25475214 0-185.91773086 83.66297872-185.91773086 185.91773086s83.66297872 185.91773086 185.91773086 185.91773086 185.91773086-83.66297872 185.91773086-185.91773086-79.01503509-185.91773086-185.91773086-185.91773086z m646.06411384 660.00794362c-46.47943299-116.19858192-153.38212766-204.50950318-274.22865321-195.21361702-27.88765958 4.64794363-60.42326277 9.29588617-92.95886489 18.59177341 0 0 74.36709256 74.36709256 97.60680852 134.79035425 13.94382978 32.5356032 13.94382978 79.01503509 0 106.90269467-13.94382978 27.88765958 4.64794363 65.07120531 37.18354573 65.0712064h148.73418513c65.07120531 0 106.90269467-69.71914894 83.66297872-130.14241171z m-409.01900746 130.14241171c74.36709256 0 125.49446809-79.01503509 92.95886489-148.73418512-55.77531915-130.14241171-181.26978723-223.10127659-325.35602765-223.10127659s-269.58070958 92.95886489-325.35602873 223.10127659c-27.88765958 69.71914894 23.23971595 148.73418403 92.95886489 148.73418512h464.7943266z" p-id="2122"></path></svg>