<?xml version="1.0" standalone="no"?><!DOCTYPE svg PUBLIC "-//W3C//DTD SVG 1.1//EN" "http://www.w3.org/Graphics/SVG/1.1/DTD/svg11.dtd"><svg t="1671273720247" class="icon" viewBox="0 0 1024 1024" version="1.1" xmlns="http://www.w3.org/2000/svg" p-id="1653" width="128" height="128" xmlns:xlink="http://www.w3.org/1999/xlink"><path d="M530.525591 1024H138.047312A130.367312 130.367312 0 0 1 7.790108 893.797849V130.202151A130.367312 130.367312 0 0 1 138.047312 0h586.102365a130.367312 130.367312 0 0 1 130.202151 130.202151v309.016774a27.526882 27.526882 0 0 1-55.053763 0V130.202151A75.203441 75.203441 0 0 0 724.149677 55.053763H138.047312A75.258495 75.258495 0 0 0 62.843871 130.202151v763.595698A75.258495 75.258495 0 0 0 138.047312 968.946237h392.478279a27.526882 27.526882 0 1 1 0 55.053763z" fill="#fff" p-id="1654"></path><path d="M592.901505 314.246882h-407.397849a27.526882 27.526882 0 0 1 0-55.053764h407.397849a27.526882 27.526882 0 0 1 0 55.053764zM484.610753 498.346667H185.338495a27.526882 27.526882 0 0 1 0-55.053764h299.272258a27.526882 27.526882 0 0 1 0 55.053764zM436.934194 692.356129h-251.595699a27.526882 27.526882 0 0 1 0-55.053763h251.595699a27.526882 27.526882 0 1 1 0 55.053763zM867.454624 835.606022h-113.465807a22.021505 22.021505 0 0 1 0-44.043011h113.465807a22.021505 22.021505 0 0 1 0 44.043011z" fill="#fff" p-id="1655"></path><path d="M753.988817 835.606022a22.021505 22.021505 0 0 1-22.021505-22.021506v-132.459355a22.021505 22.021505 0 0 1 44.043011 0v132.459355a22.021505 22.021505 0 0 1-22.021506 22.021506z" fill="#fff" p-id="1656"></path><path d="M776.010323 1020.366452a240.19957 240.19957 0 1 1 240.199569-240.19957 240.474839 240.474839 0 0 1-240.199569 240.19957z m0-425.345377a185.145806 185.145806 0 1 0 185.145806 185.145807 185.366022 185.366022 0 0 0-185.145806-185.145807z" fill="#fff" p-id="1657"></path></svg>