<?xml version="1.0" standalone="no"?><!DOCTYPE svg PUBLIC "-//W3C//DTD SVG 1.1//EN" "http://www.w3.org/Graphics/SVG/1.1/DTD/svg11.dtd"><svg t="1669882863360" class="icon" viewBox="0 0 1024 1024" version="1.1" xmlns="http://www.w3.org/2000/svg" p-id="3163" width="128" height="128" xmlns:xlink="http://www.w3.org/1999/xlink"><path d="M754.05775176 996.11550465H237.50650909A158.78988579 158.78988579 0 0 1 76.29604614 839.74619602V215.23719549a158.78988579 158.78988579 0 0 1 161.21046295-156.36930749h455.55268913a31.4675074 31.4675074 0 1 1 0 62.45090005H237.50650909a96.82310048 96.82310048 0 0 0-96.82310049 93.91840744v624.50900053a96.82310048 96.82310048 0 0 0 96.82310049 93.91840857H754.05775176a96.82310048 96.82310048 0 0 0 96.8231016-93.91840857V262.1963998a31.9516233 31.9516233 0 0 1 32.43573804-31.4675074 31.4675074 31.4675074 0 0 1 31.95162328 31.4675074v577.54979622A158.78988579 158.78988579 0 0 1 754.05775176 996.11550465zM527.97581163 402.58989566h-193.64620207a31.4675074 31.4675074 0 1 1 0-62.45090004h193.64620207a31.4675074 31.4675074 0 1 1 0 62.45090004zM657.23465129 589.94259581H334.32960956a31.4675074 31.4675074 0 1 1 0-62.45090005H657.23465129a31.4675074 31.4675074 0 1 1 0 62.45090005z m0 187.35270015H334.32960956a31.4675074 31.4675074 0 1 1 0-62.45090005H657.23465129a31.4675074 31.4675074 0 1 1 0 62.45090005z m-8.2299632-429.89456779a30.98339265 30.98339265 0 0 1-31.46750853-29.04693026 29.53104614 29.53104614 0 0 1 9.19819495-21.30108181l265.77941185-257.54944865a32.91985392 32.91985392 0 0 1 45.50685778 0 30.01516088 30.01516088 0 0 1 0 44.53862716l-266.26352774 256.09710101a32.43573917 32.43573917 0 0 1-22.75342831 7.26173255z" p-id="3164" fill="#ffffff"></path></svg>