<?xml version="1.0" standalone="no"?><!DOCTYPE svg PUBLIC "-//W3C//DTD SVG 1.1//EN" "http://www.w3.org/Graphics/SVG/1.1/DTD/svg11.dtd"><svg t="1669882906703" class="icon" viewBox="0 0 1024 1024" version="1.1" xmlns="http://www.w3.org/2000/svg" p-id="1785" width="128" height="128" xmlns:xlink="http://www.w3.org/1999/xlink"><path d="M863.07806942 89.92949983H160.92193058c-72.502908 0-131.519412 58.90861276-131.519412 131.51941199v581.10217636c0 72.502908 58.90861276 131.519412 131.519412 131.51941199h702.0482476c72.502908 0 131.519412-58.90861276 131.519412-131.51941199V221.44891182c0-72.502908-59.01650398-131.519412-131.41152076-131.51941199z m77.46590468 538.48513967H657.22159847c-25.78600448 0-50.06153172-10.14177583-68.51093241-28.59117653s-28.59117652-42.72492794-28.59117652-68.51093242v-38.6250611c0-25.78600448 10.14177583-50.06153172 28.59117652-68.51093242s42.72492794-28.59117652 68.51093241-28.59117653h283.32237563v232.829279zM657.22159847 341.63974443c-83.07624875 0-151.04772502 67.97147626-151.047725 151.04772502v38.6250611c0 83.07624875 67.97147626 151.04772502 151.047725 151.04772502h283.32237563v120.19083261c0 42.72492794-34.74097676 77.57379592-77.57379592 77.57379592H160.92193058c-42.72492794 0-77.57379592-34.74097676-77.57379592-77.57379592V221.44891182c0-42.72492794 34.74097676-77.57379592 77.57379592-77.57379592h702.0482476c20.60722534 0 40.13553836 8.09184241 54.80874594 22.76504998 14.67320757 14.67320757 22.76504998 34.09362936 22.76504998 54.80874594v120.19083261H657.22159847z" p-id="1786" fill="#ffffff"></path><path d="M696.92557191 512m-43.15649286 0a43.15649286 43.15649286 0 1 0 86.31298572 0 43.15649286 43.15649286 0 1 0-86.31298572 0Z" p-id="1787" fill="#ffffff"></path></svg>